<mxfile host="65bd71144e">
    <diagram id="J4CSefJEpJ8ACO5HFQS7" name="Page-1">
        <mxGraphModel dx="1546" dy="971" grid="1" gridSize="10" guides="1" tooltips="1" connect="1" arrows="1" fold="1" page="0" pageScale="1" pageWidth="827" pageHeight="1169" math="0" shadow="0">
            <root>
                <mxCell id="0"/>
                <mxCell id="1" parent="0"/>
                <mxCell id="DSFdceFmaKd0g0XFRlf6-144" style="edgeStyle=orthogonalEdgeStyle;rounded=0;orthogonalLoop=1;jettySize=auto;html=1;exitX=0.5;exitY=0;exitDx=0;exitDy=0;entryX=0.5;entryY=1;entryDx=0;entryDy=0;fontFamily=Lucida Console;fontSize=10;startArrow=none;startFill=0;endArrow=open;endFill=0;" parent="1" source="DSFdceFmaKd0g0XFRlf6-1" target="DSFdceFmaKd0g0XFRlf6-56" edge="1">
                    <mxGeometry relative="1" as="geometry">
                        <Array as="points">
                            <mxPoint x="220" y="510"/>
                            <mxPoint x="500" y="510"/>
                        </Array>
                    </mxGeometry>
                </mxCell>
                <UserObject label="Backend" id="DSFdceFmaKd0g0XFRlf6-1">
                    <mxCell style="swimlane;fontFamily=Lucida Console;" parent="1" vertex="1">
                        <mxGeometry y="560" width="440" height="320" as="geometry"/>
                    </mxCell>
                </UserObject>
                <mxCell id="DSFdceFmaKd0g0XFRlf6-13" style="edgeStyle=orthogonalEdgeStyle;rounded=0;orthogonalLoop=1;jettySize=auto;html=1;exitX=0.5;exitY=1;exitDx=0;exitDy=0;entryX=0.5;entryY=0;entryDx=0;entryDy=0;startArrow=none;startFill=0;endArrow=classic;endFill=1;dashed=1;fontFamily=Lucida Console;" parent="DSFdceFmaKd0g0XFRlf6-1" edge="1">
                    <mxGeometry relative="1" as="geometry">
                        <mxPoint x="180.31499999999994" y="209.9999999999999" as="sourcePoint"/>
                        <mxPoint x="180.32000000000005" y="263" as="targetPoint"/>
                    </mxGeometry>
                </mxCell>
                <mxCell id="DSFdceFmaKd0g0XFRlf6-87" value="«use»" style="edgeLabel;html=1;align=center;verticalAlign=middle;resizable=0;points=[];fontSize=10;fontFamily=Lucida Console;" parent="DSFdceFmaKd0g0XFRlf6-13" vertex="1" connectable="0">
                    <mxGeometry x="-0.283" relative="1" as="geometry">
                        <mxPoint as="offset"/>
                    </mxGeometry>
                </mxCell>
                <mxCell id="DSFdceFmaKd0g0XFRlf6-17" style="edgeStyle=orthogonalEdgeStyle;rounded=0;orthogonalLoop=1;jettySize=auto;html=1;exitX=0.5;exitY=0;exitDx=0;exitDy=0;startArrow=open;startFill=0;endArrow=none;endFill=0;dashed=1;fontFamily=Lucida Console;" parent="DSFdceFmaKd0g0XFRlf6-1" target="14" edge="1">
                    <mxGeometry relative="1" as="geometry">
                        <Array as="points">
                            <mxPoint x="180" y="133"/>
                            <mxPoint x="84" y="133"/>
                        </Array>
                        <mxPoint x="180.31499999999994" y="163" as="sourcePoint"/>
                        <mxPoint x="84" y="110" as="targetPoint"/>
                    </mxGeometry>
                </mxCell>
                <mxCell id="DSFdceFmaKd0g0XFRlf6-19" value="«use»" style="edgeLabel;html=1;align=center;verticalAlign=middle;resizable=0;points=[];fontFamily=Lucida Console;" parent="DSFdceFmaKd0g0XFRlf6-17" vertex="1" connectable="0">
                    <mxGeometry x="0.2651" relative="1" as="geometry">
                        <mxPoint x="19" as="offset"/>
                    </mxGeometry>
                </mxCell>
                <mxCell id="DSFdceFmaKd0g0XFRlf6-88" style="edgeStyle=orthogonalEdgeStyle;rounded=0;orthogonalLoop=1;jettySize=auto;html=1;exitX=1;exitY=0.5;exitDx=0;exitDy=0;entryX=0;entryY=0.5;entryDx=0;entryDy=0;dashed=1;fontSize=10;startArrow=open;startFill=0;endArrow=none;endFill=0;fontFamily=Lucida Console;" parent="DSFdceFmaKd0g0XFRlf6-1" source="15" edge="1">
                    <mxGeometry relative="1" as="geometry">
                        <mxPoint x="236.62999999999988" y="186.5" as="sourcePoint"/>
                        <mxPoint x="304" y="186.50499999999988" as="targetPoint"/>
                    </mxGeometry>
                </mxCell>
                <mxCell id="DSFdceFmaKd0g0XFRlf6-18" style="edgeStyle=orthogonalEdgeStyle;rounded=0;orthogonalLoop=1;jettySize=auto;html=1;exitX=0.5;exitY=0;exitDx=0;exitDy=0;entryX=0.5;entryY=1;entryDx=0;entryDy=0;startArrow=open;startFill=0;endArrow=none;endFill=0;dashed=1;fontFamily=Lucida Console;" parent="DSFdceFmaKd0g0XFRlf6-1" edge="1">
                    <mxGeometry relative="1" as="geometry">
                        <Array as="points">
                            <mxPoint x="180" y="133"/>
                            <mxPoint x="264" y="133"/>
                            <mxPoint x="264" y="93"/>
                        </Array>
                        <mxPoint x="180.31499999999994" y="163" as="sourcePoint"/>
                        <mxPoint x="264.42499999999995" y="93.00000000000011" as="targetPoint"/>
                    </mxGeometry>
                </mxCell>
                <mxCell id="DSFdceFmaKd0g0XFRlf6-20" value="«use»" style="edgeLabel;html=1;align=center;verticalAlign=middle;resizable=0;points=[];fontFamily=Lucida Console;" parent="DSFdceFmaKd0g0XFRlf6-18" vertex="1" connectable="0">
                    <mxGeometry x="-0.0008" y="-1" relative="1" as="geometry">
                        <mxPoint as="offset"/>
                    </mxGeometry>
                </mxCell>
                <mxCell id="DSFdceFmaKd0g0XFRlf6-132" value="Testing" style="text;html=1;align=center;verticalAlign=middle;resizable=0;points=[];autosize=1;strokeColor=none;fillColor=none;fontSize=10;fontFamily=Lucida Console;" parent="DSFdceFmaKd0g0XFRlf6-1" vertex="1">
                    <mxGeometry x="231.63" y="20" width="60" height="20" as="geometry"/>
                </mxCell>
                <mxCell id="DSFdceFmaKd0g0XFRlf6-134" value="Documentation" style="text;html=1;align=center;verticalAlign=middle;resizable=0;points=[];autosize=1;strokeColor=none;fillColor=none;fontSize=10;fontFamily=Lucida Console;" parent="DSFdceFmaKd0g0XFRlf6-1" vertex="1">
                    <mxGeometry x="33.94" y="25" width="90" height="20" as="geometry"/>
                </mxCell>
                <mxCell id="DSFdceFmaKd0g0XFRlf6-135" value="DBMS" style="text;html=1;align=center;verticalAlign=middle;resizable=0;points=[];autosize=1;strokeColor=none;fillColor=none;fontSize=10;fontFamily=Lucida Console;" parent="DSFdceFmaKd0g0XFRlf6-1" vertex="1">
                    <mxGeometry x="160.32" y="300" width="40" height="20" as="geometry"/>
                </mxCell>
                <mxCell id="DSFdceFmaKd0g0XFRlf6-140" value="API Server" style="text;html=1;align=center;verticalAlign=middle;resizable=0;points=[];autosize=1;strokeColor=none;fillColor=none;fontSize=10;fontFamily=Lucida Console;" parent="DSFdceFmaKd0g0XFRlf6-1" vertex="1">
                    <mxGeometry x="324" y="201.49999999999994" width="80" height="20" as="geometry"/>
                </mxCell>
                <mxCell id="13" value="" style="shape=image;verticalLabelPosition=bottom;labelBackgroundColor=#ffffff;verticalAlign=top;aspect=fixed;imageAspect=0;image=data:image/svg+xml,PHN2ZyB4bWxucz0iaHR0cDovL3d3dy53My5vcmcvMjAwMC9zdmciIHdpZHRoPSIzMjAiIGhlaWdodD0iNjAiIHZpZXdCb3g9IjAgMCAzMjAgNjAiPjxzdHlsZT4uQntzdHJva2Utd2lkdGg6MS4zNjl9LkN7c3Ryb2tlOiNmZmZ9LkR7c3Ryb2tlLWxpbmVjYXA6cm91bmR9LkV7c3Ryb2tlLWxpbmVqb2luOnJvdW5kfTwvc3R5bGU+PHBhdGggZD0iTTg2LjA4OCAzMC4xOTNINzQuNDg0di0xMS42N2gxMi4yMzRjNC40NzggMCA2LjcxNyAxLjk3NSA2LjcxNyA1LjkyNiAwIDMuODMtMi40NSA1Ljc0Ni03LjM0NyA1Ljc0Nm04LjM0LTExLjgwOGMtMS42LTEuNDI0LTMuODE1LTIuMTM2LTYuNjc0LTIuMTM2bC0xNi42MTguMDkydjI3LjkyaDMuMzQ4bC0uMDMtMTEuODg2SDg2LjgyYzMuMSAwIDUuNTQyLS43MTIgNy4zMjMtMi4xMzZzMi42NzItMy40IDIuNjcyLTUuOTI3LS43OTUtNC41MDItMi4zODUtNS45Mjd6TTExNi4xIDM4LjRhNS43MiA1LjcyIDAgMCAxLTEuNTg5IDIuMzc1Yy0xLjUgMS40NjQtMy43ODggMi4xOTUtNi44NjYgMi4xOTUtMi43OCAwLTQuOTEyLS43LTYuNC0yLjEzNHMtMi4yMzMtMy4zMjctMi4yMzMtNS43MTNjMC0xLjI0Mi4xOTUtMi4zNDUuNTg0LTMuMzA3cy45NTQtMS43NzQgMS42OTQtMi40MzZjMS41NC0xLjQwMyAzLjY1OC0yLjEwNSA2LjM1Ni0yLjEwNSA1Ljk3NiAwIDguOTY1IDIuNjE2IDguOTY1IDcuODQ4IDAgMS4yNDMtLjE3IDIuMzM1LS41IDMuMjc3bS42MDctMTAuM2MtMi4wNC0xLjg2LTUuMDYtMi44LTkuMDYyLTIuOC0zLjc4IDAtNi43MDIuOTUtOC43NjIgMi44NS0xLjg2IDEuNzItMi44IDQuMDQtMi44IDYuOTYyIDAgMi45Ljk2IDUuMjQgMi44OCA3LjAyIDEuMDYuOTYgMi4yOTUgMS42NTYgMy43MDYgMi4wODZzMy4wNjYuNjQ1IDQuOTY2LjY0NWMzLjk4IDAgNy0uOTIgOS4wOTItMi43NiAxLjg2LTEuNjggMi44LTQgMi44LTYuOTkyIDAtMy0uOTQtNS4zNC0yLjgyLTcuMDIyem0yNS4zMTggMTEuMTA3YzAgMy43NTgtMy4zNjcgNS42MzctMTAuMSA1LjYzNy0yLjA1OCAwLTMuNzkyLS4xMy01LjItLjM5MnMtMi41NTMtLjY5NS0zLjQzMi0xLjI5OGE1LjAyIDUuMDIgMCAwIDEtMS42MTktMS44Yy0uNC0uNzQtLjY2LTEuNjctLjc4LTIuOGwzLjEzMy0uMDNjMCAxLjQ4LjU0OCAyLjU2OCAxLjY0NSAzLjI2OCAxLjE3Ny44NCAzLjI2IDEuMjYgNi4yNTMgMS4yNiA0LjcwNiAwIDcuMDYtMS4xOCA3LjA2LTMuNTM4IDAtMS4zOC0uOC0yLjMyOC0yLjM2OC0yLjg1LS4zMi0uMS0yLjIyMy0uMzY1LTUuNy0uNzk0cy01LjY2LS44MTUtNi41MTgtMS4xNTVjLTEuODU4LS43NC0yLjc4Ny0yLjA3LTIuNzg3LTMuOTg4IDAtMS44OC44My0zLjI4IDIuNS00LjE5OC44Mi0uMzggMS44NDUtLjY3NCAzLjA3Ni0uODg1czIuNjU2LS4zMTUgNC4yNzYtLjMxNWM2LjQ4MiAwIDkuNzIzIDIuMDM0IDkuNzIzIDYuMWgtMi45OGMwLTIuODYtMi4yOC00LjMtNi44MzUtNC4zLTIuMzE4IDAtNC4wNDcuMy01LjE4Ni44N3MtMS43MDggMS40Ny0xLjcwOCAyLjY3YzAgMS4xMi43NyAxLjkzIDIuMzA4IDIuNDMuOS4yNiAyLjk2OC41NiA2LjIwNi45IDIuODk4LjI2IDQuODg3LjYzIDUuOTY2IDEuMSAyLjA2LjggMy4wODggMi4xNiAzLjA4OCA0LjA3N3ptMTIuMzA2IDUuMDkzbC0xLjI3NS4xOC0uNzk1LjA2Yy0yLjA0IDAtMy41LS4yOTUtNC40MTMtLjg4N3MtMS4zNTMtMS42MjctMS4zNTMtMy4xVjI3Ljc5OEgxNDIuOHYtMS44NzRoMy42ODdsLjAzLTYuMDJoMi44NTZ2Ni4wMmg0Ljk3NHYxLjkwNGwtNC45NzQtLjAzdjEyLjM5N2MwIC45MjMuMjQ1IDEuNTYuNzM1IDEuOXMxLjM2NC41MjYgMi42MjQuNTI2Yy4xOC4wMi4zOC4wMTQuNi0uMDJhMTAuNTUgMTAuNTUgMCAwIDAgLjk5LS4yMjZsLjAzIDEuOXptMTkuNzU1LTQuMjNjLS43OC42NC0xLjY2OCAxLjEyOC0yLjY2NyAxLjQ3cy0yLjE0OC41LTMuNDQ2LjVjLTUuOTc0IDAtOC45Ni0yLjQ2Ny04Ljk2LTcuNCAwLTIuMjk3Ljc2NC00LjA5NSAyLjI5My01LjM5NHMzLjY4LTEuOTQ4IDYuNDU4LTEuOTQ4YzIuNzk3IDAgNC45Mi42NTUgNi4zNjggMS45NjNzMi4xNzMgMy4wNjIgMi4xNzMgNS4yNmMwIDIuMzk3LS43NCA0LjI0NS0yLjIxOCA1LjU0M201LjA3NS0xNC4xMzVoLTIuODU2bC0uMDMgMy4xNWMtMS4yNi0xLjI4LTIuMTYtMi4wODctMi43LTIuNDI3LTEuNi0uODgtMy42NjgtMS4zMTgtNi4yMDctMS4zMTgtMy43MTggMC02LjU1OC44NS04LjUxNiAyLjU0OC0xLjg2IDEuNTYtMi43ODggMy44MTctMi43ODggNi43NzQgMCAxLjQ2LjIzNSAyLjc2Mi43MDUgMy45czEuMTU2IDIuMTIzIDIuMDU3IDIuOTIyYzEuOTYyIDEuNjM4IDQuNzM1IDIuNDU4IDguMzIgMi40NTggNC4zMDQgMCA3LjM1Ny0xLjE3NyA5LjE2LTMuNTMydjMuMjZjMCAyLjA4LS42NTUgMy42ODgtMS45NjQgNC44MjhzLTMuNDYzIDEuNy02LjQ2MiAxLjdjLTIuODIgMC00LjgyOC0uNC02LjAyNy0xLjE2NC0uOS0uNTk3LTEuNTItMS42MzItMS44Ni0zLjEwNWgtMi45NGMuMzIgMi4wNTcgMS4yIDMuNTQ1IDIuNiA0LjQ2MyAxLjY0IDEuMDU4IDQuNCAxLjU4NyA4LjMgMS41ODcgNy40NiAwIDExLjItMi43NzMgMTEuMi04LjMyVjI1LjkzN3ptMTUuNDUgMS44NTNjLS44Ni0uMTQtMS42NTgtLjItMi4zOTYtLjItNC42OTUgMC03LjA0MiAyLjU3NS03LjA0MiA3LjcyM3Y4Ljk1NGgtMi44MjZsLS4wMy0xOC4zMjIgMi44NTcuMDI4djMuMjdoLjE1Yy40OC0xLjI4OCAxLjI0LTIuMjY1IDIuMjc4LTIuOTMgMS4xMzgtLjY0NCAyLjgzNi0uOTY2IDUuMDk0LS45NjZoMS45MTd2Mi40NnptMi42NTcgNi4xNThjLjM2LTIuMDgyIDEuMTctMy42OTQgMi40MjctNC44MzYuODItLjY2IDEuNzUtMS4xNTcgMi43ODgtMS40ODdzMi4yLS40OTYgMy41MDgtLjQ5NmMyLjUzOCAwIDQuNi42OTYgNi4yMiAyLjA4OHMyLjQxMiAyLjk3IDIuNDEyIDQuNzNIMTk3LjI4bTE3LjYzMy01LjY1MmMtMS0xLjAwMy0yLjI0LTEuNzQ0LTMuNzItMi4yMjZzLTMuMi0uNzIyLTUuMi0uNzIyYy0zLjcgMC02LjU3Ljg2LTguNjEyIDIuNThzLTMuMDYgNC4wNi0zLjA2IDcuMDIyLjk4IDUuMyAyLjk0IDcuMDVjMi4xMiAxLjkyIDUuMSAyLjg4IDguOTY4IDIuODggMS41NCAwIDIuOTYzLS4xNzUgNC4yNzMtLjUyM3MyLjQ1NS0uODQyIDMuNDM0LTEuNDhjMS43Mi0xLjIzNSAyLjgwOC0yLjc2IDMuMjctNC41N2gtMy4wODhjLTEuMDYgMy4xMzMtMy42OTcgNC43LTcuOTE0IDQuNy0yLjk3OCAwLTUuMjY3LS43NjYtNi44NjUtMi4yOTgtMS4zOC0xLjMxMy0yLjA2OC0zLjAxNC0yLjA2OC01LjEwNGgyMC4zNjNjMC0zLjEwOC0uOS01LjU0NS0yLjczLTcuM3oiIGZpbGw9IiMyMzFmMjAiLz48cGF0aCBkPSJNMjQ3LjgyIDM2Ljc3NmMwIDUuNDQtNC4zODcgOC4xNi0xMy4xNjIgOC4xNi01LjI1NyAwLTkuMDk1LS45MzctMTEuNTEzLTIuOC0xLjk4LTEuNTQtMi45NjgtMy44ODgtMi45NjgtNy4wNDhoMy41MzJjMCA1LjA3OCAzLjY1IDcuNjE3IDEwLjk0OCA3LjYxNyAzLjUgMCA2LjAzLS41MiA3LjYtMS41NTggMS4zMi0uOTE4IDEuOTgtMi4zNTcgMS45OC00LjMxNCAwLTEuOTM4LS45LTMuMjk2LTIuNy00LjA3Ni0xLjAyLS40Mi0zLjUtLjk1LTcuNDctMS41ODgtNC45OC0uNzYtOC4yMDgtMS41MTgtOS42ODgtMi4yNzctMi4xNC0xLjEyLTMuMi0zLjAxNy0zLjItNS42OTQgMC0yLjQ5Ny45LTQuMzU1IDIuNzMtNS41NzQgMS45Ni0xLjMzOCA1LjMyLTIuMDA4IDEwLjA3OC0yLjAwOCA4LjYgMCAxMi45IDIuODU2IDEyLjkgOC41NjhoLTMuNTYzYzAtNC4yOC0zLjE5My02LjQxOC05LjU3OC02LjQxOC0zLjIwMyAwLTUuNTQ1LjQzLTcuMDI2IDEuMy0xLjQwMi45Mi0yLjEgMi4yNy0yLjEgNC4wNSAwIDEuODYuOSAzLjE3IDIuNyAzLjkzLjk2LjQ0IDMuNzggMS4wNSA4LjQ2IDEuODMgNC40LjY2IDcuMzcgMS40MyA4LjkgMi4zIDIuMSAxLjA4IDMuMTUgMi45NSAzLjE1IDUuNnptMjguNyAyLjc3NmMtMS4zMiAxLjA1Ny0yLjgxMiAxLjg1LTQuNDczIDIuMzhzLTMuNTIzLjc5My01LjU4NC43OTNjLTQuMjA0IDAtNy42LTEuMTMzLTEwLjE5NC0zLjM5OHMtMy44ODctNS4yODQtMy44ODctOS4wNTdjMC0zLjkzMiAxLjI4NS02Ljk5NiAzLjg1Ny05LjE5MnM1Ljk4LTMuMjkzIDEwLjIyMy0zLjI5M2M0LjMwMyAwIDcuNjg2IDEuMTQ4IDEwLjE0OCAzLjQ0MyAxLjMgMS4xMiAyLjI2IDIuNDI2IDIuODgyIDMuOTIzcy45MyAzLjIwNC45MyA1LjEyYzAgMy45MTItMS4zMDIgNy4wMDYtMy45MDQgOS4yOG0xLjg3OCAxLjg1MmMxLjg0LTEuMjk4IDMuMjAyLTIuODcgNC4wODMtNC43MThzMS4zMjItMy45OCAxLjMyMi02LjM5OGMwLTQuMzM1LTEuNDQtNy44LTQuMzItMTAuNDI4LTEuNTQtMS40MzgtMy40LTIuNTA3LTUuNTgtMy4yMDZzLTQuNjctMS4wNS03LjQ3LTEuMDVjLTUuNDQgMC05LjcgMS4zMi0xMi44IDMuOTU1cy00LjY1IDYuMjEyLTQuNjUgMTAuNzI3YzAgNC4zOTQgMS41NjQgNy45NCA0LjY5MyAxMC42MzZzNy40MDMgNC4wNDUgMTIuODIgNC4wNDVjMi4xMiAwIDMuOTY4LS4xNDMgNS41NDctLjQzczIuOTItLjcyNyA0LjAyLTEuMzJsNS4yMTggMy42MTcgMi4xOC0yLjAwMi01LjA1My0zLjQyN3ptMzEuODUgMi44NTdIMjg2LjFWMTYuM2wzLjMxOC0uMDZ2MjUuNjc3aDIwLjg0OGwtLjAzIDIuMzM0eiIgZmlsbD0iIzM2N2ZhZiIvPjxwYXRoIGQ9Ik00OC4yMzcgMzkuNTY3Yy4zMzYtMi4zNy4yMzUtMi43MTggMi4zMTgtMi4zMzRsLjUzLjA0YzEuNjAyLjA2MiAzLjY5Ny0uMjE4IDQuOTI4LS43MDMgMi42NS0xLjA0MiA0LjIyLTIuNzgyIDEuNjA4LTIuMzI1LTUuOTYgMS4wNDItNi4zNy0uNjctNi4zNy0uNjcgNi4yOTMtNy45MTUgOC45MjQtMTcuOTYzIDYuNjU0LTIwLjQyM0M1MS43IDYuNDQ1IDQwLjk5IDkuNjE3IDQwLjggOS43bC0uMDU3LjAxYy0xLjE3OC0uMjA3LTIuNDk2LS4zMy0zLjk3Ni0uMzUtMi42OTctLjAzOC00Ljc0My42LTYuMjk2IDEuNTk3IDAgMC0xOS4xMjYtNi42OC0xOC4yMzYgOC40LjE5IDMuMjA4IDUuNDI1IDI0LjI3MyAxMS42NjggMTcuOTEgMi4yODItMi4zMjcgNC40ODgtNC4yOTQgNC40ODgtNC4yOTRhNi42IDYuNiAwIDAgMCAzLjc4MS44MThsLjEwNi0uMDc3Yy0uMDMzLjI5LS4wMi41Ny4wNDMuOTA2LTEuNjA4IDEuNTIzLTEuMTM2IDEuNzktNC4zNTIgMi4zNTItMy4yNTMuNTY4LTEuMzQyIDEuNTgtLjA5NCAxLjg0NSAxLjUxMy4zMiA1LjAxMy43NzUgNy4zNzgtMi4wM2wtLjA5NC4zMmMuNjMuNDI4LjU4OCAzLjA3NS42NzggNC45NjdzLjI0IDMuNjU3LjY5NCA0LjY5OC45OTIgMy43MiA1LjIxOCAyLjk1NGMzLjUzMi0uNjQyIDYuMjMzLTEuNTY1IDYuNDgtMTAuMTU1IiBmaWxsPSIjMjMxZjIwIiBzdHJva2U9IiMyMzFmMjAiIHN0cm9rZS13aWR0aD0iNC4xMDgiLz48cGF0aCBkPSJNNTcuNjIgMzQuMjQ0Yy01Ljk2IDEuMDQyLTYuMzctLjY3LTYuMzctLjY3IDYuMjkzLTcuOTE2IDguOTI0LTE3Ljk2NCA2LjY1NC0yMC40MjNDNTEuNzEgNi40NDQgNDAuOTkgOS42MTcgNDAuOCA5LjdsLS4wNTguMDFjLTEuMTc4LS4yMDctMi40OTYtLjMzLTMuOTc3LS4zNS0yLjY5Ny0uMDM3LTQuNzQzLjYtNi4yOTUgMS41OTcgMCAwLTE5LjEyNy02LjY4LTE4LjIzNyA4LjQuMTkgMy4yMDggNS40MjQgMjQuMjc0IDExLjY2OCAxNy45MSAyLjI4Mi0yLjMyNyA0LjQ4Ny00LjI5NCA0LjQ4Ny00LjI5NGE2LjYgNi42IDAgMCAwIDMuNzgxLjgxOGwuMTA3LS4wNzdjLS4wMzMuMjktLjAxOC41Ny4wNDMuOTA2LTEuNjA4IDEuNTIzLTEuMTM2IDEuNzktNC4zNSAyLjM1Mi0zLjI1NC41NjgtMS4zNDIgMS41OC0uMDk0IDEuODQ1IDEuNTEzLjMyIDUuMDEzLjc3NSA3LjM3OC0yLjAzbC0uMDk0LjMyYy42My40MjggMS4wNzMgMi43ODMgMSA0Ljkycy0uMTI0IDMuNi4zNzMgNC43NDYuOTkyIDMuNzIgNS4yMiAyLjk1NGMzLjUzMi0uNjQyIDUuMzYzLTIuMzA0IDUuNjE3LTUuMDc4LjE4LTEuOTcyLjU5LTEuNjguNjE1LTMuNDQzbC4zMjgtLjgzNGMuMzc4LTIuNjczLjA2LTMuNTM1IDIuMjM2LTMuMTM0bC41My4wNGMxLjYwMi4wNjIgMy42OTgtLjIxOCA0LjkyOC0uNzAzIDIuNjUtMS4wNDIgNC4yMi0yLjc4MiAxLjYwOC0yLjMyNXoiIGZpbGw9IiM0MTdiYTIiLz48ZyBmaWxsPSJub25lIiBjbGFzcz0iQyBCIj48ZyBjbGFzcz0iRCI+PHBhdGggZD0iTTM1LjUxOCAzNS43NzdjLS4xNjQgNC45NzMuMDQgOS45ODIuNjE1IDExLjJzMS44MDQgMy41ODUgNi4wMzIgMi44MTdjMy41MzItLjY0MiA0LjgxNy0xLjg4NCA1LjM3NC00LjYyNi40LTIuMDE3IDEuMjAzLTcuNjIgMS4zMDQtOC43NjdNMzAuNDUgMTAuODQzUzExLjMgNC4yMTMgMTIuMiAxOS4zYy4yIDMuMjA4IDUuNDI0IDI0LjI3NCAxMS42NyAxNy45IDIuMjgyLTIuMzI3IDQuMzQ1LTQuMTUyIDQuMzQ1LTQuMTUyTTQwLjggOS42MzNjLS42NjMuMTc2IDEwLjY0Ny0zLjUwNCAxNy4wNzQgMy40NTcgMi4yNyAyLjQ2LS4zNiAxMi41MDgtNi42NTQgMjAuNDI0IiBjbGFzcz0iRSIvPjxwYXRoIGQ9Ik01MS4yMSAzMy41MTNzLjQgMS43MSA2LjM3LjY2OGMyLjYxMi0uNDU3IDEuMDQgMS4yODMtMS42MSAyLjMyNi0yLjE3NC44NTUtNy4wNDggMS4wNzQtNy4xMjctLjEwNy0uMjA1LTMuMDUgMi41NjUtMi4xMjMgMi4zNjUtMi44ODctLjE4LS42ODgtMS40Mi0xLjM2My0yLjI0LTMuMDQ3LS43MTUtMS40Ny05LjgxLTEyLjc0MiAyLjUyMi0xMS4wNjguNDUyLS4wOC0zLjIxNy05Ljk0NC0xNC43Ni0xMC4xMDRzLTExLjE2IDEyLjAzLTExLjE2IDEyLjAzIiBzdHJva2UtbGluZWpvaW49ImJldmVsIi8+PC9nPjxnIGNsYXNzPSJFIj48cGF0aCBkPSJNMzIuMjg4IDM0LjU1NmMtMS42MSAxLjUyMy0xLjEzNiAxLjc5LTQuMzUyIDIuMzUyLTMuMjU0LjU3LTEuMzQyIDEuNTgtLjA5NCAxLjg0NSAxLjUxMy4zMiA1LjAxMy43NzUgNy4zNzgtMi4wMzIuNzItLjg1NS0uMDA0LTIuMjItLjk5My0yLjU2Ni0uNDc4LS4xNjgtMS4xMTctLjM3OC0xLjk0LjR6Ii8+PHBhdGggZD0iTTMyLjE4MyAzNC41M2MtLjE2Mi0uODk2LjM0Ny0xLjk2Ljg5My0zLjIwOC44Mi0xLjg3IDIuNzEyLTMuNzQyIDEuMi05LjY3Ny0xLjEyOC00LjQyMy04LjY5Ny0uOTItOC43LS4zMnMuMzQyIDMuMDQtLjEyNyA1Ljg4Yy0uNjEyIDMuNzA4IDIuNzgzIDYuODQzIDYuNjkyIDYuNTIzIiBjbGFzcz0iRCIvPjwvZz48L2c+PGcgZmlsbD0iI2ZmZiIgY2xhc3M9IkMiPjxwYXRoIGQ9Ik0zMC4zODIgMjEuMjMzYy0uMDM0LjIwNS40NDMuNzUgMS4wNjQuODI0czEuMTUtLjM1NCAxLjE4NS0uNTU4LS40NDItLjQzLTEuMDY0LS41MDQtMS4xNTIuMDM0LTEuMTg1LjIzOHoiIHN0cm9rZS13aWR0aD0iLjQ1NiIvPjxwYXRoIGQ9Ik00OS4yNzMgMjAuODE2Yy4wMzQuMjA1LS40NDIuNzUtMS4wNjQuODI0cy0xLjE1Mi0uMzU0LTEuMTg2LS41Ni40NDMtLjQzIDEuMDY0LS41MDQgMS4xNS4wMzMgMS4xODUuMjM4eiIgc3Ryb2tlLXdpZHRoPSIuMjI4Ii8+PC9nPjxwYXRoIGQ9Ik01MS40OTMgMTkuMzk4Yy4xMDIgMS42MDctLjQwOCAyLjctLjQ3MyA0LjQxMi0uMDk1IDIuNDg2IDEuMzk4IDUuMzMtLjg1MiA4LjE4IiBmaWxsPSJub25lIiBjbGFzcz0iQiBDIEQgRSIvPjwvc3ZnPg==;" vertex="1" parent="DSFdceFmaKd0g0XFRlf6-1">
                    <mxGeometry x="100.32" y="270" width="160" height="30" as="geometry"/>
                </mxCell>
                <mxCell id="14" value="" style="shape=image;verticalLabelPosition=bottom;labelBackgroundColor=#ffffff;verticalAlign=top;aspect=fixed;imageAspect=0;image=data:image/svg+xml,PHN2ZyB4bWxucz0iaHR0cDovL3d3dy53My5vcmcvMjAwMC9zdmciIHhtbG5zOnhsaW5rPSJodHRwOi8vd3d3LnczLm9yZy8xOTk5L3hsaW5rIiB3aWR0aD0iMTIwIiBoZWlnaHQ9IjYwIiB2aWV3Qm94PSIwIDAgMTIwIDYwIj48ZyB0cmFuc2Zvcm09Im1hdHJpeCguMjkzNzUzIDAgMCAuMjkzNzUzIDYuMjQxNjUyIDEyLjY2NjY4KSI+PHBhdGggZD0iTTMyLjYgNjcuNEgzLjA0NGwuMDE3LjQzMy4wNS44MzMuMDIyLjM1Ni4wOC45NjIuMDIuMjE1LjExNSAxLjA2NWExLjE2IDEuMTYgMCAwIDAgLjAxMS4xMDNsLjE1IDEuMTQ0Yy4zNDIgMi4zNy44NSA0LjcwNCAxLjUzIDYuOTk4bC4wMS4wMy4zNTMgMS4xNC4wMi4wNjMuMzI1Ljk2OC4wODYuMjQ0LjMwNC44MzcuMTQzLjM3OC4yNy43LjIxMy41Mi4yMjYuNTQuMy42NTguMTc1LjQuMzY4Ljc4Ny4xMjIuMjUyLjQ0My44OTUuMDcuMTM3LjU0IDEuMDI1LjExNS4yTDM0LjQ0NyA3NGMtLjk5Ni0yLjEtMS42MTYtNC4zMzItMS44NDYtNi42ek00LjQ0IDgwLjk2MmwuMDA4LjAyNy45NTQtLjN6IiBmaWxsPSIjOTNkNTAwIi8+PHBhdGggZD0iTTM5Ljg2NSA4MC45NzdsLTIwLjkgMjAuODkuMzIzLjI5OC44OTMuNzkyLjcxLjYwMi4xOTIuMTYuODEyLjY1NC4xMDUuMDgzLjg5NC42ODZhLjIzLjIzIDAgMCAxIC4wMzQuMDI1bDMuODk1IDIuNjMzLjE0LjA4NS43NjcuNDUzLjQ3LjI2OC40NDYuMjUuODE0LjQ0LjExMy4wNiAyLjMwMyAxLjExOCAxMS4yNDctMjcuMzJjLTEuMTQyLS42MS0yLjIzOC0xLjMzNC0zLjI3LTIuMTh6IiBmaWxsPSIjNGQ1YTMxIi8+PHBhdGggZD0iTTM3LjY5NyA3OC45MDRsLS42NS0uNzY1LS41NC0uNjk3LS41NzgtLjgxOC0uNTQtLjg0My0yNS4yNzYgMTUuMjI1IDEuMzAyIDIuMDQ1LjEwNS4xNTQuMDA2LjAxIDEuMzU4IDEuOTE0LjAzLjA0LjAzLjA0LjYxNC44LjczNy45MTUuMTU4LjE5LjYwNC43MTMuMjY2LjMwMi41MjQuNi4yOTcuMzIyLjEzNS4xNDYuNC40Mi4xNi4xNjQuNy43MTYgMjAuODUtMjAuODUtLjY4My0uNzN6IiBmaWxsPSIjNmJhNDNhIi8+PHBhdGggZD0iTTY1LjMzNCA4MC45NjZsLS42OTcuNTQuMDUyLjA4NyAxNS4yMDIgMjUuMjM1IDIuMDgtMS40MzJjMS40Ny0xLjA4NSAyLjg5NS0yLjI2IDQuMjY3LTMuNTI3bC0yMC44MjItMjAuODJ6IiBmaWxsPSIjNGQ1YTMxIi8+PGcgZmlsbD0iIzkzZDUwMCI+PHBhdGggZD0iTTc3Ljk3IDEwOC4wM2wuMDM0LS4wMi0uMDAxLS4wMDEtLjAzMy4wMnptLS4wMTUuMDFoLjAwMSAweiIvPjxwYXRoIGQ9Ik03OC4wMDMgMTA4bC4yLS4xLS4wMDQtLjAwNy0uMTk2LjExN3ptLS4wMzMuMDNsLS4wMS4wMDV6Ii8+PHBhdGggZD0iTTc3Ljk1NSAxMDguMDRoLjAwMWwtLjAzNy0uMDYyem0uMDE1LS4wMWwuMDM0LS4wMTgtLjAzNC4wMTh6Ii8+PHBhdGggZD0iTTc3Ljk1IDEwOC4wNGwtLjAxLjAwNS4wMS0uMDA0em0uMDA1IDBoLS4wMDRsLjAwNS0uMDAyem0uMDA1LS4wMDVsLS4wMDYuMDAzLjAxNS0uMDF6bS4wNDQtLjAyM2wuMTk4LS4xMTItLjE5OC4xMTJ6bS4xOTQtLjEybC4wMDQuMDA3em0tLjI2NC4xNTdoLjAwMnoiLz48cGF0aCBkPSJNNzcuOTQyIDEwOC4wNDZsLS4wMDYuMDA0LjAwNi0uMDAzeiIvPjxwYXRoIGQ9Ik03Ny42ODIgMTA3LjAzNmwtMTQuNzA2LTI0LjQtLjg3NC40ODctLjg5Ni40NWEyMC4xNSAyMC4xNSAwIDAgMS04LjYzMiAxLjk1MyAyMC4xIDIwLjEgMCAwIDEtNS43NDItLjgzOGwtLjk0NS0uMzMyLS45NDQtLjMzNS0xMS4yMjYgMjcuMjY1LjA4Mi4wMy4wODYuMDMzaC4wMDFsLjAyMi4wMSAyLjE1NS44MjVhNDkuOTQgNDkuOTQgMCAwIDAgMTAuMTIgMi40MjIgMTcuODMgMTcuODMgMCAwIDEgLjQwNC4wNTRsMS4yMjIuMTMzLjE5OC4wMTcuOTguMDgyLjMzMy4wMi44NTguMDUuNTI2LjAyLjY4Mi4wMjQgMS4yMTguMDE1YTQ5Ljc2IDQ5Ljc2IDAgMCAwIDguMjMzLS42ODZsLjEzOC0uMDIuODY0LS4xNTcuNS0uMDk1LjUwNS0uMTA2Ljg0Mi0uMTg1LjE1Mi0uMDM1YTQ5Ljg1IDQ5Ljg1IDAgMCAwIDExLjg5Ny00LjQzNmwuMDAxLS4wMDEuNzMtLjQgMS40ODMtLjgzNi0uMDI0LS4wNy4wMzcuMDYzLjA0OC0uMDI4LjE5NS0uMTE3ek0zOS44NzYgNDkuODUybC42OTctLjU0LS4wNTItLjA4N0wyNS4zMiAyNGwtMi4wODUgMS40MzZjLTEuNDcgMS4wODItMi44OTMgMi4yNTctNC4yNjIgMy41MjJMMzkuNzk1IDQ5Ljc3eiIvPjwvZz48cGF0aCBkPSJNMTcuNTMgMzAuMzM0bC0xLjM4NCAxLjQ0NWMtMS41MzggMS42NjUtMi45NDQgMy40LTQuMjEyIDUuMjJsLS4xODIuMjYtLjQyMy42MjUtLjQzLjY1Ni0uMTU2LjI0YTQ5LjQ4IDQ5LjQ4IDAgMCAwLTcuNyAyNC42MjdsLS4wMjcgMS0uMDE3IDFoMjkuNDg4bC4wNDgtMSAuMDU1LTFhMjAuMDEgMjAuMDEgMCAwIDEgNC40NDctMTAuNzRjLjItLjI1Ni40NDctLjQ5Ni42NzItLjc0M3MuNDMyLS41MDQuNjctLjc0MnptNjAuODQzLTcuMzJsLS4xMjItLjA3My0uNzgzLS40NjUtLjQ1Ny0uMjYtLjQ2LS4yNTYtLjgtLjQzMi0uMTI2LS4wNjZjLTEuNzMtLjkwNC0zLjUwNS0xLjctNS4zMTgtMi40bC0uMTQtLjA1NC0xLjItLjQzM2MtMy4yMi0xLjEyNS02LjU1Mi0xLjkxNC05LjkzNi0yLjM1OGwtLjQxNS0uMDU2LS40MTUtLjA0Ni0uOC0uMDg3LS4yMjQtLjAyLS45NTMtLjA4LTEuMi0uMDczLS40MzQtLjAxN3YyOS41NmMxLjUxNy4xNTcgMy4wMi40OCA0LjQ3OC45NzVMODAuODMgMjQuNjNhNDguOTcgNDguOTcgMCAwIDAtMi40NjQtMS42MTR6IiBmaWxsPSIjNGQ1YTMxIi8+PGcgZmlsbD0iIzZiYTQzYSI+PHBhdGggZD0iTTI3LjAxMyAyMi45MjRsLjUxNi44NTd6bTAgMEwyNyAyMi45MnoiLz48cGF0aCBkPSJNNTEuNjA2IDE1LjgyNWwtMSAuMDJjLTIuMDg2LjA4NC00LjE2OC4yOTctNi4yMzMuNjQzbC0uMTM2LjAyMy0uODY1LjE1Ny0uNS4wOTQtLjUwOC4xMDYtLjg0LjE4NC0uMTUzLjAzNGE0OS44OSA0OS44OSAwIDAgMC0xMS44OTggNC40MzhoLS4wMDFsLTIuNDcgMS4zOTQuMDAzLjAwNSAxNS4yMiAyNS4yNy44NzQtLjQ4N2ExOS43MSAxOS43MSAwIDAgMSAuODk1LS40NTEgMjAuMDUgMjAuMDUgMCAwIDEgNi42MDEtMS44NWwxLS4wOHMuNjY2LS4wMzQgMS0uMDM0bC4wMDEtMjkuNDg3Yy0uMzM0LS4wMDEtLjY2Ny4wMTMtMSAuMDJ6Ii8+PC9nPjxwYXRoIGQ9Ik0xMDIuMTUgNjIuOTdsLS4wNDgtLjc5NS0uMDI2LS4zOTctLjA3Ny0uOTM0LS4wMi0uMjQyLS4xMS0xLjA0My0uMDEtLjA4NC0uMDA1LS4wNC0uMTUtMS4xMjRjLS4wMDEtLjAxLS4wMDItLjAyNS0uMDA1LS4wMzVhNDkuNTYgNDkuNTYgMCAwIDAtMS41MjQtNi45NzJsLS4wMTQtLjA0NC0uMzI4LTEuMDYzLS4wNDUtLjE0LS4zMi0uOTU0LS4wOS0uMjU4LS4zLS44MjMtLjE1LS4zOS0uMjY1LS42NzgtLjIxOC0uNTM0LS4yMi0uNTI2LS4yOTQtLjY3LS4xNy0uMzc4LS4zNzMtLjc5Ny0uMTE2LS4yNDItLjQ0OC0uOTA2LS4wNjUtLjEyNS0uNTItMWMtLjAwNy0uMDEtLjAxMi0uMDI0LS4wMi0uMDM1LS44Ni0xLjU4LTEuODAyLTMuMTA4LTIuODIyLTQuNTc4TDcxLjYzMiA1OC45M2EyMC41IDIwLjUgMCAwIDEgLjk3NCA0LjQ3N2gyOS41NmwtLjAxNi0uNDM3eiIgZmlsbD0iIzRkNWEzMSIvPjxwYXRoIGQ9Ik03Mi43MjIgNjUuNDA4bC0uMDQ4IDEtLjA1NSAxYy0uMzggMy44NC0xLjg2MyA3LjYtNC40NDYgMTAuNzQtLjIuMjU2LS40NDcuNDk2LS42NzIuNzQzcy0uNDMyLjUwNC0uNjcuNzQybDIwLjg1IDIwLjg1Yy4yMzctLjIzNy40Ni0uNDgyLjY5LS43MjNsLjY5LS43MjNjMS41NDMtMS42NyAyLjk1My0zLjQyIDQuMjI0LTUuMjM2bC4xNDgtLjIxNC40NTgtLjY3My4zOTUtLjYwNS4yLS4yOTVjNC43ODItNy41MSA3LjM0LTE2LjAyIDcuNjg1LTI0LjYwN2wuMDI3LTEgLjAxNy0xSDcyLjcyMnoiIGZpbGw9IiM2YmE0M2EiLz48cGF0aCBkPSJNMTEwLjk2NyA3LjA0NmMtNS4zOTUtNS4zOTUtMTQuMTQyLTUuMzk1LTE5LjUzNiAwLTQuMzA0IDQuMzAzLTUuMTY0IDEwLjczNi0yLjYgMTUuOTAyTDU4Ljc0IDUzLjA0Yy01LjE2Ni0yLjU2Mi0xMS42LTEuNzAzLTE1LjkwMyAyLjZhMTMuODIgMTMuODIgMCAwIDAgMCAxOS41MzcgMTMuODIgMTMuODIgMCAwIDAgMTkuNTM4LS4wMDFjNC4zMDMtNC4zMDMgNS4xNjItMTAuNzM2IDIuNi0xNS45MDNsMzAuMDktMzAuMDljNS4xNjcgMi41NjIgMTEuNiAxLjcwMyAxNS45MDItMi42IDUuMzk2LTUuMzkzIDUuMzk2LTE0LjE0LjAwMS0xOS41MzV6IiBmaWxsPSIjNDI0MTQzIi8+PC9nPjxnIGZpbGw9IiM0MjQxNDMiPjxwYXRoIGQ9Ik00Mi41ODIgMjYuNDA2YzAtMy40NjQgMi41MzMtNS45NDYgNi4wMTUtNS45NDYgMy40NjQgMCA1Ljk5NyAyLjQ4MiA1Ljk5NyA1Ljk0NnMtMi41MzMgNS45NDYtNS45OTcgNS45NDZjLTMuNDggMC02LjAxNS0yLjQ4Mi02LjAxNS01Ljk0NnptOS40OTYgMGMwLTIuMTU0LTEuMzYtMy43NzQtMy40OC0zLjc3NC0yLjEzNyAwLTMuNSAxLjYyLTMuNSAzLjc3NCAwIDIuMTM3IDEuMzYgMy43NzQgMy41IDMuNzc0IDIuMTIgMCAzLjQ4LTEuNjM3IDMuNDgtMy43NzR6Ii8+PHVzZSB4bGluazpocmVmPSIjQiIvPjxwYXRoIGQ9Ik02Ni4yMjUgMzIuMTQ0VjIwLjY1aDguMTM0djIuMTU0aC01LjY4N3YyLjQxM2g1LjU2N3YyLjE1NGgtNS41NjdWMzBoNS42ODd2Mi4xNTR6bTE3LjU0MiAwbC01LjQ4LTcuNDk3djcuNDk3SDc1Ljg0VjIwLjY1aDIuNTE2bDUuMzI1IDcuMjJ2LTcuMjJoMi40NDd2MTEuNDk1em0xMi43MiAwbC0uNzI0LTEuOTQ3aC00LjkzbC0uNzI0IDEuOTQ3aC0yLjc3NWw0LjQzLTExLjQ5NWgzLjA2OGw0LjQyOCAxMS40OTV6bS0zLjE4OC05LjA0OGwtMS43OTIgNC45NDZIOTUuMXoiLz48dXNlIHhsaW5rOmhyZWY9IiNCIiB4PSI0NC4wMTIiLz48cGF0aCBkPSJNMTEwLjIzNiAzMi4xNDRWMjAuNjVoMi40NDd2MTEuNDk1eiIvPjwvZz48cGF0aCBkPSJNNzEuNDQ1IDM5LjU0di0zLjgzMmguNjcydjMuODMyem01Ljc5NSAwbC0yLTIuNzR2Mi43NGgtLjY3MnYtMy44MzJoLjdsMS45NiAyLjY1NHYtMi42NTRoLjY3MnYzLjgzMnptMy4xMDIgMHYtMy44MzJoLjY3MnYzLjgzMnptNC4wMzggMFYzNi4zaC0xLjE2di0uNTkyaDIuOTkzdi41OTJoLTEuMTZ2My4yNHptNC4wMzggMHYtMy44MzJoLjY3MnYzLjgzMnptNS44MTQgMGwtLjI4Mi0uNzRoLTEuNzU4bC0uMjgyLjc0aC0uNzY0bDEuNTA1LTMuODMyaC44MzhsMS41MDUgMy44MzJ6bS0xLjE2LTMuMTZsLS43IDEuODI3aDEuMzh6bTQuNTE0IDMuMTZWMzYuM2gtMS4xNnYtLjU5MmgyLjk5M3YuNTkyaC0xLjE2djMuMjR6bTQuMDM4IDB2LTMuODMyaC42NzJ2My44MzJ6bTQuMjM0IDBsLTEuNTA2LTMuODMyaC43NjRsMS4xNiAzLjA5NiAxLjE2LTMuMDk2aC43NjRsLTEuNTA1IDMuODMyem00LjM5MiAwdi0zLjgzMmgyLjYyNXYuNTkyaC0xLjk1M3YuOTg4aDEuOTEzdi41OTJoLTEuOTEzdjEuMDdoMS45NTN2LjU5MmgtMi42MjV6IiBmaWxsPSIjNmJhNDNhIi8+PGRlZnM+PHBhdGggaWQ9IkIiIGQ9Ik01NS44ODUgMzIuMTQ0VjIwLjY1aDUuMzc3YzIuNSAwIDMuODYgMS42OSAzLjg2IDMuNzA1IDAgMi0xLjM4IDMuNjg4LTMuODYgMy42ODhoLTIuOTN2NC4xMDJ6bTYuNzQtNy44YzAtLjk2NS0uNzQtMS41NS0xLjcwNi0xLjU1aC0yLjU4NXYzLjA4NWgyLjU4NWMuOTY1IDAgMS43MDYtLjU4NiAxLjcwNi0xLjUzNHoiLz48L2RlZnM+PC9zdmc+;" vertex="1" parent="DSFdceFmaKd0g0XFRlf6-1">
                    <mxGeometry x="18.939999999999998" y="45" width="120" height="60" as="geometry"/>
                </mxCell>
                <mxCell id="15" value="" style="shape=image;verticalLabelPosition=bottom;labelBackgroundColor=#ffffff;verticalAlign=top;aspect=fixed;imageAspect=0;image=data:image/svg+xml,PHN2ZyB4bWxucz0iaHR0cDovL3d3dy53My5vcmcvMjAwMC9zdmciIHdpZHRoPSIxMjAiIGhlaWdodD0iNjAiIHZpZXdCb3g9IjAgMCAxMjAgNjAiPjxzdHlsZT4uRHtmaWxsOiMyZjQwNmF9LkV7ZmlsbDojMjM3OWJkfS5Ge2ZpbGw6IzAzYWZlZn08L3N0eWxlPjxwYXRoIGQ9Ik0zMS41NTQgMjMuNTE3djEyLjlMMjAuNTkgNDIuODU1bC0uMS4wOTJ2NC44NjZsLjEuMDkyIDE1LjQzNS04LjkxNlYyMS4wMWgtLjE0N2wtNC4zNTIgMi40MzN2LjEiIGNsYXNzPSJEIi8+PHBhdGggZD0iTTkuNTkgMzYuNTJMMjAuNjEgNDIuOXY1LjAwNEw1LjA0NiAzOC45NTJWMjEuMDQ4aC4xNTZsNC4zNDMgMi41MjUuMDQ2LjE0N3YxMi44NTUiIGNsYXNzPSJFIi8+PHBhdGggZD0iTTkuNTkgMjMuNjkyTDUgMjEuMDQ4bDE1LjU1NC04Ljk1MiAxNS40NzIgOC45MTYtNC40NzIgMi41MDctMTEuMDE4LTYuMjctMTAuOTYzIDYuNDI3IiBjbGFzcz0iRiIvPjxwYXRoIGQ9Ik0yMC4zOTggMzUuMDRsLS4xMi0uMTJ2LTQuODRsLjEyLS4wNjR2LS4xMmw0LjE1LTIuNDI0aC4xM3Y0Ljk5NWwtNC4zMDYgMi41NTMiIGNsYXNzPSJEIi8+PHBhdGggZD0iTTE2LjAxOCAzMi42NTR2LTUuMTg4aC4xMmw0LjIyNCAyLjQ2djUuMTI0bC00LjM4LTIuMzk3IiBjbGFzcz0iRSIvPjxwYXRoIGQ9Ik0yMC4zMjUgMjQuOTIybC00LjMwNiAyLjU1M0wyMC4zOTggMzBsNC4zMDYtMi41MTYtNC4zOC0yLjU5IiBjbGFzcz0iRiIvPjxwYXRoIGQ9Ik0xNS4wMzYgMzguMjFsLS4xMi0uMTJWMzMuMjRsLjEyLS4wNjR2LS4xMmw0LjE1LTIuNDI0aC4xM3Y0Ljk5NWwtNC4zMDYgMi41NTMiIGNsYXNzPSJEIi8+PHBhdGggZD0iTTEwLjY1NiAzNS44MTJ2LTUuMTg4aC4xMkwxNSAzMy4wODV2NS4xMjRsLTQuMzQzLTIuMzk3IiBjbGFzcz0iRSIvPjxwYXRoIGQ9Ik0xNC45NzIgMjguMDhsLTQuMzE2IDIuNTQzIDQuMzggMi41NTMgNC4zMDYtMi41MTYtNC4zOC0yLjU5IiBjbGFzcz0iRiIvPjxwYXRoIGQ9Ik0yNi4xNDYgMzguMzI4bC0uMTItLjEyVjMzLjM2bC4xMi0uMDY0di0uMTJsNC4xNS0yLjQyNGguMTN2NC45OTVMMjYuMTIgMzguMyIgY2xhc3M9IkQiLz48cGF0aCBkPSJNMjEuNzY2IDM1LjkzMnYtNS4xODhoLjEzOGw0LjIyNCAyLjQ2djUuMTI0bC00LjM4LTIuMzk3IiBjbGFzcz0iRSIvPjxwYXRoIGQ9Ik0yNi4wNzMgMjguMTY0bC00LjMwNiAyLjU1MyA0LjM4IDIuNTUzIDQuMzA2LTIuNTE2LTQuMzgtMi41OSIgY2xhc3M9IkYiLz48cGF0aCBkPSJNMjAuNzg0IDQxLjQ4N2wtLjEyLS4xMlYzNi41MmwuMTItLjA2NHYtLjEybDQuMTUtMi40MjRoLjEzdjQuOTk1bC00LjMwNiAyLjU1MyIgY2xhc3M9IkQiLz48cGF0aCBkPSJNMTYuMzk1IDM5LjF2LTUuMThoLjEybDQuMjI0IDIuNDZ2NS4xMjRMMTYuMzk1IDM5LjEiIGNsYXNzPSJFIi8+PHBhdGggZD0iTTIwLjcgMzEuMzZsLTQuMzE2IDIuNTUzIDQuMzkgMi41MTYgNC4zMDYtMi41MTYtNC4zOC0yLjU1MyIgY2xhc3M9IkYiLz48cGF0aCBkPSJNMjAuMzk4IDI4LjE2NGwtLjEyLS4xMnYtNC44M2wuMTItLjA2NHYtLjEybDQuMTUtMi40MjRoLjEzdjQuOTk1bC00LjI4IDIuNTYyIiBjbGFzcz0iRCIvPjxwYXRoIGQ9Ik0xNi4wMTggMjUuNzg1di01LjE4OGguMTJsNC4yMjQgMi40NnY1LjEwNWwtNC4zOC0yLjM5NyIgY2xhc3M9IkUiLz48cGF0aCBkPSJNMjAuMzI1IDE4LjA2M2wtNC4zMDYgMi41NTMgNC4zOCAyLjU1MyA0LjMwNi0yLjUxNi00LjM4LTIuNTkiIGNsYXNzPSJGIi8+PHBhdGggZD0iTTE1LjAzNiAzMS4zM2wtLjEyLS4xMnYtNC44ODVsLjEyLS4wNjR2LS4xMmw0LjE1LTIuNDI0aC4xM3Y0Ljk5NWwtNC4zMDYgMi41NTMiIGNsYXNzPSJEIi8+PHBhdGggZD0iTTEwLjY1NiAyOC45NDR2LTUuMTg4aC4xMkwxNSAyNi4yMTd2NS4xMjRsLTQuMzQzLTIuMzk3IiBjbGFzcz0iRSIvPjxwYXRoIGQ9Ik0xNC45NzIgMjEuMjEzbC00LjMxNiAyLjU0MyA0LjM4IDIuNTcgNC4zMDYtMi41MTYtNC4zOC0yLjU5IiBjbGFzcz0iRiIvPjxwYXRoIGQ9Ik0yNi4xNDYgMzEuNDVsLS4xMi0uMTJ2LTQuODRsLjEyLS4wNjR2LS4xMmw0LjE1LTIuNDI0aC4xM3Y0Ljk5NWwtNC4zMDYgMi41NTMiIGNsYXNzPSJEIi8+PHBhdGggZD0iTTIxLjc2NiAyOS4wODJ2LTUuMjA2aC4xMzhsNC4yMDUgMi40NTJ2NS4xMjRsLTQuMzQzLTIuMzciIGNsYXNzPSJFIi8+PHBhdGggZD0iTTI2LjA3MyAyMS4zMzJsLTQuMzA2IDIuNTUzIDQuMzggMi41NTMgNC4zMDYtMi41MTYtNC4zOC0yLjU5IiBjbGFzcz0iRiIvPjxwYXRoIGQ9Ik0yMC43ODQgMzQuNTlsLS4xMi0uMTJ2LTQuODJsLjEyLS4wNjR2LS4xMmw0LjE1LTIuNDI0aC4xM3Y0Ljk5NWwtNC4yOCAyLjU1MyIgY2xhc3M9IkQiLz48cGF0aCBkPSJNMTYuMzk1IDMyLjIyMnYtNS4xODhoLjEybDQuMjI0IDIuNDZ2NS4wOTZsLTQuMzQzLTIuMzciIGNsYXNzPSJFIi8+PHBhdGggZD0iTTIwLjcgMjQuNDlsLTQuMzE2IDIuNTQzIDQuMzggMi41NTMgNC4zMDYtMi41MTYtNC4zNy0yLjU4IiBjbGFzcz0iRiIvPjxwYXRoIGQ9Ik00My43NzYgMjMuMTdxLTIuODkyIDAtMi44OTIgMi4xNzZjLS4wODYuNjM0LjE2NSAxLjI2Ny42NiAxLjY3YTguODcgOC44NyAwIDAgMCAyLjcuOTE4IDYuODYgNi44NiAwIDAgMSAyLjg4MyAxLjE0OCAyLjk4IDIuOTggMCAwIDEgLjg0NSAyLjM3OHEwIDQuMTA0LTQuMjYgNC4xMDRhMjMuOTYgMjMuOTYgMCAwIDEtMy41MjYtLjMzbC0uNjk4LS4wOTIuMTU2LTEuMjNjMS4zMjMuMTk3IDIuNjU3LjMxNCAzLjk5NC4zNXEyLjg1NiAwIDIuODU2LTIuNjhhMS44NCAxLjg0IDAgMCAwLS42MjQtMS41OCA2LjE0IDYuMTQgMCAwIDAtMi4zNC0uOGMtMS4xNDYtLjE3My0yLjI0LS41OTYtMy4yMDUtMS4yNC0uNzAyLS42NTUtMS4wNi0xLjU5Ny0uOTczLTIuNTUzcTAtMy42IDQuMjk3LTMuNmMxLjEzMi4wMTQgMi4yNi4xIDMuMzguMjg1bC42NTIuMS0uMDY0IDEuMjg1YTM2LjI1IDM2LjI1IDAgMCAwLTMuODM4LS4zMjF6TTU2Ljg1IDM0LjIxNWwuNTYtLjA1NXYxLjE0YTI3Ljc0IDI3Ljc0IDAgMCAxLTMuNzY1LjMxMiAzLjM5IDMuMzkgMCAwIDEtMi45NDctMS4yMDNjLS42NjYtMS4xMy0uOTctMi40MzgtLjg3Mi0zLjc0NnEwLTUuMDY4IDQuMDMtNS4wNjhhMy42NyAzLjY3IDAgMCAxIDIuOTM4IDEuMDc0IDUuMDggNS4wOCAwIDAgMSAuOTY0IDMuNDI1bC0uMDQ2IDEuMDkzSDUxLjMzYTMuOTcgMy45NyAwIDAgMCAuNTc4IDIuMzcgMi4zNyAyLjM3IDAgMCAwIDIuMDExLjc3MXExLjQ0MiAwIDIuOTMtLjF6TTU2LjMyNyAzMGMuMDc4LS44NzUtLjEyLTEuNzUtLjU3LTIuNTA3LS40Ni0uNTIyLTEuMTQyLS43OTUtMS44MzYtLjczNWEyLjM3IDIuMzcgMCAwIDAtMS45MjguNzcxIDMuOTEgMy45MSAwIDAgMC0uNzA3IDIuNDd6bTYuODk2IDUuNmEzLjIzIDMuMjMgMCAwIDEtMi43NTUtMS4xMzkgNi43IDYuNyAwIDAgMS0uODM2LTMuODU2Yy0uMTI3LTEuMzcuMjI3LTIuNzQgMS0zLjg3NXExLTEuMTU3IDMuNTQ0LTEuMTU3bDMuMjIzLjE5M3YxMy45MmgtMS40MjN2LTQuNzJjLS44Ni40MTYtMS44LjYzMy0yLjc1NS42MzR6bS45MTgtOC43NzhjLS45Mi0uMTE1LTEuODQuMjI4LTIuNDYuOTE4YTUuMDQgNS4wNCAwIDAgMC0uNjQzIDIuODgzIDUuNjQgNS42NCAwIDAgMCAuNTMzIDIuODM3IDEuOTMgMS45MyAwIDAgMCAxLjc4MS44NTRjLjc2LS4wMDEgMS41MTQtLjE0NSAyLjIyMi0uNDIybC4zNS0uMTM4VjI2Ljk0cS0xLjE2Ni0uMS0xLjc4LS4xem0xMi4wNDctMS4wNTVoMS40NXY5LjY0aC0xLjQ1di0uNjdhNS41MSA1LjUxIDAgMCAxLTIuODY1Ljg2M3EtMS45NjUgMC0yLjYxNy0xLjAyYy0uNTMtMS4xODYtLjc1LTIuNDg4LS42NDMtMy43ODN2LTUuMDMyaDEuNDIzdjUuMDEzYTcuMDkgNy4wOSAwIDAgMCAuMzY3IDIuODE5cS4zNjcuNzE2IDEuNjYyLjcxNmMuNDM4LS4wMDIuODc0LS4wNjMgMS4yOTUtLjE4NGE2LjAxIDYuMDEgMCAwIDAgMS0uMzU4bC4zNS0uMTc0em0xMC43OCA4LjQ0OGwuNTYtLjA1NXYxLjE0YTI3Ljc0IDI3Ljc0IDAgMCAxLTMuNzY1LjMxMiAzLjM5IDMuMzkgMCAwIDEtMi45NDctMS4yMDNjLS42NjYtMS4xMy0uOTctMi40MzgtLjg3Mi0zLjc0NnEwLTUuMDY4IDQuMDMtNS4wNjhjMS4wODQtLjA4NSAyLjE1LjMxNSAyLjkgMS4wOTNhNS4wOCA1LjA4IDAgMCAxIC45NjQgMy40MjVsLS4wNzMgMS4xMDJIODEuNDVhMy45NyAzLjk3IDAgMCAwIC41NzggMi4zNyAyLjM3IDIuMzcgMCAwIDAgMi4wMTEuNzcxcTEuNDQyLS4wMjggMi45My0uMTM4ek04Ni40NDUgMzBjLjA3OC0uODc1LS4xMi0xLjc1LS41Ny0yLjUwNy0uNDYtLjUyMi0xLjE0Mi0uNzk1LTEuODM2LS43MzVhMi4zNyAyLjM3IDAgMCAwLTEuOTI4Ljc3MSAzLjg5IDMuODkgMCAwIDAtLjY4IDIuNDd6bTMuODIgNS40MDhWMjEuNTYyaDEuNDIzdjEzLjg0NnptNC4zMzMtMTEuODM1VjIxLjloMS40NDJ2MS42NjJ6bTAgMTEuODE3di05LjYyM2gxLjQ0MnY5LjY0em0zLjY0NS04LjMyOHYtMS4yOTVoNy4xNTN2MS4yOTVsLTUuNCA3LjA2aDUuNHYxLjI5NWgtNy4xNTN2LTEuMzA0bDUuMzgtNy4wNTJ6bTE1Ljg1NyA3LjE1M2wuNTYtLjA1NXYxLjE0YTI3Ljc0IDI3Ljc0IDAgMCAxLTMuNzY1LjMxMiAzLjM5IDMuMzkgMCAwIDEtMi45NDctMS4yMDNjLS42NjYtMS4xMy0uOTctMi40MzgtLjg3Mi0zLjc0NnEwLTUuMDY4IDQuMDMtNS4wNjhjMS4wODQtLjA4NSAyLjE1LjMxNSAyLjkgMS4wOTNhNS4wOCA1LjA4IDAgMCAxIC45NjQgMy40MjVsLS4wNzMgMS4xMDJoLTYuMzI2YTMuOTcgMy45NyAwIDAgMCAuNTc4IDIuMzcgMi4zNyAyLjM3IDAgMCAwIDIuMDExLjc3MXExLjQ0Mi0uMDI4IDIuOTMtLjEzOHpNMTEzLjU3NyAzMGMuMDc4LS44NzUtLjEyLTEuNzUtLjU3LTIuNTA3LS40Ni0uNTIyLTEuMTQyLS43OTUtMS44MzYtLjczNWEyLjM3IDIuMzcgMCAwIDAtMS45MjguNzcxYy0uNDkyLjcyNS0uNzI1IDEuNTk2LS42NiAyLjQ3eiIgY2xhc3M9IkQiLz48L3N2Zz4=;" vertex="1" parent="DSFdceFmaKd0g0XFRlf6-1">
                    <mxGeometry x="120.32" y="156.5" width="120" height="60" as="geometry"/>
                </mxCell>
                <mxCell id="18" value="" style="shape=image;verticalLabelPosition=bottom;labelBackgroundColor=#ffffff;verticalAlign=top;aspect=fixed;imageAspect=0;image=data:image/svg+xml,PHN2ZyB4bWxucz0iaHR0cDovL3d3dy53My5vcmcvMjAwMC9zdmciIHhtbG5zOnhsaW5rPSJodHRwOi8vd3d3LnczLm9yZy8xOTk5L3hsaW5rIiB2ZXJzaW9uPSIxLjEiIHg9IjAiIHk9IjAiIHdpZHRoPSIxNTAwIiBoZWlnaHQ9IjE1MDAiIHZpZXdCb3g9IjAsIDAsIDE1MDAsIDE1MDAiPgogIDxnIGlkPSJweXRlc3RfbG9nbyI+CiAgICA8ZyBpZD0iZ3JhcGhpY3MiPgogICAgICA8cGF0aCBkPSJNNTIxLjU3NiwyMTMuNzUgTDk1Mi42MTYsMjEzLjc1IEM5NjQuMjgzLDIxMy43NSA5NzMuNzQxLDIyMy4yMDggOTczLjc0MSwyMzQuODc1IEw5NzMuNzQxLDIzNC44NzUgQzk3My43NDEsMjQ2LjU0MiA5NjQuMjgzLDI1NiA5NTIuNjE2LDI1NiBMNTIxLjU3NiwyNTYgQzUwOS45MDksMjU2IDUwMC40NTEsMjQ2LjU0MiA1MDAuNDUxLDIzNC44NzUgTDUwMC40NTEsMjM0Ljg3NSBDNTAwLjQ1MSwyMjMuMjA4IDUwOS45MDksMjEzLjc1IDUyMS41NzYsMjEzLjc1IHoiIGZpbGw9IiM2OTY5NjkiIGlkPSJob3Jpem9udGFsX2JhciIvPgogICAgICA8ZyBpZD0idG9wX2JhcnMiPgogICAgICAgIDxwYXRoIGQ9Ik01MjUuMzMzLDE3MSBMNjEyLDE3MSBMNjEyLDE5MSBMNTI1LjMzMywxOTEgTDUyNS4zMzMsMTcxIHoiIGZpbGw9IiMwMDlGRTMiLz4KICAgICAgICA8cGF0aCBkPSJNNjM4LjY2NywxNzEgTDcyNS4zMzMsMTcxIEw3MjUuMzMzLDE5MSBMNjM4LjY2NywxOTEgTDYzOC42NjcsMTcxIHoiIGZpbGw9IiNDN0QzMDIiLz4KICAgICAgICA8cGF0aCBkPSJNNzUwLjUsMTcxIEw4MzcuMTY3LDE3MSBMODM3LjE2NywxOTEgTDc1MC41LDE5MSBMNzUwLjUsMTcxIHoiIGZpbGw9IiNGMDdFMTYiLz4KICAgICAgICA8cGF0aCBkPSJNODYxLjg2MSwxNzEgTDk0OC41MjgsMTcxIEw5NDguNTI4LDE5MSBMODYxLjg2MSwxOTEgTDg2MS44NjEsMTcxIHoiIGZpbGw9IiNERjI4MTUiLz4KICAgICAgPC9nPgogICAgICA8ZyBpZD0iYm90dG9tX2JhcnMiPgogICAgICAgIDxwYXRoIGQ9Ik04NjEuODYxLDI3OCBMOTQ4LjUyOCwyNzggTDk0OC41MjgsNDI0LjUgTDg2MS44NjEsNDI0LjUgTDg2MS44NjEsMjc4IHoiIGZpbGw9IiNERjI4MTUiLz4KICAgICAgICA8cGF0aCBkPSJNNzUwLjUsMjc4IEw4MzcuMzI4LDI3OCBMODM3LjMyOCw1MTYgTDc1MC41LDUxNiBMNzUwLjUsMjc4IHoiIGZpbGw9IiNGMDdFMTYiLz4KICAgICAgICA8cGF0aCBkPSJNNjM4LjY2NywyNzggTDcyNS4zMjgsMjc4IEw3MjUuMzI4LDYzNC41IEw2MzguNjY3LDYzNC41IEw2MzguNjY3LDI3OCB6IiBmaWxsPSIjQzdEMzAyIi8+CiAgICAgICAgPHBhdGggZD0iTTUyNS4zMzMsMjc4IEw2MTIsMjc4IEw2MTIsNzEyLjUgTDUyNS4zMzMsNzEyLjUgTDUyNS4zMzMsMjc4IHoiIGZpbGw9IiMwMDlGRTMiLz4KICAgICAgPC9nPgogICAgPC9nPgogICAgPHRleHQgdHJhbnNmb3JtPSJtYXRyaXgoMSwgMCwgMCwgMSwgNzE2Ljc1NCwgMTA5OSkiIGlkPSJ0ZXh0Ij4KICAgICAgPHRzcGFuIHg9Ii02MDkuMzc2IiB5PSI3MC41IiBmb250LWZhbWlseT0iRHJvaWRTYW5zIiBmb250LXNpemU9IjQ0NSIgZmlsbD0iIzY5Njk2OSI+cHk8L3RzcGFuPgogICAgICA8dHNwYW4geD0iLTEzMS4xMzIiIHk9IjcwLjUiIGZvbnQtZmFtaWx5PSJEcm9pZFNhbnMiIGZvbnQtc2l6ZT0iNDQ1IiBmaWxsPSIjMDA5RkUzIj50ZXN0PC90c3Bhbj4KICAgIDwvdGV4dD4KICA8L2c+Cjwvc3ZnPg==;" vertex="1" parent="DSFdceFmaKd0g0XFRlf6-1">
                    <mxGeometry x="239.13" y="40" width="52.5" height="52.5" as="geometry"/>
                </mxCell>
                <mxCell id="19" value="Express" style="text;html=1;align=center;verticalAlign=middle;resizable=0;points=[];autosize=1;strokeColor=none;fillColor=none;fontFamily=Georgia;fontSize=24;fontColor=#666666;" vertex="1" parent="DSFdceFmaKd0g0XFRlf6-1">
                    <mxGeometry x="314" y="171.5" width="100" height="30" as="geometry"/>
                </mxCell>
                <mxCell id="DSFdceFmaKd0g0XFRlf6-120" style="edgeStyle=orthogonalEdgeStyle;rounded=0;orthogonalLoop=1;jettySize=auto;html=1;exitX=0.5;exitY=1;exitDx=0;exitDy=0;dashed=1;fontSize=10;startArrow=none;startFill=0;endArrow=open;endFill=0;fontFamily=Lucida Console;" parent="1" source="DSFdceFmaKd0g0XFRlf6-22" target="DSFdceFmaKd0g0XFRlf6-107" edge="1">
                    <mxGeometry relative="1" as="geometry"/>
                </mxCell>
                <mxCell id="DSFdceFmaKd0g0XFRlf6-122" value="«use»" style="edgeLabel;html=1;align=center;verticalAlign=middle;resizable=0;points=[];fontSize=10;fontFamily=Lucida Console;" parent="DSFdceFmaKd0g0XFRlf6-120" vertex="1" connectable="0">
                    <mxGeometry x="-0.2514" y="-2" relative="1" as="geometry">
                        <mxPoint x="2" y="2" as="offset"/>
                    </mxGeometry>
                </mxCell>
                <mxCell id="DSFdceFmaKd0g0XFRlf6-143" style="edgeStyle=orthogonalEdgeStyle;rounded=0;orthogonalLoop=1;jettySize=auto;html=1;exitX=0.5;exitY=0;exitDx=0;exitDy=0;entryX=0.5;entryY=1;entryDx=0;entryDy=0;fontFamily=Lucida Console;fontSize=10;startArrow=none;startFill=0;endArrow=open;endFill=0;" parent="1" source="DSFdceFmaKd0g0XFRlf6-22" target="DSFdceFmaKd0g0XFRlf6-56" edge="1">
                    <mxGeometry relative="1" as="geometry">
                        <Array as="points">
                            <mxPoint x="751" y="510"/>
                            <mxPoint x="500" y="510"/>
                        </Array>
                    </mxGeometry>
                </mxCell>
                <UserObject label="Frontend" id="DSFdceFmaKd0g0XFRlf6-22">
                    <mxCell style="swimlane;fontFamily=Lucida Console;" parent="1" vertex="1">
                        <mxGeometry x="560" y="560" width="382.15" height="237.5" as="geometry"/>
                    </mxCell>
                </UserObject>
                <mxCell id="DSFdceFmaKd0g0XFRlf6-124" style="edgeStyle=orthogonalEdgeStyle;rounded=0;orthogonalLoop=1;jettySize=auto;html=1;dashed=1;fontSize=10;startArrow=none;startFill=0;endArrow=open;endFill=0;fontFamily=Lucida Console;entryX=1;entryY=0.5;entryDx=0;entryDy=0;" parent="DSFdceFmaKd0g0XFRlf6-22" target="7" edge="1">
                    <mxGeometry relative="1" as="geometry">
                        <mxPoint x="270" y="66" as="sourcePoint"/>
                        <mxPoint x="210" y="67" as="targetPoint"/>
                    </mxGeometry>
                </mxCell>
                <mxCell id="DSFdceFmaKd0g0XFRlf6-136" style="edgeStyle=orthogonalEdgeStyle;rounded=0;orthogonalLoop=1;jettySize=auto;html=1;exitX=0.5;exitY=0;exitDx=0;exitDy=0;dashed=1;fontSize=10;startArrow=none;startFill=0;endArrow=open;endFill=0;fontFamily=Lucida Console;entryX=0.5;entryY=1;entryDx=0;entryDy=0;" parent="DSFdceFmaKd0g0XFRlf6-22" source="16" target="7" edge="1">
                    <mxGeometry relative="1" as="geometry">
                        <mxPoint x="175.25" y="98.5" as="targetPoint"/>
                    </mxGeometry>
                </mxCell>
                <mxCell id="DSFdceFmaKd0g0XFRlf6-54" value="&lt;div style=&quot;font-size: 10px;&quot;&gt;Integration Testing&lt;/div&gt;" style="text;html=1;align=center;verticalAlign=middle;resizable=0;points=[];autosize=1;strokeColor=none;fillColor=none;fontFamily=Lucida Console;fontSize=10;" parent="DSFdceFmaKd0g0XFRlf6-22" vertex="1">
                    <mxGeometry x="242.14999999999998" y="190" width="130" height="20" as="geometry"/>
                </mxCell>
                <mxCell id="DSFdceFmaKd0g0XFRlf6-76" value="Charts" style="text;html=1;align=center;verticalAlign=middle;resizable=0;points=[];autosize=1;strokeColor=none;fillColor=none;fontFamily=Lucida Console;" parent="DSFdceFmaKd0g0XFRlf6-22" vertex="1">
                    <mxGeometry x="156.63" y="175" width="60" height="20" as="geometry"/>
                </mxCell>
                <mxCell id="DSFdceFmaKd0g0XFRlf6-79" value="API requests" style="text;html=1;align=center;verticalAlign=middle;resizable=0;points=[];autosize=1;strokeColor=none;fillColor=none;fontFamily=Lucida Console;fontSize=10;" parent="DSFdceFmaKd0g0XFRlf6-22" vertex="1">
                    <mxGeometry x="34.22999999999999" y="175" width="90" height="20" as="geometry"/>
                </mxCell>
                <mxCell id="DSFdceFmaKd0g0XFRlf6-75" value="Component Library" style="text;html=1;align=center;verticalAlign=middle;resizable=0;points=[];autosize=1;strokeColor=none;fillColor=none;fontFamily=Lucida Console;fontSize=10;" parent="DSFdceFmaKd0g0XFRlf6-22" vertex="1">
                    <mxGeometry x="259.06000000000006" y="92" width="120" height="20" as="geometry"/>
                </mxCell>
                <mxCell id="DSFdceFmaKd0g0XFRlf6-130" value="Underlying&lt;br&gt;technology" style="text;html=1;align=center;verticalAlign=middle;resizable=0;points=[];autosize=1;strokeColor=none;fillColor=none;fontSize=10;fontFamily=Lucida Console;" parent="DSFdceFmaKd0g0XFRlf6-22" vertex="1">
                    <mxGeometry x="16.730000000000008" y="87" width="80" height="30" as="geometry"/>
                </mxCell>
                <mxCell id="5" value="" style="shape=image;verticalLabelPosition=bottom;labelBackgroundColor=#ffffff;verticalAlign=top;aspect=fixed;imageAspect=0;image=data:image/svg+xml,PHN2ZyB4bWxucz0iaHR0cDovL3d3dy53My5vcmcvMjAwMC9zdmciIHhtbG5zOmNjPSJodHRwOi8vY3JlYXRpdmVjb21tb25zLm9yZy9ucyMiIHhtbG5zOmRjPSJodHRwOi8vcHVybC5vcmcvZGMvZWxlbWVudHMvMS4xLyIgeG1sbnM6cmRmPSJodHRwOi8vd3d3LnczLm9yZy8xOTk5LzAyLzIyLXJkZi1zeW50YXgtbnMjIiB3aWR0aD0iNTEyIiBoZWlnaHQ9IjUxMiIgZmlsbD0ibm9uZSIgdmVyc2lvbj0iMS4xIiB2aWV3Qm94PSIwIDAgNTEyIDUxMiI+Cjx0aXRsZT5UeXBlU2NyaXB0IGxvZ288L3RpdGxlPgogPHJlY3Qgd2lkdGg9IjUxMiIgaGVpZ2h0PSI1MTIiIHJ4PSI1MCIgZmlsbD0iIzMxNzhjNiIvPgogPHBhdGggZD0ibTMxNyA0MDd2NTBjOC4xIDQuMiAxOCA3LjMgMjkgOS40czIzIDMuMSAzNSAzLjFjMTIgMCAyMy0xLjEgMzQtMy40IDExLTIuMyAyMC02LjEgMjgtMTEgOC4xLTUuMyAxNS0xMiAxOS0yMXM3LjEtMTkgNy4xLTMyYzAtOS4xLTEuNC0xNy00LjEtMjRzLTYuNi0xMy0xMi0xOGMtNS4xLTUuMy0xMS0xMC0xOC0xNHMtMTUtOC4yLTI0LTEyYy02LjYtMi43LTEyLTUuMy0xOC03LjktNS4yLTIuNi05LjctNS4yLTEzLTcuOC0zLjctMi43LTYuNS01LjUtOC41LTguNC0yLTMtMy02LjMtMy0xMCAwLTMuNCAwLjg5LTYuNSAyLjctOS4zczQuMy01LjEgNy41LTcuMWMzLjItMiA3LjItMy41IDEyLTQuNiA0LjctMS4xIDkuOS0xLjYgMTYtMS42IDQuMiAwIDguNiAwLjMxIDEzIDAuOTQgNC42IDAuNjMgOS4zIDEuNiAxNCAyLjkgNC43IDEuMyA5LjMgMi45IDE0IDQuOSA0LjQgMiA4LjUgNC4zIDEyIDYuOXYtNDdjLTcuNi0yLjktMTYtNS4xLTI1LTYuNXMtMTktMi4xLTMxLTIuMWMtMTIgMC0yMyAxLjMtMzQgMy44cy0yMCA2LjUtMjggMTJjLTguMSA1LjQtMTQgMTItMTkgMjEtNC43IDguNC03IDE4LTcgMzAgMCAxNSA0LjMgMjggMTMgMzggOC42IDExIDIyIDE5IDM5IDI3IDYuOSAyLjggMTMgNS42IDE5IDguM3MxMSA1LjUgMTUgOC40YzQuMyAyLjkgNy43IDYuMSAxMCA5LjUgMi41IDMuNCAzLjggNy40IDMuOCAxMiAwIDMuMi0wLjc4IDYuMi0yLjMgOXMtMy45IDUuMi03LjEgNy4yLTcuMSAzLjYtMTIgNC44Yy00LjcgMS4xLTEwIDEuNy0xNyAxLjctMTEgMC0yMi0xLjktMzItNS43LTExLTMuOC0yMS05LjUtMzAtMTd6bS04NC0xMjNoNjR2LTQxaC0xNzl2NDFoNjR2MTgzaDUxeiIgY2xpcC1ydWxlPSJldmVub2RkIiBmaWxsPSIjZmZmIiBmaWxsLXJ1bGU9ImV2ZW5vZGQiIHN0eWxlPSJmaWxsOiNmZmYiLz4KPC9zdmc+;" vertex="1" parent="DSFdceFmaKd0g0XFRlf6-22">
                    <mxGeometry x="34.23" y="42" width="45" height="45" as="geometry"/>
                </mxCell>
                <mxCell id="7" value="" style="shape=image;verticalLabelPosition=bottom;labelBackgroundColor=#ffffff;verticalAlign=top;aspect=fixed;imageAspect=0;image=data:image/svg+xml,PHN2ZyB4bWxucz0iaHR0cDovL3d3dy53My5vcmcvMjAwMC9zdmciIHdpZHRoPSIxMjAiIGhlaWdodD0iNjAiIGZpbGwtcnVsZT0iZXZlbm9kZCIgdmlld0JveD0iMCAwIDEyMCA2MCI+PGcgdHJhbnNmb3JtPSJtYXRyaXgoLjA2OTI4IDAgMCAuMDY5MjggNy4zNjczOTggMTMuNTA1MzMxKSIgZmlsbD0ibm9uZSI+PGNpcmNsZSByPSI1MC4xNjciIGN5PSIyMzcuNjI4IiBjeD0iMjY5LjUyOSIgZmlsbD0iIzAwZDhmZiIvPjxnIHN0cm9rZT0iIzAwZDhmZiIgc3Ryb2tlLXdpZHRoPSIyNCI+PHBhdGggZD0iTTI2OS41MyAxMzUuNjI4YzY3LjM1NiAwIDEyOS45MjggOS42NjUgMTc3LjEwNyAyNS45MDcgNTYuODQ0IDE5LjU3IDkxLjc5NCA0OS4yMzMgOTEuNzk0IDc2LjA5MyAwIDI3Ljk5LTM3LjA0IDU5LjUwMy05OC4wODMgNzkuNzI4LTQ2LjE1IDE1LjI5LTEwNi44OCAyMy4yNzItMTcwLjgxOCAyMy4yNzItNjUuNTU0IDAtMTI3LjYzLTcuNDkyLTE3NC4zLTIzLjQ0LTU5LjA0Ni0yMC4xODItOTQuNjEtNTIuMTAzLTk0LjYxLTc5LjU2IDAtMjYuNjQyIDMzLjM3LTU2LjA3NiA4OS40MTUtNzUuNjE2IDQ3LjM1NS0xNi41MSAxMTEuNDcyLTI2LjM4NCAxNzkuNDg2LTI2LjM4NHoiLz48cGF0aCBkPSJNMTgwLjczNiAxODYuOTIyYzMzLjY1LTU4LjM0OCA3My4yOC0xMDcuNzI0IDExMC45Mi0xNDAuNDhDMzM3LjAwNiA2Ljk3NiAzODAuMTYzLTguNDggNDAzLjQzIDQuOTM3YzI0LjI0OCAxMy45ODMgMzMuMDQyIDYxLjgxNCAyMC4wNjcgMTI0Ljc5Ni05LjggNDcuNjE4LTMzLjIzNCAxMDQuMjEyLTY1LjE3NiAxNTkuNi0zMi43NSA1Ni43ODgtNzAuMjUgMTA2LjgyLTEwNy4zNzcgMTM5LjI3Mi00Ni45OCA0MS4wNjgtOTIuNCA1NS45My0xMTYuMTg1IDQyLjIxMy0yMy4wOC0xMy4zLTMxLjkwNi01Ni45Mi0yMC44MzQtMTE1LjIzMyA5LjM1NS00OS4yNyAzMi44MzItMTA5Ljc0NSA2Ni44LTE2OC42NjR6Ii8+PHBhdGggZD0iTTE4MC44MiAyODkuNDgyQzE0Ny4wNzUgMjMxLjIgMTI0LjEgMTcyLjE5NSAxMTQuNTEgMTIzLjIyN2MtMTEuNTQ0LTU5LTMuMzgyLTEwNC4xMSAxOS44NjQtMTE3LjU2NiAyNC4yMjQtMTQuMDI0IDcwLjA1NSAyLjI0NCAxMTguMTQgNDQuOTQgMzYuMzU2IDMyLjI4IDczLjY4OCA4MC44MzcgMTA1LjcyMyAxMzYuMTczIDMyLjg0NCA1Ni43MzMgNTcuNDYgMTE0LjIxIDY3LjAzNiAxNjIuNTgyIDEyLjExNyA2MS4yMTMgMi4zMSAxMDcuOTg0LTIxLjQ1MyAxMjEuNzQtMjMuMDU3IDEzLjM0OC02NS4yNS0uNzg0LTExMC4yNC0zOS41LTM4LjAxMy0zMi43MS03OC42ODItODMuMjUzLTExMi43Ni0xNDIuMTE1eiIvPjwvZz48L2c+PHBhdGggZD0iTTY0LjYyIDM4Ljg0OGwtNC4yNi02LjQzNmMyLjE1My0uMTkgNC4wOTMtMS43NSA0LjA5My00LjYgMC0yLjktMi4wNTgtNC43NTYtNC45NDUtNC43NTZoLTYuMzR2MTUuNzhoMS45NjR2LTYuMjdoMy4xNDdsNC4wMjIgNi4yN3ptLTUuMzQ3LTcuOTk3aC00LjE0di02LjAzM2g0LjE0YzEuODcgMCAzLjE0NyAxLjIzIDMuMTQ3IDMuMDA1cy0xLjI3OCAzLjAzLTMuMTQ3IDMuMDN6bTEyLjY1OCA4LjI4YzEuODcgMCAzLjQwNy0uNjE1IDQuNTQzLTEuNzVsLS44NTItMS4xNmMtLjkuOTIzLTIuMjI0IDEuNDQzLTMuNTI1IDEuNDQzLTIuNDYgMC0zLjk3NS0xLjc5OC00LjExNy0zLjk1aDkuMjV2LS40NWMwLTMuNDMtMi4wMzUtNi4xMjgtNS40OS02LjEyOC0zLjI2NSAwLTUuNjMgMi42NzQtNS42MyA1Ljk4NiAwIDMuNTczIDIuNDM3IDYgNS44MiA2em0zLjU1LTYuNzJoLTcuNWMuMDk1LTEuNzUgMS4zLTMuODEgMy43MzgtMy44MSAyLjYwMyAwIDMuNzM4IDIuMTA2IDMuNzYyIDMuODF6bTEzLjUzNCA2LjQzNnYtNy44NTVjMC0yLjc2OC0yLjAxLTMuODU3LTQuNDI0LTMuODU3LTEuODcgMC0zLjMzNi42MTUtNC41NjYgMS44OTNsLjgyOCAxLjIzYzEuMDE3LTEuMDg4IDIuMTMtMS41ODUgMy41MDItMS41ODUgMS42NTYgMCAyLjg4Ny44NzUgMi44ODcgMi40MTN2Mi4wNThjLS45MjMtMS4wNjUtMi4yMjQtMS41NjItMy43ODYtMS41NjItMS45NCAwLTQgMS4yMDctNCAzLjc2MiAwIDIuNDg0IDIuMDU4IDMuNzg2IDQgMy43ODYgMS41MzggMCAyLjg0LS41NDQgMy43ODYtMS41ODV2MS4zem0tNC45Mi0uOTk0Yy0xLjY1NiAwLTIuODE2LTEuMDQtMi44MTYtMi40ODQgMC0xLjQ2NyAxLjE2LTIuNTA4IDIuODE2LTIuNTA4IDEuMjU0IDAgMi40Ni40NzMgMy4xNDcgMS40MnYyLjE1M2MtLjY4Ni45NDYtMS44OTMgMS40Mi0zLjE0NyAxLjQyem0xMy41IDEuMjc4YzIuMDgyIDAgMy4zMTItLjg1MiA0LjE4OC0xLjk4N2wtMS4xODMtMS4wODhjLS43NTcgMS4wMTctMS43MjcgMS40OS0yLjkgMS40OS0yLjQzNyAwLTMuOTUtMS44OTMtMy45NS00LjQyNHMxLjUxNC00LjQgMy45NS00LjRjMS4xODMgMCAyLjE1My40NSAyLjkgMS40OWwxLjE4My0xLjA4OGMtLjg3NS0xLjEzNi0yLjEwNi0xLjk4Ny00LjE4OC0xLjk4Ny0zLjQwNyAwLTUuNzAyIDIuNjAzLTUuNzAyIDUuOTg2IDAgMy40MDcgMi4yOTUgNiA1LjcwMiA2em05LjU2IDBjMS4wNCAwIDEuNjgtLjMwOCAyLjEzLS43MzNsLS41Mi0xLjMyNWMtLjIzNy4yNi0uNy40NzMtMS4yMDcuNDczLS43OCAwLTEuMTYtLjYxNS0xLjE2LTEuNDY3di03LjA5OGgyLjMyVjI3LjQyaC0yLjMydi0zLjEyM2gtMS43NzV2My4xMjNoLTEuODkzdjEuNTYyaDEuODkzdjcuNDc3YzAgMS43MDQuODUyIDIuNjc0IDIuNTMyIDIuNjc0eiIgZmlsbD0iIzAwZDhmZiIvPjwvc3ZnPg==;" vertex="1" parent="DSFdceFmaKd0g0XFRlf6-22">
                    <mxGeometry x="131.63" y="38.5" width="110" height="55" as="geometry"/>
                </mxCell>
                <mxCell id="8" value="" style="shape=image;verticalLabelPosition=bottom;labelBackgroundColor=#ffffff;verticalAlign=top;aspect=fixed;imageAspect=0;image=data:image/svg+xml,PHN2ZyB4bWxucz0iaHR0cDovL3d3dy53My5vcmcvMjAwMC9zdmciIHdpZHRoPSIzMCIgaGVpZ2h0PSIzMiIgdmlld0JveD0iMCAwIDM2IDMyIiBmaWxsPSJub25lIiBjbGFzcz0iY3NzLTExNzBuNjEiPjxwYXRoIGZpbGwtcnVsZT0iZXZlbm9kZCIgY2xpcC1ydWxlPSJldmVub2RkIiBkPSJNMzAuMzQzIDIxLjk3NmExIDEgMCAwMC41MDItLjg2NGwuMDE4LTUuNzg3YTEgMSAwIDAxLjUwMi0uODY0bDMuMTM3LTEuODAyYTEgMSAwIDAxMS40OTguODY3djEwLjUyMWExIDEgMCAwMS0uNTAyLjg2N2wtMTEuODM5IDYuOGExIDEgMCAwMS0uOTk0LjAwMWwtOS4yOTEtNS4zMTRhMSAxIDAgMDEtLjUwNC0uODY4di01LjMwNWMwLS4wMDYuMDA3LS4wMS4wMTMtLjAwNy4wMDUuMDAzLjAxMiAwIC4wMTItLjAwN3YtLjAwNmMwLS4wMDQuMDAyLS4wMDguMDA2LS4wMWw3LjY1Mi00LjM5NmMuMDA3LS4wMDQuMDA0LS4wMTUtLjAwNC0uMDE1YS4wMDguMDA4IDAgMDEtLjAwOC0uMDA4bC4wMTUtNS4yMDFhMSAxIDAgMDAtMS41LS44N2wtNS42ODcgMy4yNzdhMSAxIDAgMDEtLjk5OCAwTDYuNjY2IDkuN2ExIDEgMCAwMC0xLjQ5OS44NjZ2OS40YTEgMSAwIDAxLTEuNDk2Ljg2OWwtMy4xNjYtMS44MWExIDEgMCAwMS0uNTA0LS44N2wuMDI4LTE2LjQzQTEgMSAwIDAxMS41MjcuODZsMTAuODQ1IDYuMjI5YTEgMSAwIDAwLjk5NiAwTDI0LjIxLjg2YTEgMSAwIDAxMS40OTguODY4djE2LjQzNGExIDEgMCAwMS0uNTAxLjg2N2wtNS42NzggMy4yN2ExIDEgMCAwMC4wMDQgMS43MzVsMy4xMzIgMS43ODNhMSAxIDAgMDAuOTkzLS4wMDJsNi42ODUtMy44Mzl6TTMxIDcuMjM0YTEgMSAwIDAwMS41MTQuODU3bDMtMS44QTEgMSAwIDAwMzYgNS40MzRWMS43NjZBMSAxIDAgMDAzNC40ODYuOTFsLTMgMS44YTEgMSAwIDAwLS40ODYuODU3djMuNjY4eiIgZmlsbD0iIzAwN0ZGRiIvPjwvc3ZnPg==;" vertex="1" parent="DSFdceFmaKd0g0XFRlf6-22">
                    <mxGeometry x="290" y="35" width="58.13" height="62" as="geometry"/>
                </mxCell>
                <mxCell id="11" value="" style="shape=image;verticalLabelPosition=bottom;labelBackgroundColor=#ffffff;verticalAlign=top;aspect=fixed;imageAspect=0;image=data:image/svg+xml,PHN2ZyB4bWxucz0iaHR0cDovL3d3dy53My5vcmcvMjAwMC9zdmciIHhtbG5zOnhsaW5rPSJodHRwOi8vd3d3LnczLm9yZy8xOTk5L3hsaW5rIiB2ZXJzaW9uPSIxLjEiIGlkPSJMYXllcl8xIiB4PSIwcHgiIHk9IjBweCIgd2lkdGg9IjQxOS4wMnB4IiBoZWlnaHQ9IjkwcHgiIHZpZXdCb3g9IjAgMCA0MTkuMDIgOTAiIGVuYWJsZS1iYWNrZ3JvdW5kPSJuZXcgMCAwIDQxOS4wMiA5MCIgeG1sOnNwYWNlPSJwcmVzZXJ2ZSI+CjxnPgoJPGc+CgkJPHBvbHlnb24gZmlsbD0iIzAwRjJFNiIgcG9pbnRzPSIzMS40LDU4LjYgMjMuMSw2OC44NSAzMS4xLDgyLjg1IDQ3LjEsODUuNzkgNDcuMSw3MC44NSAzNS4xLDY2Ljg1ICAgIi8+CgkJPHBvbHlnb24gZmlsbD0iIzAwRjJFNiIgcG9pbnRzPSI2Mi43OSw1OC42IDc1LjEsNTYuODUgODIuMSw0My44NSA3OC40OSwzMS40MSA2Ny4xLDMxLjg1IDY2LjEsNTEuODUgICAiLz4KCQk8cG9seWdvbiBmaWxsPSIjMDBGMkU2IiBwb2ludHM9IjQ3LjEsMzEuNDEgNDUuMSwxMy44NSAyMi4xLDIzLjg1IDE1LjcsMzEuNDEgMjIuMSw0MC44NSAzOC4xLDMxLjg1ICAgIi8+CgkJPHBhdGggZmlsbD0iIzAwRjJFNiIgZD0iTTMxLjQsNTguNmMwLTExLjYyLDYuMzItMjEuNzYsMTUuNy0yNy4xOWMtNC42Mi0yLjY3LTkuOTgtNC4yMS0xNS43LTQuMjFDMTQuMDYsMjcuMiwwLDQxLjI2LDAsNTguNiAgICBTMTQuMDYsOTAsMzEuNCw5MGM1LjcyLDAsMTEuMDgtMS41NCwxNS43LTQuMjFDMzcuNzIsODAuMzYsMzEuNCw3MC4yMiwzMS40LDU4LjZ6Ii8+CgkJPHBhdGggZmlsbD0iIzYzM0VGRiIgZD0iTTYyLjc5LDU4LjZjLTEwLjA2LDUuODEtMjIsNS40MS0zMS4zOSwwYy0wLjAxLDUuMzQsMS4zNCwxMC43NSw0LjIsMTUuNyAgICBjOC42NywxNS4wMiwyNy44NywyMC4xNiw0Mi44OSwxMS40OVM5OC42NSw1Ny45MSw4OS45OCw0Mi45Yy0yLjg2LTQuOTUtNi44Ny04LjgzLTExLjUtMTEuNDlDNzguNDgsNDIuMjUsNzIuODYsNTIuNzksNjIuNzksNTguNiAgICB6Ii8+CgkJPHBhdGggZmlsbD0iI0Y5M0FFQiIgZD0iTTQ3LjA5LDMxLjRjMTAuMDYsNS44MSwxNS42OCwxNi4zNSwxNS43LDI3LjE5YzQuNjItMi42Niw4LjY0LTYuNTQsMTEuNS0xMS40OSAgICBjOC42Ny0xNS4wMiwzLjUzLTM0LjIyLTExLjQ5LTQyLjg5UzI4LjU3LDAuNjksMTkuOSwxNS43Yy0yLjg2LDQuOTUtNC4yMSwxMC4zNi00LjIsMTUuN0MyNS4wOSwyNiwzNy4wMywyNS41OSw0Ny4wOSwzMS40eiIvPgoJPC9nPgoJPGc+CgkJPGc+CgkJCTxwYXRoIGQ9Ik0xNjcuOTIsMTkuNzdjMCw0LjgtMy4zOCw4LjE4LTcuOTUsOC4xOGgtMS43NWMwLjA2LDAuNDUsMC40LDEuMDcsMC42MiwxLjUyTDE2Ny43LDQ2aC00LjY4bC03LjczLTE0LjUgICAgIGMtMC42OC0xLjI0LTEuMTMtMi4zNy0xLjM1LTMuNTVoLTguNDFWNDZoLTQuMjNWNmgxOC42N2M0LjU3LDAsNy45NSwzLjQ0LDcuOTUsOC4yNFYxOS43N3ogTTE2My42OSwxNC4yNCAgICAgYzAtMi42LTEuNTItNC4zNC0zLjYxLTQuMzRoLTE0LjU2djE0LjE2aDE0LjVjMi4xNCwwLDMuNjctMS42OSwzLjY3LTQuMjlWMTQuMjR6Ii8+CgkJCTxwYXRoIGQ9Ik0xOTYuODYsMjguNzljMCwyLjgyLTEuNzUsNC41MS00LjI5LDQuNTFoLTE0LjV2NC42M2MwLDIuNjUsMS41Miw0LjQsMy43Miw0LjRoMTIuOTJWNDZoLTEyLjgxICAgICBjLTQuNDYsMC03Ljc5LTMuMzMtNy43OS04LjA3VjI2LjA4YzAtNC43NCwzLjI3LTguMDcsNy43My04LjA3aDcuMTdjNC40NiwwLDcuODQsMy4zMyw3Ljg0LDguMDdWMjguNzl6IE0xOTIuODYsMjYuMTQgICAgIGMwLTIuNjUtMS41Mi00LjQ2LTMuNzItNC40NmgtNy4yOGMtMi4yLDAtMy43OCwxLjc1LTMuNzgsNC40djMuNTVoMTQuNzhWMjYuMTR6Ii8+CgkJCTxwYXRoIGQ9Ik0yMjIuMDgsNDEuMTVsLTAuNzksMS41MmMtMS4zLDIuNTQtMi44MiwzLjMzLTUuMzYsMy4zM2gtMTEuOXYtMy42N2gxMS41MWMxLjI0LDAsMS43NS0wLjQ1LDIuMzEtMS40N2wwLjczLTEuMzUgICAgIGMwLjM0LTAuNjIsMC41Ny0xLjM1LDAuNTctMi4xNGwtMTMuMzctNy4zOWMtMS44MS0xLjAxLTIuNzEtMi4wOS0yLjcxLTQuMDZjMC0wLjksMC4zNC0xLjc1LDEuMDctMy4xNmwwLjc5LTEuNTIgICAgIGMxLjMtMi40OCwyLjgyLTMuMjIsNS4zNi0zLjIyaDExLjU3djMuNjdoLTExLjE3Yy0xLjI0LDAtMS43NSwwLjI4LTIuMzEsMS4zNWwtMC43MywxLjQxYy0wLjQsMC43My0wLjU2LDEuMjQtMC41NiwxLjk4ICAgICBsMTMuMjYsNy4zOWMxLjkyLDEuMDcsMi44MiwyLjA5LDIuODIsNC4wNkMyMjMuMTUsMzguNzgsMjIyLjgxLDM5Ljc0LDIyMi4wOCw0MS4xNXoiLz4KCQkJPHBhdGggZD0iTTIzOC42Nyw0NmMtMS45MiwwLTMuNS0wLjk2LTQuNTctMi45OWwtMC43My0xLjQxYy0wLjUxLTAuOTYtMC42Mi0xLjY5LTAuNjItMy4xNlYyMS42OGgtNS45MnYtMy42N2g1Ljkydi02LjM4aDMuOTUgICAgIHY2LjM4aDguOTF2My42N2gtOC45MXYxNi43NmMwLDAuNzksMC4xNywxLjQxLDAuNDUsMS45N2wwLjQ1LDAuODVjMC4zOSwwLjY4LDEuMDIsMS4wNywxLjgsMS4wN2g2LjIxVjQ2SDIzOC42N3oiLz4KCQkJPHBhdGggZD0iTTI5MS44MSw0NlYyNy44OWgtMTguODRWNDZoLTQuMjNWNmg0LjIzdjE4aDE4Ljg0VjZoNC4yM3Y0MEgyOTEuODF6Ii8+CgkJCTxwYXRoIGQ9Ik0zMTUuMTYsNDZjLTMuMjIsMC01LjMtMS40MS02Ljc3LTQuMTJsLTMuMS01LjgxYy0wLjczLTEuMzUtMS4wNy0yLjU5LTEuMDctNC4wNmMwLTEuNDEsMC40LTIuNzEsMS4xMy00LjA2bDMuMS01Ljg3ICAgICBjMS40Ny0yLjgyLDMuODQtNC4wNiw2LjgzLTQuMDZoNC42M2MyLjk5LDAsNS4zNiwxLjI0LDYuODMsNC4wNmwzLjEsNS44N2MwLjczLDEuMzUsMS4xMywyLjY1LDEuMTMsNC4wNiAgICAgYzAsMS40Ny0wLjM0LDIuNzEtMS4wNyw0LjA2bC0zLjEsNS44MWMtMS40NywyLjcxLTMuNTUsNC4xMi02Ljc3LDQuMTJIMzE1LjE2eiBNMzIwLjAxLDQyLjMzYzEuNjQsMCwyLjU0LTAuNzMsMy4zOC0yLjMxICAgICBsMy4wNS01Ljg3YzAuNC0wLjc5LDAuNTYtMS4zNSwwLjU2LTIuMTRjMC0wLjczLTAuMTctMS40Ny0wLjU2LTIuMmwtMy4xLTUuODFjLTAuNzktMS40Ny0xLjgtMi4zMS0zLjU1LTIuMzFoLTQuNCAgICAgYy0xLjc1LDAtMi43NiwwLjg1LTMuNTUsMi4zMWwtMy4xLDUuODFjLTAuMzksMC43My0wLjU2LDEuNDctMC41NiwyLjJjMCwwLjc5LDAuMTcsMS4zNSwwLjU2LDIuMTRsMy4wNSw1Ljg3ICAgICBjMC44NSwxLjU4LDEuNzUsMi4zMSwzLjM5LDIuMzFIMzIwLjAxeiIvPgoJCQk8cGF0aCBkPSJNMzQ2Ljk4LDQ2Yy0zLjIyLDAtNS4zLTEuNDEtNi43Ny00LjEybC0zLjEtNS44MWMtMC43My0xLjM1LTEuMDctMi41OS0xLjA3LTQuMDZjMC0xLjQxLDAuNC0yLjcxLDEuMTMtNC4wNmwzLjEtNS44NyAgICAgYzEuNDctMi44MiwzLjg0LTQuMDYsNi44My00LjA2aDQuNjNjMi45OSwwLDUuMzYsMS4yNCw2LjgzLDQuMDZsMy4xLDUuODdjMC43MywxLjM1LDEuMTMsMi42NSwxLjEzLDQuMDYgICAgIGMwLDEuNDctMC4zNCwyLjcxLTEuMDcsNC4wNmwtMy4xLDUuODFjLTEuNDcsMi43MS0zLjU1LDQuMTItNi43Nyw0LjEySDM0Ni45OHogTTM1MS44Myw0Mi4zM2MxLjY0LDAsMi41NC0wLjczLDMuMzgtMi4zMSAgICAgbDMuMDUtNS44N2MwLjQtMC43OSwwLjU2LTEuMzUsMC41Ni0yLjE0YzAtMC43My0wLjE3LTEuNDctMC41Ni0yLjJsLTMuMS01LjgxYy0wLjc5LTEuNDctMS44MS0yLjMxLTMuNTUtMi4zMWgtNC40ICAgICBjLTEuNzUsMC0yLjc2LDAuODUtMy41NSwyLjMxbC0zLjEsNS44MWMtMC4zOSwwLjczLTAuNTYsMS40Ny0wLjU2LDIuMmMwLDAuNzksMC4xNywxLjM1LDAuNTYsMi4xNGwzLjA1LDUuODcgICAgIGMwLjg1LDEuNTgsMS43NSwyLjMxLDMuMzksMi4zMUgzNTEuODN6Ii8+CgkJCTxwYXRoIGQ9Ik0zODYuNjksMjkuOTJjMy4yMiwwLjg1LDUuMjUsMy42Nyw1LjI1LDcuNDVWNDZoLTMuOTV2LTguNjNjMC0yLjQ4LTEuMy00LjA2LTMuNS00LjA2aC0xMC4xNlY0NmgtMy45NVY2aDMuOTV2MjMuNjQgICAgIGg4LjEybDYuMjYtMTEuNjJoNC4yOUwzODYuNjksMjkuOTJ6Ii8+CgkJCTxwYXRoIGQ9Ik00MTcuOTUsNDEuMTVsLTAuNzksMS41MmMtMS4zLDIuNTQtMi44MiwzLjMzLTUuMzYsMy4zM2gtMTEuOXYtMy42N2gxMS41MWMxLjI0LDAsMS43NS0wLjQ1LDIuMzEtMS40N2wwLjczLTEuMzUgICAgIGMwLjM0LTAuNjIsMC41Ni0xLjM1LDAuNTYtMi4xNGwtMTMuMzctNy4zOWMtMS44MS0xLjAxLTIuNzEtMi4wOS0yLjcxLTQuMDZjMC0wLjksMC4zNC0xLjc1LDEuMDctMy4xNmwwLjc5LTEuNTIgICAgIGMxLjMtMi40OCwyLjgyLTMuMjIsNS4zNi0zLjIyaDExLjU3djMuNjdoLTExLjE3Yy0xLjI0LDAtMS43NSwwLjI4LTIuMzEsMS4zNWwtMC43MywxLjQxYy0wLjQsMC43My0wLjU2LDEuMjQtMC41NiwxLjk4ICAgICBsMTMuMjYsNy4zOWMxLjkyLDEuMDcsMi44MiwyLjA5LDIuODIsNC4wNkM0MTkuMDIsMzguNzgsNDE4LjY4LDM5Ljc0LDQxNy45NSw0MS4xNXoiLz4KCQk8L2c+CgkJPGc+CgkJCTxwYXRoIGQ9Ik0xNDguNDEsNzguNTFjLTAuNjMsMS4xNy0xLjUxLDEuODktMi45LDEuODloLTQuMjFWNjcuNjNoNC4yNWMxLjMxLDAsMi4yMSwwLjY1LDIuODYsMS44NWwxLjQyLDIuNjggICAgIGMwLjMxLDAuNTksMC40OSwxLjE3LDAuNDksMS44MmMwLDAuNjUtMC4xOCwxLjI0LTAuNDksMS44NEwxNDguNDEsNzguNTF6IE0xNDguNjksNzUuMThjMC4yMi0wLjQxLDAuMjktMC43NywwLjI5LTEuMTkgICAgIGMwLTAuNDEtMC4wNy0wLjc2LTAuMjktMS4xN2wtMS40Mi0yLjdjLTAuNDEtMC43Ny0wLjk3LTEuMjQtMS44Ny0xLjI0aC0yLjc1djEwLjI4aDIuODZjMC44MywwLDEuMzMtMC40NywxLjc2LTEuMjggICAgIEwxNDguNjksNzUuMTh6Ii8+CgkJCTxwYXRoIGQ9Ik0xNTkuODIsNzQuOTFjMCwwLjktMC41NiwxLjQ0LTEuMzcsMS40NGgtNC42M3YxLjQ4YzAsMC44NSwwLjQ5LDEuNCwxLjE5LDEuNGg0LjEydjEuMTdoLTQuMDkgICAgIGMtMS40MiwwLTIuNDgtMS4wNi0yLjQ4LTIuNTd2LTMuNzhjMC0xLjUxLDEuMDQtMi41NywyLjQ3LTIuNTdoMi4yOWMxLjQyLDAsMi41LDEuMDYsMi41LDIuNTdWNzQuOTF6IE0xNTguNTQsNzQuMDYgICAgIGMwLTAuODUtMC40OS0xLjQyLTEuMTktMS40MmgtMi4zMmMtMC43LDAtMS4yMSwwLjU2LTEuMjEsMS40djEuMTNoNC43MlY3NC4wNnoiLz4KCQkJPHBhdGggZD0iTTE2NC41LDgwLjRjLTAuNjEsMC0xLjEyLTAuMzEtMS40Ni0wLjk1bC0wLjIzLTAuNDVjLTAuMTYtMC4zMS0wLjItMC41NC0wLjItMS4wMVY2Ny42M2gxLjI2djEwLjM1ICAgICBjMCwwLjI1LDAuMDUsMC40NSwwLjE0LDAuNjNsMC4xNCwwLjI3YzAuMTMsMC4yMiwwLjMyLDAuMzQsMC41OCwwLjM0aDEuNjJ2MS4xN0gxNjQuNXoiLz4KCQkJPHBhdGggZD0iTTE2OS4yOCw4MC40di03Ljc2aC0yLjg0di0xLjE3aDMuMDRjMC43NiwwLDEuMDYsMC40MSwxLjA2LDEuMDN2Ny45SDE2OS4yOHogTTE2OS4wNyw2OS4zNHYtMS43MWgxLjY5djEuNzFIMTY5LjA3eiIvPgoJCQk8cGF0aCBkPSJNMTgxLjE1LDgxLjQzYzAsMS41MS0xLjA0LDIuNTctMi40NywyLjU3aC0zLjg1di0xLjE3aDMuODVjMC43LDAsMS4yMS0wLjU0LDEuMjEtMS4zOXYtMi44OGwtMC4yMywwLjQxICAgICBjLTAuNDksMC44NS0xLjA4LDEuNDItMi4xMSwxLjQyaC0xLjUxYy0xLjQyLDAtMi40OC0xLjA2LTIuNDgtMi41N3YtMy44YzAtMS41MSwxLjA2LTIuNTYsMi40OC0yLjU2aDEuNTMgICAgIGMxLjAzLDAsMS42NywwLjU2LDIuMTIsMS40MmwwLjI5LDAuNTZsMC4yLTEuOThoMC45N1Y4MS40M3ogTTE3OS43Myw3NS4yNWwtMC45Ny0xLjg1Yy0wLjI3LTAuNS0wLjU4LTAuNzYtMS4xLTAuNzZIMTc2ICAgICBjLTAuNywwLTEuMTksMC41NC0xLjE5LDEuMzl2My44YzAsMC44NSwwLjQ5LDEuNCwxLjE5LDEuNGgxLjY3YzAuNTIsMCwwLjgxLTAuMjMsMS4wOC0wLjc0bDAuOTktMS44NSAgICAgYzAuMTEtMC4yLDAuMTQtMC40MywwLjE0LTAuNjhTMTc5LjgzLDc1LjQ1LDE3OS43Myw3NS4yNXoiLz4KCQkJPHBhdGggZD0iTTE5MCw4MC40di02LjQ2YzAtMC43OS0wLjQxLTEuMy0xLjEyLTEuM2gtMC43N2MtMC42NSwwLTAuODMsMC4xNi0xLjE3LDAuNzlsLTEuMywyLjQxdjQuNTZoLTEuMjZWNjcuNjNoMS4yNnY1Ljk4ICAgICBsMC40LTAuNzZjMC40Ny0wLjksMS4wNi0xLjM5LDIuMDktMS4zOWgwLjc0YzEuNDIsMCwyLjM5LDAuOTksMi4zOSwyLjQ3djYuNDZIMTkweiIvPgoJCQk8cGF0aCBkPSJNMTk2LjkzLDgwLjRjLTAuNjEsMC0xLjEyLTAuMzEtMS40Ni0wLjk1bC0wLjIzLTAuNDVjLTAuMTYtMC4zMS0wLjItMC41NC0wLjItMS4wMXYtNS4zNWgtMS44OXYtMS4xN2gxLjg5di0yLjAzaDEuMjYgICAgIHYyLjAzaDIuODR2MS4xN2gtMi44NHY1LjM1YzAsMC4yNSwwLjA1LDAuNDUsMC4xNCwwLjYzbDAuMTQsMC4yN2MwLjEzLDAuMjIsMC4zMiwwLjM0LDAuNTgsMC4zNGgxLjk4djEuMTdIMTk2LjkzeiIvPgoJCQk8cGF0aCBkPSJNMjAzLjc1LDcyLjY0djcuNzZoLTEuMjZ2LTcuNzZoLTIuMzJ2LTEuMTdoMi4zMnYtMS40MmMwLTAuNDcsMC4wNC0wLjcsMC4yLTEuMDFsMC4yMy0wLjQ1ICAgICBjMC4zNC0wLjY1LDAuODUtMC45NSwxLjQ2LTAuOTVoMi42OHYxLjE3aC0yLjQ1Yy0wLjI5LDAtMC40NSwwLjEzLTAuNTgsMC4zNGwtMC4xNiwwLjI3Yy0wLjExLDAuMTgtMC4xMywwLjM4LTAuMTMsMC42M3YxLjQyICAgICBoMy4zMXYxLjE3SDIwMy43NXoiLz4KCQkJPHBhdGggZD0iTTIxNC40Niw4MC40bC0wLjE4LTIuM2wtMC40NywwLjkyYy0wLjQ3LDAuOS0xLjA2LDEuMzktMi4wOSwxLjM5aC0wLjc0Yy0xLjQyLDAtMi40LTAuOTktMi40LTIuNDd2LTYuNDZoMS4yNnY2LjQ2ICAgICBjMCwwLjc5LDAuNDEsMS4zLDEuMTIsMS4zaDAuNzdjMC42NSwwLDAuODMtMC4xNiwxLjE3LTAuNzlsMS4zLTIuNDF2LTQuNTZoMS4yNnY4LjkzSDIxNC40NnoiLz4KCQkJPHBhdGggZD0iTTIyMC42LDgwLjRjLTAuNjEsMC0xLjEyLTAuMzEtMS40Ni0wLjk1bC0wLjIzLTAuNDVjLTAuMTYtMC4zMS0wLjItMC41NC0wLjItMS4wMVY2Ny42M2gxLjI2djEwLjM1ICAgICBjMCwwLjI1LDAuMDUsMC40NSwwLjE0LDAuNjNsMC4xNCwwLjI3YzAuMTMsMC4yMiwwLjMyLDAuMzQsMC41OCwwLjM0aDEuNjJ2MS4xN0gyMjAuNnoiLz4KCQkJPHBhdGggZD0iTTIzNi4yMyw3OC41MWMtMC42MywxLjE3LTEuNTEsMS44OS0yLjksMS44OWgtNC4yMVY2Ny42M2g0LjI1YzEuMzEsMCwyLjIxLDAuNjUsMi44NiwxLjg1bDEuNDIsMi42OCAgICAgYzAuMzEsMC41OSwwLjQ5LDEuMTcsMC40OSwxLjgyYzAsMC42NS0wLjE4LDEuMjQtMC40OSwxLjg0TDIzNi4yMyw3OC41MXogTTIzNi41MSw3NS4xOGMwLjIyLTAuNDEsMC4yOS0wLjc3LDAuMjktMS4xOSAgICAgYzAtMC40MS0wLjA3LTAuNzYtMC4yOS0xLjE3bC0xLjQyLTIuN2MtMC40MS0wLjc3LTAuOTctMS4yNC0xLjg3LTEuMjRoLTIuNzV2MTAuMjhoMi44NmMwLjgzLDAsMS4zMy0wLjQ3LDEuNzYtMS4yOCAgICAgTDIzNi41MSw3NS4xOHoiLz4KCQkJPHBhdGggZD0iTTI0NS44Miw4MC40bC0wLjItMS44MmwtMC4yLDAuNGMtMC40MywwLjg2LTEuMTUsMS40Mi0yLjE4LDEuNDJoLTEuMDFjLTEuNDIsMC0yLjM5LTAuOTktMi4zOS0yLjQ3di0wLjMxICAgICBjMC0xLjQ4LDAuOTctMi40NSwyLjM5LTIuNDVoMy4yOXYtMS4xM2MwLTAuODUtMC41LTEuNC0xLjIxLTEuNGgtMy41NXYtMS4xN2gzLjU1YzEuNDIsMCwyLjQ3LDEuMDQsMi40NywyLjU2djYuMzdIMjQ1LjgyeiAgICAgIE0yNDIuMjIsNzYuMzNjLTAuNywwLTEuMTIsMC41LTEuMTIsMS4zdjAuMzFjMCwwLjc5LDAuNDEsMS4zLDEuMTIsMS4zaDEuMTJjMC41MiwwLDAuODgtMC4yMiwxLjIyLTAuODZsMC43OS0xLjQ4ICAgICBjMC4wOS0wLjE4LDAuMTgtMC40LDAuMTgtMC41NkgyNDIuMjJ6Ii8+CgkJCTxwYXRoIGQ9Ik0yNTIuNDYsODAuNGMtMC42MSwwLTEuMTItMC4zMS0xLjQ2LTAuOTVsLTAuMjMtMC40NWMtMC4xNi0wLjMxLTAuMi0wLjU0LTAuMi0xLjAxdi01LjM1aC0xLjg5di0xLjE3aDEuODl2LTIuMDNoMS4yNiAgICAgdjIuMDNoMi44NHYxLjE3aC0yLjg0djUuMzVjMCwwLjI1LDAuMDUsMC40NSwwLjE0LDAuNjNsMC4xNCwwLjI3YzAuMTMsMC4yMiwwLjMyLDAuMzQsMC41OCwwLjM0aDEuOTh2MS4xN0gyNTIuNDZ6Ii8+CgkJCTxwYXRoIGQ9Ik0yNjIuNjMsODAuNGwtMC4yLTEuODJsLTAuMiwwLjRjLTAuNDMsMC44Ni0xLjE1LDEuNDItMi4xOCwxLjQyaC0xLjAxYy0xLjQyLDAtMi4zOS0wLjk5LTIuMzktMi40N3YtMC4zMSAgICAgYzAtMS40OCwwLjk3LTIuNDUsMi4zOS0yLjQ1aDMuMjl2LTEuMTNjMC0wLjg1LTAuNS0xLjQtMS4yMS0xLjRoLTMuNTV2LTEuMTdoMy41NWMxLjQyLDAsMi40NywxLjA0LDIuNDcsMi41NnY2LjM3SDI2Mi42M3ogICAgICBNMjU5LjAzLDc2LjMzYy0wLjcsMC0xLjEyLDAuNS0xLjEyLDEuM3YwLjMxYzAsMC43OSwwLjQxLDEuMywxLjEyLDEuM2gxLjEyYzAuNTIsMCwwLjg4LTAuMjIsMS4yMi0wLjg2bDAuNzktMS40OCAgICAgYzAuMDktMC4xOCwwLjE4LTAuNCwwLjE4LTAuNTZIMjU5LjAzeiIvPgoJCQk8cGF0aCBkPSJNMjcyLjc4LDY4Ljg4djQuNDhoNS4xMXYxLjI0aC01LjExdjUuOGgtMS4zNVY2OC44OGMwLTAuNzYsMC4zNC0xLjI0LDEuMTktMS4yNGg2LjI4djEuMjRIMjcyLjc4eiIvPgoJCQk8cGF0aCBkPSJNMjg3LjUxLDc0LjkxYzAsMC45LTAuNTYsMS40NC0xLjM3LDEuNDRoLTQuNjN2MS40OGMwLDAuODUsMC40OSwxLjQsMS4xOSwxLjRoNC4xMnYxLjE3aC00LjA5ICAgICBjLTEuNDIsMC0yLjQ4LTEuMDYtMi40OC0yLjU3di0zLjc4YzAtMS41MSwxLjA0LTIuNTcsMi40Ny0yLjU3aDIuMjljMS40MiwwLDIuNSwxLjA2LDIuNSwyLjU3Vjc0LjkxeiBNMjg2LjIzLDc0LjA2ICAgICBjMC0wLjg1LTAuNDktMS40Mi0xLjE5LTEuNDJoLTIuMzJjLTAuNywwLTEuMjEsMC41Ni0xLjIxLDEuNHYxLjEzaDQuNzJWNzQuMDZ6Ii8+CgkJCTxwYXRoIGQ9Ik0yOTIuODIsODAuNGMtMC42MSwwLTEuMTItMC4zMS0xLjQ2LTAuOTVsLTAuMjMtMC40NWMtMC4xNi0wLjMxLTAuMi0wLjU0LTAuMi0xLjAxdi01LjM1aC0xLjg5di0xLjE3aDEuODl2LTIuMDNoMS4yNiAgICAgdjIuMDNoMi44NHYxLjE3aC0yLjg0djUuMzVjMCwwLjI1LDAuMDUsMC40NSwwLjE0LDAuNjNsMC4xNCwwLjI3YzAuMTMsMC4yMiwwLjMyLDAuMzQsMC41OCwwLjM0aDEuOTh2MS4xN0gyOTIuODJ6Ii8+CgkJCTxwYXRoIGQ9Ik0zMDAuMzIsODAuNGMtMS4wMywwLTEuNjktMC40NS0yLjE2LTEuMzFsLTAuOTktMS44NWMtMC4yMy0wLjQzLTAuMzQtMC44My0wLjM0LTEuM2MwLTAuNDUsMC4xMy0wLjg2LDAuMzYtMS4zICAgICBsMC45OS0xLjg3YzAuNDctMC45LDEuMjItMS4zLDIuMTgtMS4zaDIuOTd2MS4xN2gtMi45M2MtMC41NiwwLTAuODgsMC4yNy0xLjEzLDAuNzRsLTAuOTksMS44NWMtMC4xMywwLjIzLTAuMTgsMC40Ny0wLjE4LDAuNyAgICAgYzAsMC4yNSwwLjA1LDAuNDMsMC4xOCwwLjY4bDAuOTcsMS44N2MwLjI3LDAuNSwwLjU2LDAuNzQsMS4wOCwwLjc0aDIuNzl2MS4xN0gzMDAuMzJ6Ii8+CgkJCTxwYXRoIGQ9Ik0zMTEuNTYsODAuNHYtNi40NmMwLTAuNzktMC40MS0xLjMtMS4xMi0xLjNoLTAuNzdjLTAuNjUsMC0wLjgzLDAuMTYtMS4xNywwLjc5bC0xLjMsMi40MXY0LjU2aC0xLjI2VjY3LjYzaDEuMjZ2NS45OCAgICAgbDAuNC0wLjc2YzAuNDctMC45LDEuMDYtMS4zOSwyLjA5LTEuMzloMC43NGMxLjQyLDAsMi4zOSwwLjk5LDIuMzksMi40N3Y2LjQ2SDMxMS41NnoiLz4KCQkJPHBhdGggZD0iTTMxNy4xOSw4MC40di03Ljc2aC0yLjg0di0xLjE3aDMuMDRjMC43NiwwLDEuMDYsMC40MSwxLjA2LDEuMDN2Ny45SDMxNy4xOXogTTMxNi45Nyw2OS4zNHYtMS43MWgxLjY5djEuNzFIMzE2Ljk3eiIvPgoJCQk8cGF0aCBkPSJNMzI3LjM0LDgwLjR2LTYuNDZjMC0wLjc5LTAuNDEtMS4zLTEuMTItMS4zaC0wLjc3Yy0wLjY1LDAtMC44MywwLjE2LTEuMTcsMC43OWwtMS4zLDIuNDF2NC41NmgtMS4yNnYtOC45M2gxLjAxICAgICBsMC4xOCwyLjNsMC40Ny0wLjkyYzAuNDctMC45LDEuMDYtMS4zOSwyLjA5LTEuMzloMC43NGMxLjQyLDAsMi4zOSwwLjk5LDIuMzksMi40N3Y2LjQ2SDMyNy4zNHoiLz4KCQkJPHBhdGggZD0iTTMzOS4wOCw4MS40M2MwLDEuNTEtMS4wNCwyLjU3LTIuNDcsMi41N2gtMy44NXYtMS4xN2gzLjg1YzAuNywwLDEuMjEtMC41NCwxLjIxLTEuMzl2LTIuODhsLTAuMjMsMC40MSAgICAgYy0wLjQ5LDAuODUtMS4wOCwxLjQyLTIuMTEsMS40MmgtMS41MWMtMS40MiwwLTIuNDgtMS4wNi0yLjQ4LTIuNTd2LTMuOGMwLTEuNTEsMS4wNi0yLjU2LDIuNDgtMi41NmgxLjUzICAgICBjMS4wMywwLDEuNjcsMC41NiwyLjEyLDEuNDJsMC4yOSwwLjU2bDAuMi0xLjk4aDAuOTdWODEuNDN6IE0zMzcuNjYsNzUuMjVsLTAuOTctMS44NWMtMC4yNy0wLjUtMC41OC0wLjc2LTEuMS0wLjc2aC0xLjY2ICAgICBjLTAuNywwLTEuMTksMC41NC0xLjE5LDEuMzl2My44YzAsMC44NSwwLjQ5LDEuNCwxLjE5LDEuNGgxLjY3YzAuNTIsMCwwLjgxLTAuMjMsMS4wOC0wLjc0bDAuOTktMS44NSAgICAgYzAuMTEtMC4yLDAuMTQtMC40MywwLjE0LTAuNjhTMzM3Ljc2LDc1LjQ1LDMzNy42Niw3NS4yNXoiLz4KCQk8L2c+Cgk8L2c+CjwvZz4KPC9zdmc+;" vertex="1" parent="DSFdceFmaKd0g0XFRlf6-22">
                    <mxGeometry x="16.73" y="147.5" width="116.39" height="25" as="geometry"/>
                </mxCell>
                <mxCell id="12" value="" style="shape=image;verticalLabelPosition=bottom;labelBackgroundColor=#ffffff;verticalAlign=top;aspect=fixed;imageAspect=0;image=data:image/svg+xml,PHN2ZyB4bWxucz0iaHR0cDovL3d3dy53My5vcmcvMjAwMC9zdmciIHdpZHRoPSIxNjIiIGhlaWdodD0iNTAiIHZpZXdCb3g9IjAgMCAxNzkuNTMxIDUwIiBjbGFzcz0ibWwtMyBtbC1tZC0wIj4KICAgICAgICAgICAgICAgICAgICA8ZGVmcz4KICAgICAgICAgICAgICAgICAgICAgICAgPHN0eWxlPgogICAgICAgICAgICAgICAgICAgICAgICAgICAgLmxvZ28tdGV4dCB7CiAgICAgICAgICAgICAgICAgICAgICAgICAgICAgICAgZmlsbDogIzE3MzY0NzsKICAgICAgICAgICAgICAgICAgICAgICAgICAgIH0KCiAgICAgICAgICAgICAgICAgICAgICAgICAgICAuYiB7CiAgICAgICAgICAgICAgICAgICAgICAgICAgICAgICAgZmlsbDogIzIzZDk2YzsKICAgICAgICAgICAgICAgICAgICAgICAgICAgIH0KCiAgICAgICAgICAgICAgICAgICAgICAgICAgICAuYiwKICAgICAgICAgICAgICAgICAgICAgICAgICAgIC5kIHsKICAgICAgICAgICAgICAgICAgICAgICAgICAgICAgICBmaWxsLXJ1bGU6IGV2ZW5vZGQ7CiAgICAgICAgICAgICAgICAgICAgICAgICAgICB9CgogICAgICAgICAgICAgICAgICAgICAgICAgICAgLmMsCiAgICAgICAgICAgICAgICAgICAgICAgICAgICAuZCB7CiAgICAgICAgICAgICAgICAgICAgICAgICAgICAgICAgZmlsbDogIzE3MzY0NzsKICAgICAgICAgICAgICAgICAgICAgICAgICAgIH0KICAgICAgICAgICAgICAgICAgICAgICAgPC9zdHlsZT4KICAgICAgICAgICAgICAgICAgICA8L2RlZnM+CiAgICAgICAgICAgICAgICAgICAgPGcgdHJhbnNmb3JtPSJ0cmFuc2xhdGUoLTIzOTMuMDY4IC0zMDIuNTIpIj4KICAgICAgICAgICAgICAgICAgICAgICAgPGcgdHJhbnNmb3JtPSJ0cmFuc2xhdGUoMjQ0My4xNTMgMzQzLjU5NykiPgogICAgICAgICAgICAgICAgICAgICAgICAgICAgPGcgdHJhbnNmb3JtPSJ0cmFuc2xhdGUoMCAwKSI+CiAgICAgICAgICAgICAgICAgICAgICAgICAgICAgICAgPGcgdHJhbnNmb3JtPSJ0cmFuc2xhdGUoNTEuNDMzKSI+CiAgICAgICAgICAgICAgICAgICAgICAgICAgICAgICAgICAgIDxwYXRoIGNsYXNzPSJsb2dvLXRleHQiIGQ9Ik0yNjQwLjcsNDAxLjg2MXMtMS40NDItLjE2NS0yLjAzOS0uMTY1Yy0uODY2LDAtMS4zMDguMzA5LTEuMzA4LjkxNywwLC42NTkuMzcxLjgxNCwxLjU3NiwxLjE0NCwxLjQ4My40MTIsMi4wMTkuOCwyLjAxOSwyLjAwOGEyLjA2OSwyLjA2OSwwLDAsMS0yLjM1OSwyLjIxNSwxNS4wMTcsMTUuMDE3LDAsMCwxLTIuMzA3LS4yNzhsLjExNC0uOTE3czEuMzkxLjE4NSwyLjEyMi4xODVjLjg3NSwwLDEuMjc3LS4zOTEsMS4yNzctMS4xMzMsMC0uNi0uMzE5LS44LTEuNC0xLjA2MS0xLjUyNC0uMzkxLTIuMTg0LS44NTUtMi4xODQtMi4wOCwwLTEuNDIyLjkzOC0yLjAwOSwyLjM0OS0yLjAwOWExNS42NDUsMTUuNjQ1LDAsMCwxLDIuMjM1LjI0N1oiIHRyYW5zZm9ybT0idHJhbnNsYXRlKC0yNjM2LjIwOCAtNDAwLjY4NykiLz4KICAgICAgICAgICAgICAgICAgICAgICAgICAgICAgICAgICAgPGcgdHJhbnNmb3JtPSJ0cmFuc2xhdGUoNy40OCAwLjEyNCkiPgogICAgICAgICAgICAgICAgICAgICAgICAgICAgICAgICAgICAgICAgPHBhdGggY2xhc3M9ImxvZ28tdGV4dCIgZD0iTTI2NTQsNDAwLjk4MWgxLjk4OGwxLjU3Niw1LjUxLDEuNTc2LTUuNTFoMnY3LjA1NWgtMS4xNTR2LTYuMWgtLjA2MWwtMS43NjIsNS44MWgtMS4ybC0xLjc2Mi01LjgxaC0uMDYxdjYuMUgyNjU0WiIgdHJhbnNmb3JtPSJ0cmFuc2xhdGUoLTI2NTMuOTk4IC00MDAuOTgxKSIvPgogICAgICAgICAgICAgICAgICAgICAgICAgICAgICAgICAgICA8L2c+CiAgICAgICAgICAgICAgICAgICAgICAgICAgICAgICAgICAgIDxnIHRyYW5zZm9ybT0idHJhbnNsYXRlKDMyLjMyNiAwLjEyNCkiPgogICAgICAgICAgICAgICAgICAgICAgICAgICAgICAgICAgICAgICAgPHBhdGggY2xhc3M9ImxvZ28tdGV4dCIgZD0iTTI3MTMuMDg4LDQwMC45ODFoNS4xNVY0MDJoLTEuOTg4djYuMDM2SDI3MTUuMVY0MDJoLTIuMDA5WiIgdHJhbnNmb3JtPSJ0cmFuc2xhdGUoLTI3MTMuMDg4IC00MDAuOTgxKSIvPgogICAgICAgICAgICAgICAgICAgICAgICAgICAgICAgICAgICA8L2c+CiAgICAgICAgICAgICAgICAgICAgICAgICAgICAgICAgICAgIDxnIHRyYW5zZm9ybT0idHJhbnNsYXRlKDM5Ljc3MyAwLjEyNCkiPgogICAgICAgICAgICAgICAgICAgICAgICAgICAgICAgICAgICAgICAgPHBhdGggY2xhc3M9ImxvZ28tdGV4dCIgZD0iTTI3MzMuNDc4LDQwMC45ODFjMS40LDAsMi4xNTMuNTI1LDIuMTUzLDEuODMzYTEuNTQ4LDEuNTQ4LDAsMCwxLS44MzQsMS41ODYsMS41MjMsMS41MjMsMCwwLDEsMS4wMSwxLjYzOGMwLDEuNDQyLS44NzUsMi0yLjI0NSwySDI3MzAuOHYtNy4wNTVabS0xLjUzNS45ODl2Mi4wMTloMS41MTRjLjcsMCwxLjAxLS4zNSwxLjAxLTEuMDQxcy0uMzUxLS45NzgtMS4wNS0uOTc4Wm0wLDIuOTg3djIuMDkxaDEuNTU2Yy43MSwwLDEuMTMzLS4yMjcsMS4xMzMtMS4wNzEsMC0uOC0uNi0xLjAyLTEuMTUzLTEuMDJaIiB0cmFuc2Zvcm09InRyYW5zbGF0ZSgtMjczMC43OTkgLTQwMC45ODEpIi8+CiAgICAgICAgICAgICAgICAgICAgICAgICAgICAgICAgICAgIDwvZz4KICAgICAgICAgICAgICAgICAgICAgICAgICAgICAgICAgICAgPGcgdHJhbnNmb3JtPSJ0cmFuc2xhdGUoNDcuNjEzIDAuMTI0KSI+CiAgICAgICAgICAgICAgICAgICAgICAgICAgICAgICAgICAgICAgICA8cGF0aCBjbGFzcz0ibG9nby10ZXh0IiBkPSJNMjc0OS40NDUsNDAwLjk4MWg0LjQ1djFoLTMuMzA3djJoMi42ODl2Ljk3OGgtMi42ODl2Mi4wN2gzLjMwN3YxLjAwOWgtNC40NVoiIHRyYW5zZm9ybT0idHJhbnNsYXRlKC0yNzQ5LjQ0NSAtNDAwLjk4MSkiLz4KICAgICAgICAgICAgICAgICAgICAgICAgICAgICAgICAgICAgPC9nPgogICAgICAgICAgICAgICAgICAgICAgICAgICAgICAgICAgICA8ZyB0cmFuc2Zvcm09InRyYW5zbGF0ZSg1NC40MjEgMC4xMjQpIj4KICAgICAgICAgICAgICAgICAgICAgICAgICAgICAgICAgICAgICAgIDxwYXRoIGNsYXNzPSJsb2dvLXRleHQiIGQ9Ik0yNzY3LjM3OSw0MDAuOTgxaDIuMjc2bDEuNzUxLDcuMDU1aC0xLjE1M2wtLjUyMS0yLjA3SDI3NjcuM2wtLjUyMSwyLjA3aC0xLjE0M1ptLjE1MiwzLjk3NmgxLjk3OWwtLjczLTMuMDE4aC0uNTE1WiIgdHJhbnNmb3JtPSJ0cmFuc2xhdGUoLTI3NjUuNjM4IC00MDAuOTgxKSIvPgogICAgICAgICAgICAgICAgICAgICAgICAgICAgICAgICAgICA8L2c+CiAgICAgICAgICAgICAgICAgICAgICAgICAgICAgICAgICAgIDxnIHRyYW5zZm9ybT0idHJhbnNsYXRlKDYyLjczNCAwLjEyNCkiPgogICAgICAgICAgICAgICAgICAgICAgICAgICAgICAgICAgICAgICAgPHBhdGggY2xhc3M9ImxvZ28tdGV4dCIgZD0iTTI3ODYuNTUxLDQwNS45NDV2Mi4wOTFoLTEuMTQzdi03LjA1NWgyLjY3OWEyLjE4OCwyLjE4OCwwLDAsMSwyLjM4OSwyLjQ1NiwyLjM4MSwyLjM4MSwwLDAsMS0xLjE1NCwyLjI1bDEuMTY0LDIuMzQ4aC0xLjI1N2wtMS4wMi0yLjA5MVptMS41MzUtMy45NzZoLTEuNTM1djIuOTg3aDEuNTU2Yy44NjUsMCwxLjE5NS0uNzc3LDEuMTk1LTEuNTA5QzI3ODkuMyw0MDIuNjQ0LDI3ODguOTExLDQwMS45NywyNzg4LjA4Nyw0MDEuOTdaIiB0cmFuc2Zvcm09InRyYW5zbGF0ZSgtMjc4NS40MDggLTQwMC45ODEpIi8+CiAgICAgICAgICAgICAgICAgICAgICAgICAgICAgICAgICAgIDwvZz4KICAgICAgICAgICAgICAgICAgICAgICAgICAgICAgICAgICAgPGcgdHJhbnNmb3JtPSJ0cmFuc2xhdGUoMTcuMTExIDAuMTI0KSI+CiAgICAgICAgICAgICAgICAgICAgICAgICAgICAgICAgICAgICAgICA8cGF0aCBjbGFzcz0ibG9nby10ZXh0IiBkPSJNMjY3OC42NDUsNDAwLjk4MWgyLjI3NmwxLjc1MSw3LjA1NWgtMS4xNTRsLS41MjEtMi4wN2gtMi40MjlsLS41MjEsMi4wN0gyNjc2LjlabS4xNTIsMy45NzZoMS45NzlsLS43My0zLjAxOGgtLjUxNVoiIHRyYW5zZm9ybT0idHJhbnNsYXRlKC0yNjc2LjkwNCAtNDAwLjk4MSkiLz4KICAgICAgICAgICAgICAgICAgICAgICAgICAgICAgICAgICAgPC9nPgogICAgICAgICAgICAgICAgICAgICAgICAgICAgICAgICAgICA8ZyB0cmFuc2Zvcm09InRyYW5zbGF0ZSgyNS40MjQgMC4xMjQpIj4KICAgICAgICAgICAgICAgICAgICAgICAgICAgICAgICAgICAgICAgIDxwYXRoIGNsYXNzPSJsb2dvLXRleHQiIGQ9Ik0yNjk3LjgxNyw0MDUuOTQ1djIuMDkxaC0xLjE0M3YtNy4wNTVoMi42NzhhMi4xODgsMi4xODgsMCwwLDEsMi4zOSwyLjQ1NiwyLjM4MSwyLjM4MSwwLDAsMS0xLjE1MywyLjI1bDEuMTY0LDIuMzQ4SDI3MDAuNWwtMS4wMi0yLjA5MVptMS41MzUtMy45NzZoLTEuNTM1djIuOTg3aDEuNTU2Yy44NjUsMCwxLjE5NS0uNzc3LDEuMTk1LTEuNTA5QzI3MDAuNTY4LDQwMi42NDQsMjcwMC4xNzYsNDAxLjk3LDI2OTkuMzUyLDQwMS45N1oiIHRyYW5zZm9ybT0idHJhbnNsYXRlKC0yNjk2LjY3NCAtNDAwLjk4MSkiLz4KICAgICAgICAgICAgICAgICAgICAgICAgICAgICAgICAgICAgPC9nPgogICAgICAgICAgICAgICAgICAgICAgICAgICAgICAgIDwvZz4KICAgICAgICAgICAgICAgICAgICAgICAgICAgICAgICA8ZyB0cmFuc2Zvcm09InRyYW5zbGF0ZSgwIDEuNjY2KSI+CiAgICAgICAgICAgICAgICAgICAgICAgICAgICAgICAgICAgIDxwYXRoIGNsYXNzPSJsb2dvLXRleHQiIGQ9Ik0yNTE3LjE0NSw0MDkuMTRhMS4yNzEsMS4yNzEsMCwwLDEtLjUsMS4wNjcsMi4xNDgsMi4xNDgsMCwwLDEtMS4zNDcuMzgzLDMuMzcsMy4zNywwLDAsMS0xLjQxNy0uMjM3di0uNTgyYTMuODI5LDMuODI5LDAsMCwwLDEuNDM5LjI5MSwxLjUsMS41LDAsMCwwLC45MDctLjIyOC43NTIuNzUyLDAsMCwwLC4zMDUtLjYzNi44MTYuODE2LDAsMCwwLS4xMDgtLjQ0MSwxLDEsMCwwLDAtLjM2MS0uMzE3LDUuMDc4LDUuMDc4LDAsMCwwLS43NzEtLjMyOSwyLjQ1OSwyLjQ1OSwwLDAsMS0xLjAzMy0uNjEzLDEuMzUzLDEuMzUzLDAsMCwxLS4zMS0uOTI1LDEuMTUxLDEuMTUxLDAsMCwxLC40NS0uOTUzLDEuODcyLDEuODcyLDAsMCwxLDEuMTktLjM1NCwzLjUxNywzLjUxNywwLDAsMSwxLjQyMS4yODNsLS4xODguNTI1YTMuMiwzLjIsMCwwLDAtMS4yNDctLjI2OSwxLjIwOSwxLjIwOSwwLDAsMC0uNzQ4LjIwNS42NzcuNjc3LDAsMCwwLS4yNjkuNTcxLjg3Ni44NzYsMCwwLDAsLjEuNDQxLjkzLjkzLDAsMCwwLC4zMzQuMzE1LDQuMTcxLDQuMTcxLDAsMCwwLC43MjEuMzE3LDIuODU5LDIuODU5LDAsMCwxLDEuMTIyLjYyNEExLjIyOSwxLjIyOSwwLDAsMSwyNTE3LjE0NSw0MDkuMTRaIiB0cmFuc2Zvcm09InRyYW5zbGF0ZSgtMjUxMy44ODUgLTQwNS4wMDUpIi8+CiAgICAgICAgICAgICAgICAgICAgICAgICAgICAgICAgICAgIDxwYXRoIGNsYXNzPSJsb2dvLXRleHQiIGQ9Ik0yNTI0LjY1OCw0MDguNTI2djIuNTE5YTEuMDEzLDEuMDEzLDAsMCwwLC4yMTcuNzA5Ljg3OS44NzksMCwwLDAsLjY3Ny4yMzMsMS4xLDEuMSwwLDAsMCwuODkxLS4zMzMsMS42ODIsMS42ODIsMCwwLDAsLjI4MS0xLjA4OHYtMi4wNDFoLjU4OHYzLjg4M2gtLjQ4NWwtLjA4NS0uNTIxaC0uMDMyYTEuMTY5LDEuMTY5LDAsMCwxLS41LjQzOSwxLjY4NSwxLjY4NSwwLDAsMS0uNzMxLjE1MiwxLjQ4MywxLjQ4MywwLDAsMS0xLjA2MS0uMzM2LDEuNDMyLDEuNDMyLDAsMCwxLS4zNTMtMS4wNzd2LTIuNTRaIiB0cmFuc2Zvcm09InRyYW5zbGF0ZSgtMjUxOS43ODMgLTQwNi44OTYpIi8+CiAgICAgICAgICAgICAgICAgICAgICAgICAgICAgICAgICAgIDxwYXRoIGNsYXNzPSJsb2dvLXRleHQiIGQ9Ik0yNTM2Ljc0OCw0MTIuMzgyYTEuNjc5LDEuNjc5LDAsMCwxLS42OTItLjE0LDEuMywxLjMsMCwwLDEtLjUyNi0uNDNoLS4wNDJhNS4yMSw1LjIxLDAsMCwxLC4wNDIuNjQ1djEuNmgtLjU4OHYtNS42MjdoLjQ3OGwuMDgyLjUzMmguMDI4YTEuMzY4LDEuMzY4LDAsMCwxLC41MjgtLjQ2MSwxLjYsMS42LDAsMCwxLC42OTEtLjE0MiwxLjQzNSwxLjQzNSwwLDAsMSwxLjE5Mi41MjgsMi44MTIsMi44MTIsMCwwLDEtLjAwNywyLjk2OEExLjQ0LDEuNDQsMCwwLDEsMjUzNi43NDgsNDEyLjM4MlptLS4wODUtMy41MjVhMS4wNDMsMS4wNDMsMCwwLDAtLjg2MS4zMjksMS42OTMsMS42OTMsMCwwLDAtLjI3MywxLjA0OXYuMTMxYTEuOTQzLDEuOTQzLDAsMCwwLC4yNzMsMS4xNzEsMS4wMzksMS4wMzksMCwwLDAsLjg3NS4zNTIuOTA5LjkwOSwwLDAsMCwuNzg5LS40MDcsMS45MjksMS45MjksMCwwLDAsLjI4NS0xLjEyMywxLjg1OSwxLjg1OSwwLDAsMC0uMjg1LTEuMTE1QS45MzguOTM4LDAsMCwwLDI1MzYuNjYzLDQwOC44NTdaIiB0cmFuc2Zvcm09InRyYW5zbGF0ZSgtMjUyNi4wODcgLTQwNi43OTgpIi8+CiAgICAgICAgICAgICAgICAgICAgICAgICAgICAgICAgICAgIDxwYXRoIGNsYXNzPSJsb2dvLXRleHQiIGQ9Ik0yNTQ3LjU4MSw0MTIuMzgyYTEuNjc3LDEuNjc3LDAsMCwxLS42OTItLjE0LDEuMywxLjMsMCwwLDEtLjUyNy0uNDNoLS4wNDJhNS4xNjMsNS4xNjMsMCwwLDEsLjA0Mi42NDV2MS42aC0uNTg4di01LjYyN2guNDc4bC4wODIuNTMyaC4wMjhhMS4zNjgsMS4zNjgsMCwwLDEsLjUyOC0uNDYxLDEuNiwxLjYsMCwwLDEsLjY5MS0uMTQyLDEuNDM1LDEuNDM1LDAsMCwxLDEuMTkzLjUyOCwyLjgxMiwyLjgxMiwwLDAsMS0uMDA3LDIuOTY4QTEuNDQsMS40NCwwLDAsMSwyNTQ3LjU4MSw0MTIuMzgyWm0tLjA4NS0zLjUyNWExLjA0MywxLjA0MywwLDAsMC0uODYxLjMyOSwxLjcsMS43LDAsMCwwLS4yNzMsMS4wNDl2LjEzMWExLjk0NSwxLjk0NSwwLDAsMCwuMjczLDEuMTcxLDEuMDM5LDEuMDM5LDAsMCwwLC44NzUuMzUyLjkwOS45MDksMCwwLDAsLjc4OC0uNDA3LDEuOTI5LDEuOTI5LDAsMCwwLC4yODUtMS4xMjMsMS44NTksMS44NTksMCwwLDAtLjI4NS0xLjExNUEuOTM4LjkzOCwwLDAsMCwyNTQ3LjUsNDA4Ljg1N1oiIHRyYW5zZm9ybT0idHJhbnNsYXRlKC0yNTMyLjM2NiAtNDA2Ljc5OCkiLz4KICAgICAgICAgICAgICAgICAgICAgICAgICAgICAgICAgICAgPHBhdGggY2xhc3M9ImxvZ28tdGV4dCIgZD0iTTI1NTkuNzI3LDQxMC4zNjZhMi4xNDIsMi4xNDIsMCwwLDEtLjQ3OCwxLjQ4MywxLjY4NiwxLjY4NiwwLDAsMS0xLjMyMi41MzMsMS43NDcsMS43NDcsMCwwLDEtLjkyNS0uMjQ1LDEuNjEsMS42MSwwLDAsMS0uNjI0LS43LDIuNDQyLDIuNDQyLDAsMCwxLS4yMTktMS4wNywyLjE0LDIuMTQsMCwwLDEsLjQ3NC0xLjQ3OSwxLjY4LDEuNjgsMCwwLDEsMS4zMTktLjUzLDEuNjQ1LDEuNjQ1LDAsMCwxLDEuMy41NDJBMi4xMzQsMi4xMzQsMCwwLDEsMjU1OS43MjcsNDEwLjM2NlptLTIuOTU4LDBhMS44NDcsMS44NDcsMCwwLDAsLjMsMS4xMzQsMS4xODMsMS4xODMsMCwwLDAsMS43NTIsMCwxLjgzNSwxLjgzNSwwLDAsMCwuMy0xLjEzNiwxLjgsMS44LDAsMCwwLS4zLTEuMTI1LDEuMDUsMS4wNSwwLDAsMC0uODg0LS4zODQsMS4wMzQsMS4wMzQsMCwwLDAtLjg3MS4zNzlBMS44MiwxLjgyLDAsMCwwLDI1NTYuNzY4LDQxMC4zNjZaIiB0cmFuc2Zvcm09InRyYW5zbGF0ZSgtMjUzOC4zODQgLTQwNi43OTgpIi8+CiAgICAgICAgICAgICAgICAgICAgICAgICAgICAgICAgICAgIDxwYXRoIGNsYXNzPSJsb2dvLXRleHQiIGQ9Ik0yNTY5LjExNSw0MDguMzU3YTIuMzE0LDIuMzE0LDAsMCwxLC40NjQuMDQybC0uMDgyLjU0NmEyLjAxMSwyLjAxMSwwLDAsMC0uNDI1LS4wNTMsMS4wMzYsMS4wMzYsMCwwLDAtLjgwNi4zODMsMS40LDEuNCwwLDAsMC0uMzM1Ljk1M3YyLjA4M2gtLjU4OHYtMy44ODNoLjQ4NWwuMDY3LjcxOWguMDI4YTEuNzA5LDEuNzA5LDAsMCwxLC41MjEtLjU4NUExLjE3MSwxLjE3MSwwLDAsMSwyNTY5LjExNSw0MDguMzU3WiIgdHJhbnNmb3JtPSJ0cmFuc2xhdGUoLTI1NDQuODY2IC00MDYuNzk4KSIvPgogICAgICAgICAgICAgICAgICAgICAgICAgICAgICAgICAgICA8cGF0aCBjbGFzcz0ibG9nby10ZXh0IiBkPSJNMjU3NS45NTgsNDEwLjc1NGExLjksMS45LDAsMCwwLC4zLS4wMjMsMi4wMzIsMi4wMzIsMCwwLDAsLjIzLS4wNDh2LjQ0OWExLjA0NCwxLjA0NCwwLDAsMS0uMjgxLjA3NiwyLjA1MywyLjA1MywwLDAsMS0uMzM1LjAzcS0xLjEyNywwLTEuMTI3LTEuMTg3di0yLjMxMWgtLjU1NnYtLjI4NGwuNTU2LS4yNDQuMjQ4LS44MjloLjM0di45aDEuMTI3di40NTdoLTEuMTI3djIuMjg2YS43ODUuNzg1LDAsMCwwLC4xNjYuNTM4QS41NzguNTc4LDAsMCwwLDI1NzUuOTU4LDQxMC43NTRaIiB0cmFuc2Zvcm09InRyYW5zbGF0ZSgtMjU0OC44MzMgLTQwNS42NTUpIi8+CiAgICAgICAgICAgICAgICAgICAgICAgICAgICAgICAgICAgIDxwYXRoIGNsYXNzPSJsb2dvLXRleHQiIGQ9Ik0yNTgzLjAxMiw0MTIuMzgyYTEuNzg0LDEuNzg0LDAsMCwxLTEuMzU5LS41MjQsMi4wMjksMi4wMjksMCwwLDEtLjUtMS40NTYsMi4yNSwyLjI1LDAsMCwxLC40NjItMS40OTEsMS41MzYsMS41MzYsMCwwLDEsMS4yNDItLjU1MywxLjQ2NCwxLjQ2NCwwLDAsMSwxLjE1NS40OCwxLjg0LDEuODQsMCwwLDEsLjQyNSwxLjI2N3YuMzcyaC0yLjY3NWExLjU0LDEuNTQsMCwwLDAsLjM0NiwxLjAzOCwxLjIsMS4yLDAsMCwwLC45MjMuMzU0LDMuMTI1LDMuMTI1LDAsMCwwLDEuMjQtLjI2MnYuNTI1YTMuMTMsMy4xMywwLDAsMS0uNTkuMTkzQTMuMzcxLDMuMzcxLDAsMCwxLDI1ODMuMDEyLDQxMi4zODJabS0uMTU5LTMuNTMzYS45NTkuOTU5LDAsMCwwLS43NDYuMzA1LDEuNCwxLjQsMCwwLDAtLjMyOC44NDNoMi4wM2ExLjI5MiwxLjI5MiwwLDAsMC0uMjQ4LS44NTJBLjg3My44NzMsMCwwLDAsMjU4Mi44NTIsNDA4Ljg0OVoiIHRyYW5zZm9ybT0idHJhbnNsYXRlKC0yNTUyLjg3IC00MDYuNzk4KSIvPgogICAgICAgICAgICAgICAgICAgICAgICAgICAgICAgICAgICA8cGF0aCBjbGFzcz0ibG9nby10ZXh0IiBkPSJNMjU5NC4wNDIsNDA5LjY0MmgtLjAzMmExLjM4MSwxLjM4MSwwLDAsMS0xLjIxOS41OTIsMS40NDEsMS40NDEsMCwwLDEtMS4xODUtLjUyMSwyLjI5MiwyLjI5MiwwLDAsMS0uNDIzLTEuNDgxLDIuMzI5LDIuMzI5LDAsMCwxLC40MjUtMS40OTEsMS40MjksMS40MjksMCwwLDEsMS4xODMtLjUzMiwxLjQxNCwxLjQxNCwwLDAsMSwxLjIxMy41NzRoLjA0NmwtLjAyNS0uMjgtLjAxNC0uMjczdi0xLjU4MWguNTg4djUuNTE0aC0uNDc5Wm0tMS4xNzYuMWExLjA3LDEuMDcsMCwwLDAsLjg3NC0uMzI4LDEuNjU1LDEuNjU1LDAsMCwwLC4yNzEtMS4wNTd2LS4xMjRhMS45NSwxLjk1LDAsMCwwLS4yNzQtMS4xNzgsMS4wNDIsMS4wNDIsMCwwLDAtLjg3Ny0uMzUzLjkuOSwwLDAsMC0uNzkyLjQsMiwyLDAsMCwwLS4yNzQsMS4xMzYsMS45MTgsMS45MTgsMCwwLDAsLjI3MywxLjEyNEEuOTIzLjkyMywwLDAsMCwyNTkyLjg2Niw0MDkuNzRaIiB0cmFuc2Zvcm09InRyYW5zbGF0ZSgtMjU1OC42ODIgLTQwNC42NDkpIi8+CiAgICAgICAgICAgICAgICAgICAgICAgICAgICAgICAgICAgIDxwYXRoIGNsYXNzPSJsb2dvLXRleHQiIGQ9Ik0yNjA5LjI1Myw0MDYuMjE1YTEuNDQzLDEuNDQzLDAsMCwxLDEuMTg5LjUyMywyLjgsMi44LDAsMCwxLDAsMi45NjYsMS40MzcsMS40MzcsMCwwLDEtMS4xODUuNTI5LDEuNjgsMS42OCwwLDAsMS0uNjkzLS4xNCwxLjMsMS4zLDAsMCwxLS41MjYtLjQzaC0uMDQybC0uMTI0LjVoLS40MjJ2LTUuNTE0aC41ODh2MS4zNGMwLC4zLS4wMDkuNTY5LS4wMjkuODA4aC4wMjlBMS40LDEuNCwwLDAsMSwyNjA5LjI1Myw0MDYuMjE1Wm0tLjA4NS40OTNhMS4wMjUsMS4wMjUsMCwwLDAtLjg2OC4zNDYsMi42NjQsMi42NjQsMCwwLDAsLjAwNywyLjMzNSwxLjAzOCwxLjAzOCwwLDAsMCwuODc1LjM1Mi45MDYuOTA2LDAsMCwwLC44MDgtLjM5NSwyLjAyNiwyLjAyNiwwLDAsMCwuMjY2LTEuMTM1LDEuOTUsMS45NSwwLDAsMC0uMjY2LTEuMTMxQS45NDIuOTQyLDAsMCwwLDI2MDkuMTY4LDQwNi43MDhaIiB0cmFuc2Zvcm09InRyYW5zbGF0ZSgtMjU2OC4xMDcgLTQwNC42NDkpIi8+CiAgICAgICAgICAgICAgICAgICAgICAgICAgICAgICAgICAgIDxwYXRoIGNsYXNzPSJsb2dvLXRleHQiIGQ9Ik0yNjE2Ljc5LDQwOC41MjZoLjYzMWwuODUxLDIuMjE1YTguNDgzLDguNDgzLDAsMCwxLC4zNDcsMS4wOTVoLjAyOHEuMDQ2LS4xODEuMTkzLS42MTh0Ljk2Mi0yLjY5MWguNjMxbC0xLjY2OSw0LjQyMmEyLjIsMi4yLDAsMCwxLS41NzkuOTMsMS4yMzIsMS4yMzIsMCwwLDEtLjgxMy4yNzUsMi4zNTgsMi4zNTgsMCwwLDEtLjUzMS0uMDYxdi0uNDcxYTIuMDA2LDIuMDA2LDAsMCwwLC40MzYuMDQzLjkuOSwwLDAsMCwuODY1LS42OGwuMjE2LS41NTNaIiB0cmFuc2Zvcm09InRyYW5zbGF0ZSgtMjU3My41MjIgLTQwNi44OTYpIi8+CiAgICAgICAgICAgICAgICAgICAgICAgICAgICAgICAgPC9nPgogICAgICAgICAgICAgICAgICAgICAgICAgICAgPC9nPgogICAgICAgICAgICAgICAgICAgICAgICA8L2c+CiAgICAgICAgICAgICAgICAgICAgICAgIDxnIHRyYW5zZm9ybT0idHJhbnNsYXRlKDI0NDMuODIxIDMxMi43MDUpIj4KICAgICAgICAgICAgICAgICAgICAgICAgICAgIDxnIHRyYW5zZm9ybT0idHJhbnNsYXRlKDApIj4KICAgICAgICAgICAgICAgICAgICAgICAgICAgICAgICA8cGF0aCBjbGFzcz0ibG9nby10ZXh0IiBkPSJNMjUyNS4yNzQsMzMxLjQ2MmE2LjY3Myw2LjY3MywwLDAsMC01LjMxMiwyLjI0MSw5LjAzNyw5LjAzNywwLDAsMC0xLjk0OCw2LjEzNiw5LjIxOCw5LjIxOCwwLDAsMCwxLjg3OCw2LjE5MSw2LjY3NSw2LjY3NSwwLDAsMCw1LjM1NCwyLjE4NSwxOC4yNywxOC4yNywwLDAsMCw0Ljg3Mi0uNzY4djIuMDgxYTE1LjAwOSwxNS4wMDksMCwwLDEtNS4yMzUuOCw4Ljg1Nyw4Ljg1NywwLDAsMS02Ljk1OS0yLjczNnEtMi40NS0yLjczNi0yLjQ1LTcuNzc2YTEyLjI2OCwxMi4yNjgsMCwwLDEsMS4xOC01LjUyOCw4LjQ3MSw4LjQ3MSwwLDAsMSwzLjQwNi0zLjY1OCwxMC4zMTUsMTAuMzE1LDAsMCwxLDUuMjQyLTEuMjg0LDEyLjY1LDEyLjY1LDAsMCwxLDUuNjEzLDEuMTczbC0xLjAwNSwyLjAzOEExMC44MTYsMTAuODE2LDAsMCwwLDI1MjUuMjc0LDMzMS40NjJaIiB0cmFuc2Zvcm09InRyYW5zbGF0ZSgtMjUxNS40NzMgLTMyOC4zMjEpIi8+CiAgICAgICAgICAgICAgICAgICAgICAgICAgICAgICAgPHBhdGggY2xhc3M9ImxvZ28tdGV4dCIgZD0iTTI1NTguNzA4LDM0Mi4xODl2OS45MjdhMy45OTEsMy45OTEsMCwwLDAsLjg1MiwyLjc5MiwzLjQ2OSwzLjQ2OSwwLDAsMCwyLjY2Ny45MjIsNC4zNDksNC4zNDksMCwwLDAsMy41MTEtMS4zMTIsNi42MTgsNi42MTgsMCwwLDAsMS4xMS00LjI4NnYtOC4wNDJoMi4zMTd2MTUuM2gtMS45MTNsLS4zMzUtMi4wNTJoLS4xMjVhNC42MTcsNC42MTcsMCwwLDEtMS45NzYsMS43MzEsNi42MzgsNi42MzgsMCwwLDEtMi44ODMuNiw1Ljg0OCw1Ljg0OCwwLDAsMS00LjE4MS0xLjMyNiw1LjY0NSw1LjY0NSwwLDAsMS0xLjM4OS00LjI0NHYtMTAuMDFaIiB0cmFuc2Zvcm09InRyYW5zbGF0ZSgtMjUzOS4xNyAtMzM1Ljc2NykiLz4KICAgICAgICAgICAgICAgICAgICAgICAgICAgICAgICA8cGF0aCBjbGFzcz0ibG9nby10ZXh0IiBkPSJNMjYwMC45LDM1Ny4zODVhNi41MzEsNi41MzEsMCwwLDEtNS4xNDUtMi4wNDUsOC40MTIsOC40MTIsMCwwLDEtMS44MjItNS43ODcsOC42Nyw4LjY3LDAsMCwxLDEuODUtNS45MzMsNi42NTksNi42NTksMCwwLDEsNS4yNy0yLjA5NCwxMC40NzIsMTAuNDcyLDAsMCwxLDIuMjA2LjIzOCw3LjI4Niw3LjI4NiwwLDAsMSwxLjczMS41NThsLS43MTIsMS45NjlhMTAuOTE1LDEwLjkxNSwwLDAsMC0xLjY3Ni0uNTEsNy40NTYsNy40NTYsMCwwLDAtMS42LS4ycS00LjY2NCwwLTQuNjYzLDUuOTQ4YTcuMDgxLDcuMDgxLDAsMCwwLDEuMTM3LDQuMzI4LDMuOTYsMy45NiwwLDAsMCwzLjM3MiwxLjUwOCwxMC4zMTEsMTAuMzExLDAsMCwwLDMuOTIzLS44MjR2Mi4wNTJBOC4zNjgsOC4zNjgsMCwwLDEsMjYwMC45LDM1Ny4zODVaIiB0cmFuc2Zvcm09InRyYW5zbGF0ZSgtMjU2MC45NDQgLTMzNS4zODIpIi8+CiAgICAgICAgICAgICAgICAgICAgICAgICAgICAgICAgPHBhdGggY2xhc3M9ImxvZ28tdGV4dCIgZD0iTTI2MjguMDEsMzQyLjE4OXY5LjkyN2EzLjk5MSwzLjk5MSwwLDAsMCwuODUyLDIuNzkyLDMuNDY3LDMuNDY3LDAsMCwwLDIuNjY2LjkyMiw0LjM1LDQuMzUsMCwwLDAsMy41MTEtMS4zMTIsNi42MTgsNi42MTgsMCwwLDAsMS4xMS00LjI4NnYtOC4wNDJoMi4zMTd2MTUuM2gtMS45MTNsLS4zMzUtMi4wNTJoLS4xMjVhNC42MTcsNC42MTcsMCwwLDEtMS45NzYsMS43MzEsNi42MzcsNi42MzcsMCwwLDEtMi44ODIuNiw1Ljg0OSw1Ljg0OSwwLDAsMS00LjE4Mi0xLjMyNiw1LjY0Myw1LjY0MywwLDAsMS0xLjM4OS00LjI0NHYtMTAuMDFaIiB0cmFuc2Zvcm09InRyYW5zbGF0ZSgtMjU3OS4zMzIgLTMzNS43NjcpIi8+CiAgICAgICAgICAgICAgICAgICAgICAgICAgICAgICAgPHBhdGggY2xhc3M9ImxvZ28tdGV4dCIgZD0iTTI2ODQuNTIxLDM1Ny4xMDV2LTkuOTU0YTQuMTMzLDQuMTMzLDAsMCwwLS43ODItMi43NDMsMy4wMjUsMy4wMjUsMCwwLDAtMi40MjktLjkxNSwzLjkyLDMuOTIsMCwwLDAtMy4yLDEuMjQyLDUuOTA1LDUuOTA1LDAsMCwwLTEuMDMzLDMuODI1djguNTQ0aC0yLjMxOHYtOS45NTRhNC4xMzUsNC4xMzUsMCwwLDAtLjc4MS0yLjc0MywzLjA0NCwzLjA0NCwwLDAsMC0yLjQ0My0uOTE1LDMuNzg1LDMuNzg1LDAsMCwwLTMuMTksMS4zMDUsNy4wNjUsNy4wNjUsMCwwLDAtMS4wMTIsNC4yNzl2OC4wMjhoLTIuMzE4VjM0MS44aDEuODg1bC4zNzYsMi4wOTRoLjExMmE0LjU1Niw0LjU1NiwwLDAsMSwxLjg1LTEuNzQ1LDUuNjUzLDUuNjUzLDAsMCwxLDIuNjc0LS42MjhxMy41ODgsMCw0LjY5MSwyLjZoLjExMWE0Ljg4OSw0Ljg4OSwwLDAsMSwxLjk4My0xLjksNi4xNTYsNi4xNTYsMCwwLDEsMi45Ni0uNyw1LjE4MSw1LjE4MSwwLDAsMSwzLjg4OCwxLjMzMyw1Ljk2Niw1Ljk2NiwwLDAsMSwxLjI5Miw0LjI2NXY5Ljk4MloiIHRyYW5zZm9ybT0idHJhbnNsYXRlKC0yNjAyLjEzOCAtMzM1LjM4MikiLz4KICAgICAgICAgICAgICAgICAgICAgICAgICAgICAgICA8cGF0aCBjbGFzcz0ibG9nby10ZXh0IiBkPSJNMjczMi43NTcsMzMzLjA4N2E1LjY5LDUuNjksMCwwLDEsNC42ODQsMi4wNTksMTEuMDI2LDExLjAyNiwwLDAsMS0uMDE0LDExLjY4NSw1LjY2NSw1LjY2NSwwLDAsMS00LjY3LDIuMDg3LDYuNjIzLDYuNjIzLDAsMCwxLTIuNzI5LS41NTEsNS4xMyw1LjEzLDAsMCwxLTIuMDczLTEuN2gtLjE2N2wtLjQ4OSwxLjk2OWgtMS42NjFWMzI2LjkxNmgyLjMxN3Y1LjI3N3EwLDEuNzczLS4xMTIsMy4xODNoLjExMkE1LjUsNS41LDAsMCwxLDI3MzIuNzU3LDMzMy4wODdabS0uMzM1LDEuOTRhNC4wNDYsNC4wNDYsMCwwLDAtMy40MjEsMS4zNjFxLTEuMDQ3LDEuMzYxLTEuMDQ3LDQuNTg2dDEuMDc1LDQuNjE0YTQuMDg5LDQuMDg5LDAsMCwwLDMuNDQ4LDEuMzg5LDMuNTc1LDMuNTc1LDAsMCwwLDMuMTgzLTEuNTU3LDgsOCwwLDAsMCwxLjA0Ny00LjQ3NSw3LjY5Myw3LjY5MywwLDAsMC0xLjA0Ny00LjQ1NEEzLjcxMSwzLjcxMSwwLDAsMCwyNzMyLjQyMiwzMzUuMDI3WiIgdHJhbnNmb3JtPSJ0cmFuc2xhdGUoLTI2MzcuMjY5IC0zMjYuOTE2KSIvPgogICAgICAgICAgICAgICAgICAgICAgICAgICAgICAgIDxwYXRoIGNsYXNzPSJsb2dvLXRleHQiIGQ9Ik0yNzcwLjQwOCwzNTcuMzg1YTcuMDMxLDcuMDMxLDAsMCwxLTUuMzU0LTIuMDY2LDgsOCwwLDAsMS0xLjk2MS01LjczOCw4Ljg3NCw4Ljg3NCwwLDAsMSwxLjgyMi01Ljg3OCw2LjA1Myw2LjA1MywwLDAsMSw0Ljg5My0yLjE3OCw1Ljc3LDUuNzcsMCwwLDEsNC41NTEsMS44OTIsNy4yNDcsNy4yNDcsMCwwLDEsMS42NzYsNC45OTF2MS40NjZoLTEwLjU0MWE2LjA2Niw2LjA2NiwwLDAsMCwxLjM2MSw0LjA5LDQuNzA3LDQuNzA3LDAsMCwwLDMuNjM3LDEuNCwxMi4zMjYsMTIuMzI2LDAsMCwwLDQuODg2LTEuMDMzdjIuMDY2YTEyLjI2NywxMi4yNjcsMCwwLDEtMi4zMjQuNzYxQTEzLjA3MywxMy4wNzMsMCwwLDEsMjc3MC40MDgsMzU3LjM4NVptLS42MjgtMTMuOTE5YTMuNzg3LDMuNzg3LDAsMCwwLTIuOTM5LDEuMiw1LjUzNyw1LjUzNywwLDAsMC0xLjI5MiwzLjMyM2g4YTUuMSw1LjEsMCwwLDAtLjk3OC0zLjM1N0EzLjQzOCwzLjQzOCwwLDAsMCwyNzY5Ljc4LDM0My40NjZaIiB0cmFuc2Zvcm09InRyYW5zbGF0ZSgtMjY1OC45NzYgLTMzNS4zODIpIi8+CiAgICAgICAgICAgICAgICAgICAgICAgICAgICAgICAgPHBhdGggY2xhc3M9ImxvZ28tdGV4dCIgZD0iTTI4MDcuNzczLDM0MS41MjVhOS4wNjIsOS4wNjIsMCwwLDEsMS44MjkuMTY4bC0uMzIxLDIuMTVhNy45LDcuOSwwLDAsMC0xLjY3NS0uMjA5LDQuMDc3LDQuMDc3LDAsMCwwLTMuMTc2LDEuNTA4LDUuNSw1LjUsMCwwLDAtMS4zMiwzLjc1NnY4LjIwOWgtMi4zMTdWMzQxLjhoMS45MTJsLjI2NSwyLjgzNGguMTEyYTYuNzEzLDYuNzEzLDAsMCwxLDIuMDUyLTIuM0E0LjYyMSw0LjYyMSwwLDAsMSwyODA3Ljc3MywzNDEuNTI1WiIgdHJhbnNmb3JtPSJ0cmFuc2xhdGUoLTI2ODAuODI0IC0zMzUuMzgyKSIvPgogICAgICAgICAgICAgICAgICAgICAgICAgICAgPC9nPgogICAgICAgICAgICAgICAgICAgICAgICA8L2c+CiAgICAgICAgICAgICAgICAgICAgICAgIDxnIHRyYW5zZm9ybT0idHJhbnNsYXRlKDIzOTMuMDY4IDMwMi41MikiPgogICAgICAgICAgICAgICAgICAgICAgICAgICAgPHBhdGggY2xhc3M9ImIiIGQ9Ik0yNDI0LjgsMzA3LjYxNHEtLjUyOC0uMzE3LTEuMDgtLjU5M2MtLjM3Ni0uMTg0LS43NjItLjM2My0xLjE1NC0uNTE4LS4xMjQtLjA1Mi0uMjQ3LS4xLS4zNzItLjE0OS0uMzQzLS4xMjctLjY4OS0uMjY4LTEuMDQyLS4zNzFhMTkuNDI3LDE5LjQyNywwLDEsMC05Ljc5MiwzNy41MXY1LjU2YzExLjY3Ni0xLjc1MywyMi4wMTYtMTAuOTc5LDIyLjc4Ny0yMy4wOTNDMjQzNC42MDYsMzE4LjY3MSwyNDMwLjk1NCwzMTEuMjMsMjQyNC44LDMwNy42MTRaIiB0cmFuc2Zvcm09InRyYW5zbGF0ZSgtMjM5NC41MTcgLTMwMy45NjkpIi8+CiAgICAgICAgICAgICAgICAgICAgICAgICAgICA8cGF0aCBjbGFzcz0iYyIgZD0iTTI0MDguODU1LDM0OC44Mjd2LTUuOTM1YTIwLjQ3MiwyMC40NzIsMCwxLDEsMTEuMTcyLTM5LjM1N2MuMjc0LjA4LjU1Ny4xODcuODMyLjI5MWwuMjQ4LjA5M2MuMTY1LjA2NC4yOTEuMTEzLjQxNy4xNjcuMzQ4LjEzNy43MzkuMzEzLDEuMjA4LjU0M3EuNTg5LjI5NSwxLjE1My42MzNjNi4zOTMsMy43NTYsMTAuMzU0LDExLjUxOCw5Ljg1NywxOS4zMTYtLjc2MywxMi0xMC43MjIsMjIuMTIyLTIzLjY3OSwyNC4wNjdabTQuOC00NC4yMTRoLS4wMjZhMTguMzY2LDE4LjM2NiwwLDAsMC0zLjUyNCwzNi40MDhsLjg1LjE2NXY1LjE4YzExLjM5Mi0yLjIyNCwyMC4wMDktMTEuMjcyLDIwLjY4Ni0yMS45MjIuNDQ4LTcuMDMzLTMuMS0xNC4wMTgtOC44My0xNy4zODNsLS4wMDgtLjAwNWMtLjMzMS0uMi0uNjcxLS4zODUtMS4wMS0uNTU1LS40MDktLjItLjc1Mi0uMzU1LTEuMDcxLS40ODEtLjEyOS0uMDU1LS4yMzYtLjEtLjM0NC0uMTM4bC0uMjctLjFjLS4yNDctLjA5NC0uNDgxLS4xODMtLjcwOC0uMjQ5QTE4LjQyNSwxOC40MjUsMCwwLDAsMjQxMy42NTcsMzA0LjYxM1oiIHRyYW5zZm9ybT0idHJhbnNsYXRlKC0yMzkzLjA2OCAtMzAyLjUyKSIvPgogICAgICAgICAgICAgICAgICAgICAgICAgICAgPHBhdGggY2xhc3M9ImQiIGQ9Ik0yNDIzLjg2MywzMjcuNjE0YTEuOCwxLjgsMCwwLDEsMS41ODMuNjA4LDQuMTg0LDQuMTg0LDAsMCwxLC43MjgsMS4xMDdjLjY0NSwxLjQyMiwxLjAyNywzLjQ2MS4yMyw0LjYwNWE2LjMzNCw2LjMzNCwwLDAsMS0zLjk4MS0zLjA4NywzLjIzNiwzLjIzNiwwLDAsMS0uMzQ3LTEuMzM5QTEuOTU3LDEuOTU3LDAsMCwxLDI0MjMuODYzLDMyNy42MTRabS01LjY4Myw4LjAyNWE3Ljc0Miw3Ljc0MiwwLDAsMCwxLjIxOC43MzcsNS43ODksNS43ODksMCwwLDAsNC44ODMtLjEzOCw2LjExNiw2LjExNiwwLDAsMC0zLjM0NS0zLjQ1LDMuNjY0LDMuNjY0LDAsMCwwLTEuNDQyLS4zMjEsMS44ODQsMS44ODQsMCwwLDAtLjMxOSwwQTEuNzY2LDEuNzY2LDAsMCwwLDI0MTguMTgsMzM1LjYzOVptNi4xLDMuNDMzYy0uNzc3LS41MTgtMi4zNzktLjMwOS0zLjMxMi0uMjkyYTQuNDE2LDQuNDE2LDAsMCwwLTEuNjY2LjM1MiwzLjUsMy41LDAsMCwwLTEuMjE4LjczOCwxLjgxNywxLjgxNywwLDAsMCwxLjQwOSwzLjE3MSwzLjMsMy4zLDAsMCwwLDEuNDQyLS4zMjFDMjQyMi4zNzEsMzQyLjEsMjQyNC4wNzYsMzQwLjQsMjQyNC4yODEsMzM5LjA3MlptMi42MSwyYTYuNTU2LDYuNTU2LDAsMCwwLTMuNzI0LDMuNTA2LDMuMDkxLDMuMDkxLDAsMCwwLS4zMjEsMS4zMTQsMS45MDcsMS45MDcsMCwwLDAsMy4zLDEuMzQ2LDcuNDIyLDcuNDIyLDAsMCwwLC43LTEuMjE4QzI0MjcuNDY2LDM0NC42ODcsMjQyNy43MTEsMzQyLjMsMjQyNi44OTEsMzQxLjA3MlptMi41NTctNy4xNjdhNS45NDEsNS45NDEsMCwwLDAsMy43LTMuMTY3LDMuMjQzLDMuMjQzLDAsMCwwLC4zMTktMS4zNDYsMS45MTUsMS45MTUsMCwwLDAtMS43OTQtMS45NTQsMS44MzIsMS44MzIsMCwwLDAtMS42LjY0MSw3LjM4Miw3LjM4MiwwLDAsMC0uNzA1LDEuMjE4QzI0MjguNzQ3LDMzMC43MzEsMjQyOC41MjUsMzMyLjc3NywyNDI5LjQ0OCwzMzMuOVptNC4yMDgsMTIuMTE1YTMuMjQ0LDMuMjQ0LDAsMCwwLS4zMjEtMS4zNDUsNS44NjksNS44NjksMCwwLDAtMy41NTQtMy4yNjksNS4zODYsNS4zODYsMCwwLDAtLjIyNiw0LjcxMSw0LjE0Nyw0LjE0NywwLDAsMCwuNywxLjEyMUMyNDMxLjM4NywzNDguNDY4LDI0MzMuNzU5LDM0Ny41NTgsMjQzMy42NTYsMzQ2LjAyWm00LjItNi4yOGE3LjQ2Niw3LjQ2NiwwLDAsMC0xLjIxNy0uNyw0LjQyNSw0LjQyNSwwLDAsMC0xLjY2Ni0uMzUyLDYuNCw2LjQsMCwwLDAtMy4xODguNTU1LDUuOTU5LDUuOTU5LDAsMCwwLDMuMzE2LDMuMzg2LDMuNjcyLDMuNjcyLDAsMCwwLDEuNDQyLjMyQTEuOCwxLjgsMCwwLDAsMjQzNy44NTIsMzM5Ljc0WiIgdHJhbnNmb3JtPSJ0cmFuc2xhdGUoLTI0MDcuMTk3IC0zMTcuMDM0KSIvPgogICAgICAgICAgICAgICAgICAgICAgICA8L2c+CiAgICAgICAgICAgICAgICAgICAgPC9nPgogICAgICAgICAgICAgICAgPC9zdmc+;" vertex="1" parent="DSFdceFmaKd0g0XFRlf6-22">
                    <mxGeometry x="250" y="154.75" width="114.2" height="35.25" as="geometry"/>
                </mxCell>
                <mxCell id="16" value="" style="shape=image;verticalLabelPosition=bottom;labelBackgroundColor=#ffffff;verticalAlign=top;aspect=fixed;imageAspect=0;image=data:image/svg+xml,PHN2ZyB4bWxucz0iaHR0cDovL3d3dy53My5vcmcvMjAwMC9zdmciIHZpZXdCb3g9IjAgMCAzNiAzNiIgZmlsbD0iY3VycmVudENvbG9yIiBmaWxsLXJ1bGU9ImV2ZW5vZGQiIGNsaXAtcnVsZT0iZXZlbm9kZCIgc3Ryb2tlLWxpbmVqb2luPSJyb3VuZCIgc3Ryb2tlLW1pdGVybGltaXQ9IjIiPgogIDxyZWN0IHdpZHRoPSIzNiIgaGVpZ2h0PSIzNiIgcng9IjgiIGZpbGw9IiNmZjEyMzEiLz4KICA8cGF0aCBkPSJNIDI5Ljk3IDI0LjEgdiA1Ljg3IGwgLTExLjUgLTExLjk5IEwgMjkuOTYgNiB2IDUuODYgbCAtNi4wOSA2LjEyIGwgNi4wOSA2LjEyIHoiIGZpbGw9IndoaXRlIi8+CiAgPHBhdGggZD0iTSAyNC4xIDI5Ljk3IGggNS44NyBMIDE3Ljk4IDE4LjQ2IEwgNiAyOS45NyBoIDUuODYgbCA2LjEyIC02LjA4IGwgNi4xMiA2LjA4IHogTSA2IDExLjg3IFYgNiBMIDE3LjQ5IDE4IEwgNiAyOS45NyB2IC01Ljg2IGwgNi4wOCAtNi4xMiBMIDYgMTEuODcgeiBNIDExLjg2IDYgSCA2IGwgMTEuOTggMTEuNSBMIDI5Ljk3IDYgSCAyNC4xIGwgLTYuMTIgNi4wOCBMIDExLjg2IDYgeiIgZmlsbD0id2hpdGUiLz4KPC9zdmc+;" vertex="1" parent="DSFdceFmaKd0g0XFRlf6-22">
                    <mxGeometry x="165.38" y="130" width="42.5" height="42.5" as="geometry"/>
                </mxCell>
                <UserObject label="Project" id="DSFdceFmaKd0g0XFRlf6-56">
                    <mxCell style="swimlane;startSize=23;fontFamily=Lucida Console;" parent="1" vertex="1">
                        <mxGeometry x="340" y="230" width="320" height="239.5" as="geometry"/>
                    </mxCell>
                </UserObject>
                <mxCell id="DSFdceFmaKd0g0XFRlf6-69" value="JS Environment" style="text;html=1;align=center;verticalAlign=middle;resizable=0;points=[];autosize=1;strokeColor=none;fillColor=none;fontFamily=Lucida Console;fontSize=10;" parent="DSFdceFmaKd0g0XFRlf6-56" vertex="1">
                    <mxGeometry x="15.8" y="92.5" width="100" height="20" as="geometry"/>
                </mxCell>
                <mxCell id="DSFdceFmaKd0g0XFRlf6-70" value="Service Containerization" style="text;html=1;align=center;verticalAlign=middle;resizable=0;points=[];autosize=1;strokeColor=none;fillColor=none;fontFamily=Lucida Console;fontSize=10;" parent="DSFdceFmaKd0g0XFRlf6-56" vertex="1">
                    <mxGeometry x="149.32999999999998" y="92.5" width="160" height="20" as="geometry"/>
                </mxCell>
                <mxCell id="DSFdceFmaKd0g0XFRlf6-71" value="Linting and Formating" style="text;html=1;align=center;verticalAlign=middle;resizable=0;points=[];autosize=1;strokeColor=none;fillColor=none;fontFamily=Lucida Console;fontSize=10;" parent="DSFdceFmaKd0g0XFRlf6-56" vertex="1">
                    <mxGeometry x="80" y="177" width="140" height="20" as="geometry"/>
                </mxCell>
                <mxCell id="23" value="" style="shape=image;verticalLabelPosition=bottom;labelBackgroundColor=#ffffff;verticalAlign=top;aspect=fixed;imageAspect=0;image=data:image/svg+xml,PHN2ZyB4bWxucz0iaHR0cDovL3d3dy53My5vcmcvMjAwMC9zdmciIHdpZHRoPSIxMjAiIGhlaWdodD0iNjAiIHZpZXdCb3g9IjAgMCAxMjAgNjAiPjxwYXRoIGQ9Ik0yMC4wNyAyNC40ODRsOC43NjctNS4wNmEuNzEuNzEgMCAwIDEgLjcwOSAwbDguNzY3IDUuMDZhLjcxLjcxIDAgMCAxIC4zNTUuNjE0VjM1LjIyYS43MS43MSAwIDAgMS0uMzU1LjYxNGwtOC43NjcgNS4wNmEuNzEuNzEgMCAwIDEtLjcwOSAwbC04Ljc2Ny01LjA2YS43MS43MSAwIDAgMS0uMzU1LS42MTRWMjUuMDk4YS43MS43MSAwIDAgMSAuMzU1LS42MTQiIGZpbGw9IiM4MDgwZjIiLz48cGF0aCBkPSJNNTEuOTg0IDI5LjA5NEw0MS41IDEwLjg3MmMtLjM4LS42Ni0xLjA4My0xLjE0NS0xLjg0NC0xLjE0NWgtMjAuOTVjLS43NiAwLTEuNDY0LjQ4Ni0xLjg0NSAxLjE0NUw2LjM5NyAyOS4wNTRhMi4xNyAyLjE3IDAgMCAwIDAgMi4xNUwxNi44NyA0OS4yNzhjLjM4LjY2IDEuMDg0Ljk5NiAxLjg0NS45OTZoMjAuOTVjLjc2IDAgMS40NjQtLjMyNyAxLjg0NC0uOTg2bDEwLjQ3NS0xOC4xMDNjLjM4LS42Ni4zOC0xLjQzIDAtMi4xTTQzLjMgMzcuODQ4YzAgLjI2OC0uMTYuNTE2LS4zOTQuNjVsLTEzLjM0MiA3LjY5OGEuNzYuNzYgMCAwIDEtLjc1NSAwbC0xMy4zNTMtNy42OThhLjc3Ljc3IDAgMCAxLS4zOTQtLjY1VjIyLjQ2YzAtLjI2OC4xNi0uNTE2LjM5Mi0uNjVsMTMuMzQyLTcuNjk4YS43Ni43NiAwIDAgMSAuNzU0IDBMNDIuOTE0IDIxLjhhLjc3Ljc3IDAgMCAxIC4zOTYuNjV6IiBmaWxsPSIjNGIzMmMzIi8+PHBhdGggZD0iTTU3LjUzNiAzNy40NFYyMy4wODRoOC4yNzN2MS41MzJoLTYuNDU2djQuNWg1LjQ1djEuNTU0aC01LjQ1djUuMmg2LjY3NXYxLjU1NHptMTUuNTI0LjI2NHEtMS41IDAtMi44LS41Ny0xLjMtLjU3LTIuMjMyLTEuNTU0bDEuMDk0LTEuMjdxLjc2Ni44IDEuNzk1IDEuMzEzIDEuMDUuNDggMi4xNjcuNDggMS40MjMgMCAyLjItLjYzNS43ODgtLjY1Ny43ODgtMS43MDcgMC0uNTQ3LS4xOTctLjkyLS4xNzUtLjM5NC0uNTAzLS42NTctLjMwNi0uMjg1LS43NDQtLjUwMy0uNDM4LS4yMi0uOTQtLjQ2bC0yLjA1Ny0uODk3cS0uNTAzLS4yMi0xLjAzLS41MjUtLjUyNS0uMzA2LS45NC0uNzQ0LS40MTYtLjQzOC0uNjc4LTEuMDMtLjI2My0uNjEzLS4yNjMtMS40IDAtLjguMzI4LTEuNS4zNS0uNy45NC0xLjIwNC42MTMtLjUyNSAxLjQyMy0uOC44MzItLjI4NSAxLjgxNy0uMjg1IDEuMyAwIDIuMzg2LjUwMyAxLjA5NC40OCAxLjg2IDEuMjdMNzYuNSAyNS44cS0uNjU3LS42MzUtMS40NjYtLjk4NS0uNzg4LS4zNzItMS43OTUtLjM3Mi0xLjIwNCAwLTEuOTQ4LjU3LS43MjIuNTQ3LS43MjIgMS41MzIgMCAuNTI1LjE5Ny44OTcuMjIuMzUuNTcuNjM1LjM1LjI2My43NjYuNDguNDE2LjE5Ny44NTQuMzcybDIuMDM1Ljg3NXEuNjEzLjI2MyAxLjE2LjYxMy41NDcuMzI4Ljk0Ljc4OC4zOTQuNDM4LjYxMyAxLjA1LjI0LjYuMjQgMS4zOCAwIC44NTQtLjM1IDEuNTk4LS4zMjguNzQ0LS45NjMgMS4zMTMtLjYzNS41NDctMS41MzIuODc1LS44OTcuMzA2LTIuMDM1LjMwNnptNy42ODctLjI2NFYyMy4wODRoMS44MTd2MTIuODAzaDYuMjh2MS41NTR6bTEwLjQ3IDBWMjYuODA1aDEuNzk1VjM3LjQ0em0uOTItMTIuODI1cS0uNTI1IDAtLjg5Ny0uMzI4LS4zNS0uMzI4LS4zNS0uODMyIDAtLjUyNS4zNS0uODMyLjM3Mi0uMzI4Ljg5Ny0uMzI4LjUyNSAwIC44NzUuMzI4LjM3Mi4zMDYuMzcyLjgzMiAwIC41MDMtLjM3Mi44MzItLjM1LjMyOC0uODc1LjMyOHptNC40NjUgMTIuODI1VjI2LjgwNUg5OC4xbC4xNTMgMS41MzJoLjA2NnEuNzY2LS43NjYgMS41OTgtMS4yNy44NTQtLjUyNSAxLjk3LS41MjUgMS42ODUgMCAyLjQ1IDEuMDUuNzg4IDEuMDUuNzg4IDMuMTA4djYuNzRoLTEuNzk1di02LjVxMC0xLjUtLjQ4LTIuMTY3LS40OC0uNjc4LTEuNTMyLS42NzgtLjgzMiAwLTEuNDY2LjQxNi0uNjM1LjQxNi0xLjQ0NCAxLjIyNnY3LjcwNHptMTUuMzE4LjI2NHEtLjg1NCAwLTEuNDQ0LS4yNjMtLjU3LS4yNjMtLjk0LS43MjItLjM1LS40Ni0uNTAzLTEuMTE2LS4xNTMtLjY1Ny0uMTUzLTEuNDQ0di01LjloLTEuNTc2di0xLjM1N2wxLjY2My0uMS4yMi0yLjk3N2gxLjV2Mi45NzdoMi44Njd2MS40NjZoLTIuODY3djUuOXEwIC45ODUuMzUgMS41MzIuMzcyLjUyNSAxLjMuNTI1LjI4NSAwIC42MTMtLjA4OC4zMjgtLjA4OC42LS4xOTdsLjM1IDEuMzU3cS0uNDM4LjE1My0uOTYzLjI2My0uNTAzLjEzLTEuMDA3LjEzeiIgZmlsbD0iIzRkNGQ0ZCIvPjwvc3ZnPg==;" vertex="1" parent="DSFdceFmaKd0g0XFRlf6-56">
                    <mxGeometry x="29.33" y="120" width="127.26" height="63.63" as="geometry"/>
                </mxCell>
                <mxCell id="22" value="" style="shape=image;verticalLabelPosition=bottom;labelBackgroundColor=#ffffff;verticalAlign=top;aspect=fixed;imageAspect=0;image=data:image/svg+xml,PHN2ZyB4bWxucz0iaHR0cDovL3d3dy53My5vcmcvMjAwMC9zdmciIHdpZHRoPSIxMTEuNDAyMjI5MzA5MDgyMDMiIGhlaWdodD0iMzEuNDU3OTYyMDM2MTMyODEyIiBwcmVzZXJ2ZUFzcGVjdFJhdGlvPSJ4TWlkWU1pZCIgdmlld0JveD0iNC4zMDczMTc3MzM3NjQ2NDggMTQuMTY4NzM2NDU3ODI0NzA3IDExMS40MDIyMjkzMDkwODIwMyAzMS40NTc5NjIwMzYxMzI4MTIiPjxnIHRyYW5zZm9ybT0ibWF0cml4KC4yMTc5NDYgMCAwIC4yMTc5NDYgNC4xMjA1NDIgMTQuMDg1NTQ4KSI+PHBhdGggZD0iTTQ3MS4wNSA1MS42Yy0xLjI0NSAwLTIuNDU1LjI1Ny0zLjUyNi44NjNsLTMzLjg4OCAxOS41N2MtMi4xOTMgMS4yNjMtMy41MjYgMy42NS0zLjUyNiA2LjE4OHYzOS4wN2MwIDIuNTM3IDEuMzMzIDQuOTIgMy41MjYgNi4xODdsOC44NSA1LjFjNC4zIDIuMTIgNS44ODYgMi4wODYgNy44NDMgMi4wODYgNi4zNjYgMCAxMC0zLjg2MyAxMC0xMC41NzdWODEuNTQyYzAtLjU0NS0uNDcyLS45MzUtMS4wMDctLjkzNWgtNC4yNDVjLS41NDQgMC0xLjAwNy40LTEuMDA3LjkzNXYzOC41NjVjMCAyLjk3Ni0zLjEgNS45Ny04LjEzIDMuNDU0bC05LjItNS4zOTZjLS4zMjUtLjE3Ny0uNTc2LS41LS41NzYtLjg2M3YtMzkuMDdjMC0uMzcuMjQ4LS43NDguNTc2LS45MzVsMzMuODE3LTE5LjVjLjMxNy0uMTgyLjY5NC0uMTgyIDEuMDA3IDBsMzMuODE3IDE5LjVjLjMyMi4xOTMuNTc2LjU1My41NzYuOTM1djM5LjA3YzAgLjM3My0uMTg3Ljc1NS0uNTA0LjkzNWwtMzMuODg4IDE5LjVjLS4zLjE3My0uNy4xNzMtMS4wMDcgMGwtOC43MDYtNS4xOGMtLjI2LS4xNTItLjYxMy0uMTQtLjg2MyAwLTIuNDAzIDEuMzYyLTIuODU1IDEuNTItNS4xMDggMi4zMDItLjU1NS4xOTMtMS40LjQ5NC4yODggMS40NGwxMS4zNjggNi43YzEuMDgyLjYyNiAyLjI4OC45MzUgMy41MjYuOTM1IDEuMjU1IDAgMi40NDMtLjMgMy41MjYtLjkzNWwzMy44ODgtMTkuNWMyLjE5My0xLjI3NiAzLjUyNi0zLjY1IDMuNTI2LTYuMTg3di0zOS4wN2MwLTIuNTM4LTEuMzMzLTQuOTItMy41MjYtNi4xODhsLTMzLjg4OC0xOS41N2MtMS4wNjItLjYwNi0yLjI4LS44NjMtMy41MjYtLjg2M3ptOS4wNjYgMjcuOTE4Yy05LjY1IDAtMTUuMzk3IDQuMTA3LTE1LjM5NyAxMC45MzYgMCA3LjQgNS43MDQgOS40NDQgMTQuOTY2IDEwLjM2IDExLjA4IDEuMDg1IDExLjk0NCAyLjcxMiAxMS45NDQgNC44OTMgMCAzLjc4My0zLjAxNiA1LjM5Ni0xMC4xNDUgNS4zOTYtOC45NTYgMC0xMC45MjUtMi4yMzYtMTEuNTg0LTYuNy0uMDc4LS40NzgtLjQ0Ni0uODYzLS45MzUtLjg2M2gtNC40YTEuMDMgMS4wMyAwIDAgMC0xLjAwNyAxLjAwN2MwIDUuNzAzIDMuMTAyIDEyLjQ0NyAxNy45MTYgMTIuNDQ3IDEwLjcyMyAwIDE2LjkwOC00LjIgMTYuOTA4LTExLjU4NCAwLTcuMy00Ljk5Ni05LjI3My0xNS4zOTctMTAuNjUtMTAuNS0xLjQtMTEuNTEyLTIuMDctMTEuNTEyLTQuNTMzIDAtMi4wMzIuODUtNC43NSA4LjYzNC00Ljc1IDYuOTUzIDAgOS41MjMgMS41IDEwLjU3NyA2LjE4OC4wOTIuNDQuNDguOC45MzUuOGg0LjRjLjI3IDAgLjUzMi0uMTY2LjcyLS4zNi4xODQtLjIwNy4zMTQtLjQ0LjI4OC0uNzItLjY4LTguMDc0LTYuMDY0LTExLjg3Mi0xNi45MDgtMTEuODcyeiIgZmlsbD0iIzgzY2QyOSIvPjxwYXRoIGQ9Ik0yNzEuODIuMzgzYTIuMTggMi4xOCAwIDAgMC0xLjA3OS4yODggMi4xOCAyLjE4IDAgMCAwLTEuMDc5IDEuODcxdjU1LjA0MmMwIC41NC0uMjUyIDEuMDI0LS43MiAxLjI5NWExLjUgMS41IDAgMCAxLTEuNTExIDBsLTguOTk0LTUuMThhNC4zMSA0LjMxIDAgMCAwLTQuMzE3IDBMMjE4LjIxOCA3NC40MmMtMS4zNDIuNzc0LTIuMTYgMi4yNjQtMi4xNiAzLjgxM3Y0MS40NDNhNC4zMSA0LjMxIDAgMCAwIDIuMTU5IDMuNzQxbDM1LjkwMyAyMC43MjJhNC4zIDQuMyAwIDAgMCA0LjMxNyAwbDM1LjkwMy0yMC43MjJhNC4zMSA0LjMxIDAgMCAwIDIuMTU5LTMuNzQxVjE2LjM1NmMwLTEuNTcyLS44NTgtMy4wNDctMi4yMy0zLjgxM0wyNzIuOS41OThjLS4zMzYtLjE4Ny0uNzA4LS4yMi0xLjA4LS4yMTZ6TTQwLjg2IDUyLjExNWMtLjY4NS4wMjgtMS4zMjguMTQ3LTEuOTQzLjUwNEwzLjAxNSA3My4zNGE0LjMgNC4zIDAgMCAwLTIuMTU4IDMuNzQxTC45MyAxMzIuN2MwIC43NzQuNCAxLjQ5MiAxLjA4IDEuODcuNjY3LjQgMS40OTQuNCAyLjE1OCAwbDIxLjI5Ny0xMi4yMzJjMS4zNS0uOCAyLjIzLTIuMTk2IDIuMjMtMy43NFY5Mi42MjNjMC0xLjU1LjgxNS0yLjk3IDIuMTYtMy43NGw5LjA2Ni01LjI1MmE0LjI1IDQuMjUgMCAwIDEgMi4xNTgtLjU3NiA0LjI0IDQuMjQgMCAwIDEgMi4xNTkuNTc2TDUyLjMgODguODhjMS4zNDMuNzcgMi4xNTggMi4xOTIgMi4xNTggMy43NHYyNS45NzRjMCAxLjU0Ni45IDIuOTUgMi4yMyAzLjc0bDIxLjI5NyAxMi4yMzJjLjY3LjQgMS40OTUuNCAyLjE1OCAwIC42Ni0uMzggMS4wOC0xLjA5NyAxLjA4LTEuODdsLjA3Mi01NS42MTdhNC4yOCA0LjI4IDAgMCAwLTIuMTU4LTMuNzQxTDQzLjIzNSA1Mi42MThjLS42MDctLjM1Ni0xLjI1My0uNDc2LTEuOTQzLS41MDRoLS40M3ptMzIyLjYyNC41MDRhNC4yOSA0LjI5IDAgMCAwLTIuMTU5LjU3NmwtMzUuOTAzIDIwLjcyMmMtMS4zNC43NzUtMi4xNiAyLjE5Mi0yLjE2IDMuNzRWMTE5LjFjMCAxLjU1OC44NzggMi45NyAyLjIzIDMuNzRsMzUuNjE1IDIwLjNjMS4zMTUuNzUgMi45Mi44MDcgNC4yNDUuMDdsMjEuNTg1LTEyLjAxNmMuNjg1LS4zOCAxLjE0OC0xLjA5IDEuMTUtMS44N3MtLjQwMy0xLjQ4Mi0xLjA4LTEuODdsLTM2LjEyLTIwLjcyMmMtLjY3Ni0uMzg2LTEuMTUtMS4xNjctMS4xNS0xLjk0M1Y5MS44M2MwLS43NzQuNDgtMS40ODQgMS4xNS0xLjg3bDExLjIyNC02LjQ3NmMuNjY4LS4zODYgMS40ODgtLjM4NiAyLjE2IDBMMzc1LjUgODkuOTZhMi4xNSAyLjE1IDAgMCAxIDEuMDc5IDEuODd2MTAuMjE3YTIuMTUgMi4xNSAwIDAgMCAxLjA3OSAxLjg3Yy42NzMuMzg4IDEuNDg4LjM5IDIuMTYgMEw0MDEuMzMgOTEuNGMxLjMzNS0uNzc2IDIuMTYtMi4xOTcgMi4xNi0zLjc0di0xMGE0LjMyIDQuMzIgMCAwIDAtMi4xNTktMy43NDFsLTM1LjY4Ny0yMC43MjJhNC4yOCA0LjI4IDAgMCAwLTIuMTU5LS41NzZ6bS0xMDcuMzUgMzAuOTRhMS4yMSAxLjIxIDAgMCAxIC41NzYuMTQzbDEyLjMwMyA3LjEyM2MuMzM0LjE5My41NzYuNTUuNTc2LjkzNXYxNC4yNDZjMCAuMzg3LS4yNC43NDMtLjU3Ni45MzVsLTEyLjMwMyA3LjEyM2MtLjMzNS4xOS0uNzQ0LjE5LTEuMDggMGwtMTIuMzAzLTcuMTIzYy0uMzM1LS4xOTMtLjU3Ni0uNTUtLjU3Ni0uOTM1VjkxLjc1OGMwLS4zODYuMjQyLS43NC41NzYtLjkzNWwxMi4zMDMtNy4xMjJjLjE2OC0uMDk3LjMxNi0uMTQzLjUwNC0uMTQzdi0uMDAxeiIgZmlsbD0iIzQwNDEzNyIvPjxwYXRoIGQ9Ik0xNDguNzE0IDUyLjQwMmE0LjMxIDQuMzEgMCAwIDAtMi4xNi41NzZsLTM1LjkwMyAyMC42NWMtMS4zNDIuNzc0LTIuMTU4IDIuMjY1LTIuMTU4IDMuODEzdjQxLjQ0M2E0LjMgNC4zIDAgMCAwIDIuMTU4IDMuNzRsMzUuOTAzIDIwLjcyMmE0LjMgNC4zIDAgMCAwIDQuMzE3IDBsMzUuOTAzLTIwLjcyMmE0LjMxIDQuMzEgMCAwIDAgMi4xNTktMy43NDFWNzcuNDRjMC0xLjU1LS44MTYtMy4wNC0yLjE2LTMuODEzbC0zNS45MDMtMjAuNjVhNC4yNyA0LjI3IDAgMCAwLTIuMTYtLjU3NnptMjE0LjcgMzYuOTgzYy0uMTQzIDAtLjMwMiAwLS40MzIuMDdsLTYuOTA3IDQuMDNhLjg0Ljg0IDAgMCAwLS40MzIuNzE5djcuOTE1YzAgLjI5OC4xNzMuNTcuNDMyLjcybDYuOTA3IDMuOTU3YS43NS43NSAwIDAgMCAuNzkgMGw2LjkwNy0zLjk1N2MuMjU2LS4xNDcuNDMyLS40MjIuNDMyLS43MnYtNy45MTVjMC0uMjk4LS4xNzUtLjU3LS40MzItLjcybC02LjkwNy00LjAzYy0uMTI4LS4wNzYtLjIxNi0uMDctLjM2LS4wN3oiIGZpbGw9IiM4M2NkMjkiLz48L2c+PC9zdmc+;" vertex="1" parent="DSFdceFmaKd0g0XFRlf6-56">
                    <mxGeometry x="15.800000000000011" y="50" width="111" height="31" as="geometry"/>
                </mxCell>
                <mxCell id="21" value="" style="shape=image;verticalLabelPosition=bottom;labelBackgroundColor=#ffffff;verticalAlign=top;aspect=fixed;imageAspect=0;image=data:image/svg+xml,PHN2ZyB4bWxucz0iaHR0cDovL3d3dy53My5vcmcvMjAwMC9zdmciIHhtbG5zOnhsaW5rPSJodHRwOi8vd3d3LnczLm9yZy8xOTk5L3hsaW5rIiB3aWR0aD0iMTIwIiBoZWlnaHQ9IjYwIiB2aWV3Qm94PSIwIDAgMTIwIDYwIj48ZGVmcz48Y2xpcFBhdGggaWQ9IkEiPjxwYXRoIGQ9Ik03NiAydjQ2SDU0djIzSDM1LjU4bC0uMjA2IDJjLTEuMTUgMTIuNTMgMS4wMzYgMjQuMDg4IDYuMDYzIDMzLjk3bDEuNjg4IDMuMDNjMSAxLjgxNyAyLjIgMy41MjMgMy40MzggNS4xODhzMS42ODYgMi41ODMgMi40NyAzLjY4OEM2Mi4zMiAxMzMuOCA4Mi4xMyAxNDEgMTA1IDE0MWM1MC42NDggMCA5My42MzMtMjIuNDM4IDExMi42NTYtNzIuODQ0QzIzMS4xNTMgNjkuNTQgMjQ0LjEgNjYuMDggMjUwIDU0LjU2M2MtOS40LTUuNDI0LTIxLjQ3OC0zLjY4NS0yOC40MzctLjE4N0wyNDAgMmwtNzIgNDZoLTIzVjJ6Ii8+PC9jbGlwUGF0aD48L2RlZnM+PGcgdHJhbnNmb3JtPSJtYXRyaXgoLjE4NDY1OSAwIDAgLjE4NDY1OSAzLjA3MDQ3MiAzMS42OTgxMzEpIj48cGF0aCBkPSJNNDY3LjgyIDI4LjI0bC0uMDQyLTI1LjU1OC0uMTI3LTQ1LjY1N000OTMuNTA1LTIzLjNMNDY3Ljc3OCAyLjY4bDI1Ljg1NCAyNS42NDJtLTE3Mi4zNDctMjUuM2MuMTI0LTUuNDgtMS40Ny0xMS4wOC00LjY5Ny0xNS42MTQtNC42NS02LjUzLTEyLjE4LTExLTIwLjQzOC0xMS4wODYtLjU1IDAtMS4wOTYgMC0xLjY1LjA0Mi0zLjI2NS4yMDItNi40MjcuNjU1LTkuMjI1IDEuODItMTguNCA3LjY1Ni0yMS42NiAzMy4yMDgtNi4xMzYgNDQuNzcgMTMuNDQ1IDEwIDMzLjAwMiA1LjkyNCAzOS43NzUtOS4zNSAxLjQzLTMuMjI4IDIuMzctNy4yOTcgMi4zNy0xMC41OHYtNDYuMjA3TTQ0NS40MzYtMjAuNjNjLTMuOC0yLjQ2Mi04LjI1NS0zLjM1LTEyLjY1Mi0zLjM0My0uNDc3IDAtLjk2Ny4wMjQtMS4zOTYuMDQyLTEyLjcxMy41NDctMjQuNSA5LjUzLTI0LjUgMjYuOTU0IDAgMjAuNiAyMi4wODggMzEuNzE4IDM4LjYgMjIuMDAzbTc0LjEzNS0yLjI0M2wzOS4wNTYtMzMuNDdzLS45NS0xLjc5Ny0xLjU2Ni0yLjYyM2MtNS4yNTctNy4wNTYtMTMuMy0xMC41OC0yMS43NS0xMC41OC0yMC45IDAtMzYuNTgyIDI3LjAzNy0xNS43NCA0Ni42NzMgMS40NDMgMS4zNiAzLjQyNSAyLjQyNSA1LjYyOCAzLjM0MyA3LjY0NyAzLjE4OCAxOC4xMTcgMi45MjcgMjMuNzgtMS4yN20tMTg1LTQ4LjY2M2MtLjU5My4wMS0xLjE4Mi4wNzQtMS43NzcuMDg1LTE1Ljg1NS4zLTI3LjI4NiAxNi43Ni0yMy44MjMgMzIuMDMyIDMuMzc1IDE0Ljg4MyAxOS42MzQgMjMuNjk2IDMzLjY4MiAxOC44MyAxNi4zNi00LjMgMjMuMDMtMjQuOSAxNC4wNDgtMzguODAyLTQuOTEzLTcuNi0xMy4yNC0xMi4zMTMtMjIuMTMtMTIuMTQ0em0yNDAuNzI2LjUwOGMtNi40Mi4wMTctMTIuNjczIDIuMjY2LTE3LjMwNyA2LjYtNy4zMDggNi4wMy04Ljg5NCAxMy42NDctOC44IDIzLjI3M2wuMjEyIDIxLjg3NyIgZmlsbD0ibm9uZSIgc3Ryb2tlLXdpZHRoPSIxMC41IiBzdHJva2UtbGluZWpvaW49InJvdW5kIiBzdHJva2U9IiMzOTRkNTQiIHN0cm9rZS1saW5lY2FwPSJyb3VuZCIvPjxwYXRoIGQ9Ik0xNDcuNDg4LTM5LjI2OGgyMi44NjZ2MjMuMzc1aDExLjU2MmM1LjM0IDAgMTAuODMtLjk1IDE1Ljg4Ny0yLjY2NCAyLjQ4NC0uODQyIDUuMjczLTIuMDE1IDcuNzI0LTMuNS0zLjIyOC00LjIxNC00Ljg3Ni05LjUzNi01LjM2LTE0Ljc4LS42Ni03LjEzNC43OC0xNi40MiA1LjYtMjIuMDA0bDIuNDA0LTIuNzggMi44NjQgMi4zMDJjNy4yIDUuNzk0IDEzLjI3NiAxMy45IDE0LjM0NSAyMy4xMTggOC42ODMtMi41NTQgMTguODc4LTEuOTUgMjYuNTMgMi40NjdsMy4xNCAxLjgxMi0xLjY1MyAzLjIyNkMyNDYuOTMzLTE2LjA1MyAyMzMuNC0xMi4xNCAyMjAuMTctMTIuODMzYy0xOS43OTYgNDkuMzEtNjIuODk3IDcyLjY1My0xMTUuMTU2IDcyLjY1My0yNyAwLTUxLjc3LTEwLjA5My02NS44NzYtMzQuMDQ3LS44MjctMS40ODgtMS41MzUtMy4wNDQtMi4yODYtNC41NzJDMzIuMDg0IDEwLjY1NyAzMC41LS44OTQgMzEuNTc0LTEyLjQzNmwuMzIyLTMuNDU3SDUxLjQ1di0yMy4zNzVoMjIuODY2di0yMi44NjZoNDUuNzMyVi04NWgyNy40NHY0NS43MzIiIGZpbGw9IiMzOTRkNTQiLz48ZyB0cmFuc2Zvcm09InRyYW5zbGF0ZSgwIC04NSkiIGNsaXAtcGF0aD0idXJsKCNBKSI+PGcgaWQ9IkIiPjxnIGlkPSJDIiB0cmFuc2Zvcm09InRyYW5zbGF0ZSgwIC0yMi44NjYpIj48cGF0aCBkPSJNMTIzLjg2IDMuOGgxOS44MTh2MTkuODE3SDEyMy44NnoiIGZpbGw9IiMwMGFjZDMiLz48cGF0aCBkPSJNMTIzLjg2IDI2LjY3NmgxOS44MTh2MTkuODE4SDEyMy44NnoiIGZpbGw9IiMyMGMyZWYiLz48cGF0aCBpZD0iRCIgZD0iTTEyNi4yOTIgMjEuOTc3VjUuNDZtMi45NzIgMTYuNTE2VjUuNDZtMy4wMDIgMTYuNTE2VjUuNDZtMy4wMDMgMTYuNTE2VjUuNDZtMy4wMDMgMTYuNTE2VjUuNDZtMi45NyAxNi41MTZWNS40NiIgc3Ryb2tlLXdpZHRoPSIxLjU2IiBzdHJva2U9IiMzOTRkNTQiLz48dXNlIHhsaW5rOmhyZWY9IiNEIiB5PSIyMi44NjYiLz48L2c+PHVzZSB4bGluazpocmVmPSIjQyIgdHJhbnNmb3JtPSJtYXRyaXgoMSAwIDAgLTEgMjIuODY2IDQuNTcyNjUxKSIvPjwvZz48dXNlIHhsaW5rOmhyZWY9IiNCIiB4PSItOTEuNDY0IiB5PSI0NS43MzIiLz48dXNlIHhsaW5rOmhyZWY9IiNCIiB4PSItNDUuNzMyIiB5PSI0NS43MzIiLz48dXNlIHhsaW5rOmhyZWY9IiNCIiB5PSI0NS43MzIiLz48cGF0aCBkPSJNMjIxLjU3IDU0LjM4YzEuNTMzLTExLjkxNS03LjM4NC0yMS4yNzUtMTIuOTE0LTI1LjcxOC02LjM3MyA3LjM2OC03LjM2MyAyNi42NzggMi42MzUgMzQuODA3LTUuNTggNC45NTYtMTcuMzM3IDkuNDQ4LTI5LjM3NiA5LjQ0OEgzNEMzMi44MyA4NS40ODQgMzQgMTQ2IDM0IDE0NmgyMTdsLS45ODctOTEuNDI0Yy05LjQtNS40MjQtMjEuNDg0LTMuNjk0LTI4LjQ0My0uMTk3IiBmaWxsPSIjMTdiNWViIi8+PHBhdGggZD0iTTM0IDg5djU3aDIxN1Y4OSIgZmlsbC1vcGFjaXR5PSIuMTciLz48cGF0aCBkPSJNMTExLjIzNyAxNDAuOWMtMTMuNTQtNi40MjUtMjAuOTcyLTE1LjE2LTI1LjEwNy0yNC42OTRMNDUgMTE4bDIxIDI4IDQ1LjIzNy01LjEiIGZpbGw9IiNkNGVkZjEiLz48cGF0aCBkPSJNMjIyLjUgNTMuOTM4di4wM2MtMjAuODYgMjYuOS01MC43ODMgNTAuMzgtODIuOTA2IDYyLjcyLTI4LjY1NSAxMS4wMDgtNTMuNjM4IDExLjA2LTcwLjg3NSAyLjIyLTEuODU2LTEuMDQ4LTMuNjc2LTIuMjEyLTUuNS0zLjMxMi0xMi42MzctOC44MzItMTkuNzU0LTIzLjQ0LTE5LjE1Ni00Mi42ODdIMzRWMTQ2aDIxN1Y1MGgtMjV6IiBmaWxsLW9wYWNpdHk9Ii4wODUiLz48L2c+PHBhdGggZD0iTTQ1LjYyNSAzMi4wM2MxNC4xNjUuNzc1IDI5LjI4Mi45MTQgNDIuNDctMy4yMiIgZmlsbD0ibm9uZSIgc3Ryb2tlLXdpZHRoPSIzLjQiIHN0cm9rZT0iIzM5NGQ1NCIgc3Ryb2tlLWxpbmVjYXA9InJvdW5kIi8+PHBhdGggZD0iTTEwMi4xNyAyMS45NmE1LjQ3IDUuNDcgMCAwIDEtNS40NjcgNS40NjcgNS40NyA1LjQ3IDAgMCAxLTUuNDY4LTUuNDY3IDUuNDcgNS40NyAwIDAgMSA1LjQ2OC01LjQ2OCA1LjQ3IDUuNDcgMCAwIDEgNS40NjcgNS40Njh6IiBmaWxsPSIjZDRlZGYxIi8+PHBhdGggZD0iTTk4LjEyIDE4LjMwOGExLjYgMS42IDAgMCAwIC43OTggMi45ODFjLjYwNSAwIDEuMTMtLjMzNiAxLjQwMi0uODMyLjE5Mi40NjIuMjk4Ljk3LjI5OCAxLjUwMiAwIDIuMTYyLTEuNzUzIDMuOTE1LTMuOTE2IDMuOTE1cy0zLjkxNi0xLjc1My0zLjkxNi0zLjkxNWEzLjkyIDMuOTIgMCAwIDEgMy45MTYtMy45MTcgMy45MSAzLjkxIDAgMCAxIDEuNDE4LjI2NXpNMCA1LjE2MmgyNTQuMzI3Yy01LjUzOC0xLjQwNS0xNy41Mi0zLjMwMi0xNS41NDUtMTAuNTYtMTAuMDcgMTEuNjUyLTM0LjM1MyA4LjE3NC00MC40OCAyLjQzLTYuODI1IDkuODk4LTQ2LjU1NSA2LjEzNi00OS4zMjYtMS41NzUtOC41NTYgMTAuMDQtMzUuMDY3IDEwLjA0LTQzLjYyMyAwLTIuNzcyIDcuNy00Mi41IDExLjQ3My00OS4zMjcgMS41NzUtNi4xMjggNS43NDYtMzAuNCA5LjIyMy00MC40OC0yLjQzQzE3LjUyMiAxLjg2IDUuNTQgMy43NTggMCA1LjE2MiIgZmlsbD0iIzM5NGQ1NCIvPjwvZz48L3N2Zz4=;" vertex="1" parent="DSFdceFmaKd0g0XFRlf6-56">
                    <mxGeometry x="149.33" y="37.84" width="149.33" height="74.66" as="geometry"/>
                </mxCell>
                <mxCell id="24" value="" style="shape=image;verticalLabelPosition=bottom;labelBackgroundColor=#ffffff;verticalAlign=top;aspect=fixed;imageAspect=0;image=data:image/svg+xml,PHN2ZyB4bWxucz0iaHR0cDovL3d3dy53My5vcmcvMjAwMC9zdmciIHhtbG5zOnhsaW5rPSJodHRwOi8vd3d3LnczLm9yZy8xOTk5L3hsaW5rIiB3aWR0aD0iODcwcHgiIGhlaWdodD0iMjEwcHgiIHZpZXdCb3g9IjAgMCA4NzAgMjEwIiB2ZXJzaW9uPSIxLjEiPgogICAgPCEtLSBHZW5lcmF0b3I6IHNrZXRjaHRvb2wgNDYuMiAoNDQ0OTYpIC0gaHR0cDovL3d3dy5ib2hlbWlhbmNvZGluZy5jb20vc2tldGNoIC0tPgogICAgPHRpdGxlPnByZXR0aWVyLWxvZ28tbGlnaHQ8L3RpdGxlPgogICAgPGRlc2M+Q3JlYXRlZCB3aXRoIHNrZXRjaHRvb2wuPC9kZXNjPgogICAgPGRlZnMvPgogICAgPGcgaWQ9ImtleSIgc3Ryb2tlPSJub25lIiBzdHJva2Utd2lkdGg9IjEiIGZpbGw9Im5vbmUiIGZpbGwtcnVsZT0iZXZlbm9kZCI+CiAgICAgICAgPGcgaWQ9InByZXR0aWVyLWxvZ28tbGlnaHQiPgogICAgICAgICAgICA8ZyBpZD0iVGV4dC0oTGlnaHQpIiB0cmFuc2Zvcm09InRyYW5zbGF0ZSgyODQuMDAwMDAwLCA1MS4wMDAwMDApIiBmaWxsPSIjMzM0NjUwIj4KICAgICAgICAgICAgICAgIDxwYXRoIGQ9Ik0xMi42OTgxODUxLDYxLjUyMTI1MjUgTDEyLjY5ODE4NTEsMTAxLjc1NjcwNCBMMC4wNDQ1NTIyMjMyLDEwMS43NTY3MDQgTDAuMDQ0NTUyMjIzMiwxLjQ0MzY2MDUxIEwzMi4zMjg0MTU3LDEuNDQzNjYwNTEgQzM2Ljc5NzEwODQsMS41MzU1MjI3MyA0MS4wMjYzNDM0LDIuMjQ3NDQ0MjYgNDUuMDE2MjQ3NiwzLjU3OTQ0NjQ2IEM0OS4wMDYxNTE4LDQuOTExNDQ4NjYgNTIuNTA1ODE1Myw2Ljg0MDUyNjM2IDU1LjUxNTM0Myw5LjM2NjczNzQzIEM1OC41MjQ4NzA3LDExLjg5Mjk0ODUgNjAuOTA3Mzc3OCwxNS4wMTYyMTcyIDYyLjY2MjkzNTYsMTguNzM2NjM3MSBDNjQuNDE4NDkzNSwyMi40NTcwNTcgNjUuMjk2MjU5MywyNi43Mjg1ODYyIDY1LjI5NjI1OTMsMzEuNTUxMzUyOCBDNjUuMjk2MjU5MywzNi4zNzQxMTk0IDY0LjQxODQ5MzUsNDAuNjM0MTY2IDYyLjY2MjkzNTYsNDQuMzMxNjIwNCBDNjAuOTA3Mzc3OCw0OC4wMjkwNzQ4IDU4LjUyNDg3MDcsNTEuMTQwODYwOCA1NS41MTUzNDMsNTMuNjY3MDcxOSBDNTIuNTA1ODE1Myw1Ni4xOTMyODMgNDkuMDA2MTUxOCw1OC4xMjIzNjA2IDQ1LjAxNjI0NzYsNTkuNDU0MzYyOSBDNDEuMDI2MzQzNCw2MC43ODYzNjUxIDM2Ljc5NzEwODQsNjEuNDc1MzIxNCAzMi4zMjg0MTU3LDYxLjUyMTI1MjUgTDEyLjY5ODE4NTEsNjEuNTIxMjUyNSBaIE0xMi42OTgxODUxLDUxLjA0OTAxMTcgTDMyLjMyODQxNTcsNTEuMDQ5MDExNyBDMzUuMjQ2NzQ1Niw1MS4wMDMwODA2IDM3LjkzNzA0MDYsNTAuNTMyMjkzNyA0MC4zOTkzODE1LDQ5LjYzNjYzNzEgQzQyLjg2MTcyMjQsNDguNzQwOTgwNCA0NS4wMDQ4Mzg4LDQ3LjQ2NjQxMTMgNDYuODI4Nzk1LDQ1LjgxMjg5MTMgQzQ4LjY1Mjc1MTIsNDQuMTU5MzcxMyA1MC4wNzc2OTU2LDQyLjE0OTkxNTQgNTEuMTAzNjcxLDM5Ljc4NDQ2MzIgQzUyLjEyOTY0NjQsMzcuNDE5MDExIDUyLjY0MjYyNjMsMzQuNzIwNTk4NyA1Mi42NDI2MjYzLDMxLjY4OTE0NTUgQzUyLjY0MjYyNjMsMjguNjU3NjkyMiA1Mi4xMjk2NDY0LDI1LjkyNDgzMjEgNTEuMTAzNjcxLDIzLjQ5MDQ4MzMgQzUwLjA3NzY5NTYsMjEuMDU2MTM0NCA0OC42NjQxNTA4LDE4Ljk4OTI2NTQgNDYuODYyOTk0LDE3LjI4OTgxNDQgQzQ1LjA2MTgzNzMsMTUuNTkwMzYzMyA0Mi45MTg3MjA5LDE0LjI4MTM0NjMgNDAuNDMzNTgwNSwxMy4zNjI3MjQxIEMzNy45NDg0NDAyLDEyLjQ0NDEwMTggMzUuMjQ2NzQ1NiwxMS45NjE4MzI0IDMyLjMyODQxNTcsMTEuOTE1OTAxMyBMMTIuNjk4MTg1MSwxMS45MTU5MDEzIEwxMi42OTgxODUxLDUxLjA0OTAxMTcgWiBNMTIyLjQzMjA1MywyNS44MzI5NTgyIEMxMjMuNjE3NjI1LDI1LjgzMjk1ODIgMTI0Ljg0ODc3NywyNS44Njc0MDYgMTI2LjEyNTU0NiwyNS45MzYzMDI2IEMxMjcuNDAyMzE1LDI2LjAwNTE5OTMgMTI4LjYyMjA2OCwyNi4xMjAwMjU0IDEyOS43ODQ4NCwyNi4yODA3ODQzIEMxMzAuOTQ3NjEyLDI2LjQ0MTU0MzEgMTMyLjAxOTE3LDI2LjYzNjc0NzQgMTMyLjk5OTU0NywyNi44NjY0MDMgQzEzMy45Nzk5MjMsMjcuMDk2MDU4NSAxMzQuNzg5MjkxLDI3LjM0ODY3NTkgMTM1LjQyNzY3NiwyNy42MjQyNjI1IEwxMzMuNzE3NzI2LDQwLjA5NDQ5NjYgQzEzMS4yNTUzODUsMzkuNTQzMzIzMyAxMjguOTE4NDc2LDM5LjE0MTQzMjEgMTI2LjcwNjkyOSwzOC44ODg4MTEgQzEyNC40OTUzODIsMzguNjM2MTg5OSAxMjIuMTgxMjczLDM4LjUwOTg4MTIgMTE5Ljc2NDUzMSwzOC41MDk4ODEyIEMxMTMuODM2NjczLDM4LjUwOTg4MTIgMTA5LjAzNzQ2LDM5Ljg2NDgyODcgMTA1LjM2Njc0OCw0Mi41NzQ3NjQyIEMxMDEuNjk2MDM2LDQ1LjI4NDY5OTcgOTguOTk0MzQxOCw0OS4wNzM5NTk1IDk3LjI2MTU4MzQsNTMuOTQyNjU3MiBMOTcuMjYxNTgzNCwxMDEuNzU2NzA0IEw4NC41Mzk1NTI0LDEwMS43NTY3MDQgTDg0LjUzOTU1MjQsMjcuMjEwODg0NiBMOTYuNTc3NjAzMiwyNy4yMTA4ODQ2IEw5Ny4xOTMxODUzLDM5LjA2MTA1MTggQzEwMC4yMDI3MTMsMzQuOTczMTgzIDEwMy44MTYzNzIsMzEuNzQ2NTcwOSAxMDguMDM0MjcxLDI5LjM4MTExODcgQzExMi4yNTIxNywyNy4wMTU2NjY1IDExNy4wNTEzODIsMjUuODMyOTU4MiAxMjIuNDMyMDUzLDI1LjgzMjk1ODIgWiBNMTgxLjY4ODE4NiwxMDMuMTM0NjMgQzE3Ni40ODk5MSwxMDMuMTM0NjMgMTcxLjcxMzQ5NywxMDIuMjM4OTg3IDE2Ny4zNTg4MDEsMTAwLjQ0NzY3NCBDMTYzLjAwNDEwNiw5OC42NTYzNjA2IDE1OS4yNzY0NTEsOTYuMTUzMTUyNiAxNTYuMTc1NzI2LDkyLjkzNzk3NDkgQzE1My4wNzUsODkuNzIyNzk3MiAxNTAuNjU4Mjk0LDg1LjkxMDU3MjIgMTQ4LjkyNTUzNiw4MS41MDExODU2IEMxNDcuMTkyNzc4LDc3LjA5MTc5OSAxNDYuMzI2NDExLDcyLjI5MjA3IDE0Ni4zMjY0MTEsNjcuMTAxODU0NSBMMTQ2LjMyNjQxMSw2NC4yMDgyMDkgQzE0Ni4zMjY0MTEsNTguMTkxMjMzNSAxNDcuMjgzOTc0LDUyLjgwNTg5MTYgMTQ5LjE5OTEyOCw0OC4wNTIwMjE3IEMxNTEuMTE0MjgyLDQzLjI5ODE1MTggMTUzLjY1NjM4MywzOS4yNzkyMzk5IDE1Ni44MjU1MDcsMzUuOTk1MTY1NSBDMTU5Ljk5NDYzMSwzMi43MTEwOTExIDE2My41OTY4OSwzMC4xOTY0MDA2IDE2Ny42MzIzOTMsMjguNDUxMDE4NCBDMTcxLjY2Nzg5NiwyNi43MDU2MzYyIDE3NS44MDU5MzUsMjUuODMyOTU4MiAxODAuMDQ2NjMzLDI1LjgzMjk1ODIgQzE4NS4zODE3MDUsMjUuODMyOTU4MiAxOTAuMDQ0MTIzLDI2Ljc2MzA0OTIgMTk0LjAzNDAyNywyOC42MjMyNTkyIEMxOTguMDIzOTMyLDMwLjQ4MzQ2OTEgMjAxLjM0MTIwMiwzMy4wNTU1NzI3IDIwMy45ODU5MzksMzYuMzM5NjQ3MSBDMjA2LjYzMDY3NSwzOS42MjM3MjE1IDIwOC42MDI3OTgsNDMuNDkzMzU5NSAyMDkuOTAyMzY3LDQ3Ljk0ODY3NzIgQzIxMS4yMDE5MzYsNTIuNDAzOTk0OSAyMTEuODUxNzExLDU3LjIyNjY4OTIgMjExLjg1MTcxMSw2Mi40MTY5MDQ3IEwyMTEuODUxNzExLDY4LjEzNTI5OTMgTDE1OC45ODAwNDQsNjguMTM1Mjk5MyBDMTU5LjExNjg0MSw3MS41MzQyMDE1IDE1OS43NjY2MTYsNzQuNzI2MzY1OCAxNjAuOTI5Mzg4LDc3LjcxMTg4NzkgQzE2Mi4wOTIxNiw4MC42OTc0MTAxIDE2My42ODgwOTgsODMuMzAzOTYxNSAxNjUuNzE3MjQ5LDg1LjUzMTYyMDQgQzE2Ny43NDY0LDg3Ljc1OTI3OTIgMTcwLjE3NDUwNSw4OS41MTYxMTc4IDE3My4wMDE2MzgsOTAuODAyMTg4OSBDMTc1LjgyODc3LDkyLjA4ODI2IDE3OC45NTIyNDgsOTIuNzMxMjg1OSAxODIuMzcyMTY2LDkyLjczMTI4NTkgQzE4Ni44ODY0NTcsOTIuNzMxMjg1OSAxOTAuODk5MTAxLDkxLjgxMjY3NzUgMTk0LjQxMDIxNiw4OS45NzU0MzMxIEMxOTcuOTIxMzMyLDg4LjEzODE4ODcgMjAwLjgzOTYxOCw4NS43MDM4NzYzIDIwMy4xNjUxNjMsODIuNjcyNDIzMSBMMjEwLjg5NDEzOCw4OC43MzUyOTkzIEMyMDkuNjYyOTY4LDkwLjYxODQ3NDggMjA4LjEyNDAyOCw5Mi40MjEyNDM5IDIwNi4yNzcyNzIsOTQuMTQzNjYwNSBDMjA0LjQzMDUxNyw5NS44NjYwNzcxIDIwMi4yOTg4LDk3LjM5MzI2MzcgMTk5Ljg4MjA1OCw5OC43MjUyNjU5IEMxOTcuNDY1MzE2LDEwMC4wNTcyNjggMTk0LjcyOTQyMywxMDEuMTI1MTUgMTkxLjY3NDI5NiwxMDEuOTI4OTQ1IEMxODguNjE5MTY5LDEwMi43MzI3MzkgMTg1LjI5MDQ5OSwxMDMuMTM0NjMgMTgxLjY4ODE4NiwxMDMuMTM0NjMgWiBNMTgwLjA0NjYzMywzNi4zMDUxOTkgQzE3Ny40OTMwOTQsMzYuMzA1MTk5IDE3NS4wNzYzODksMzYuNzc1OTg1OCAxNzIuNzk2NDQ0LDM3LjcxNzU3MzYgQzE3MC41MTY0OTgsMzguNjU5MTYxMyAxNjguNDY0NTc4LDQwLjAzNzA3NCAxNjYuNjQwNjIyLDQxLjg1MTM1MjggQzE2NC44MTY2NjYsNDMuNjY1NjMxNyAxNjMuMjc3NzI2LDQ1Ljg5MzI1NzEgMTYyLjAyMzc1Niw0OC41MzQyOTYgQzE2MC43Njk3ODYsNTEuMTc1MzM0OCAxNTkuODkyMDIsNTQuMjE4MjI1MiAxNTkuMzkwNDMyLDU3LjY2MzA1ODUgTDE5OS4xOTgwNzgsNTcuNjYzMDU4NSBMMTk5LjE5ODA3OCw1Ni42OTg1MSBDMTk5LjA2MTI4MSw1NC4yMTgyMyAxOTguNTkzODk5LDUxLjc2MDk1MjUgMTk3Ljc5NTkxOCw0OS4zMjY2MDM3IEMxOTYuOTk3OTM3LDQ2Ljg5MjI1NDggMTk1LjgyMzc4Myw0NC43MTA1NTk4IDE5NC4yNzM0Miw0Mi43ODE0NTMyIEMxOTIuNzIzMDU4LDQwLjg1MjM0NjUgMTkwLjc3MzczNCwzOS4yOTA3MTIyIDE4OC40MjUzOSwzOC4wOTY1MDMzIEMxODYuMDc3MDQ2LDM2LjkwMjI5NDQgMTgzLjI4NDE1NSwzNi4zMDUxOTkgMTgwLjA0NjYzMywzNi4zMDUxOTkgWiBNMjU0LjAwODMzOSw5LjE2MDA0ODQ3IEwyNTQuMDA4MzM5LDI3LjIxMDg4NDYgTDI4Mi4xODgzMjEsMjcuMjEwODg0NiBMMjgyLjE4ODMyMSwzNy4wNjMwNTg1IEwyNTQuMDA4MzM5LDM3LjA2MzA1ODUgTDI1NC4wMDgzMzksNzcuNTc0MDk1MyBDMjU0LjAwODMzOSw4MC40Njc3NTUyIDI1NC4zNzMxMjUsODIuODU2MTM3MiAyNTUuMTAyNzA3LDg0LjczOTMxMjcgQzI1NS44MzIyOSw4Ni42MjI0ODgyIDI1Ni44MzU0NTEsODguMTI2NzA5NSAyNTguMTEyMjIsODkuMjUyMDIxNyBDMjU5LjM4ODk4OSw5MC4zNzczMzM5IDI2MC44NTk1MzIsOTEuMTY5NjMzNyAyNjIuNTIzODkyLDkxLjYyODk0NDggQzI2NC4xODgyNTIsOTIuMDg4MjU1OSAyNjUuOTU1MTgzLDkyLjMxNzkwOCAyNjcuODI0NzM4LDkyLjMxNzkwOCBDMjY5LjE5MjcwNSw5Mi4zMTc5MDggMjcwLjYwNjI1LDkyLjIzNzUyOTggMjcyLjA2NTQxNSw5Mi4wNzY3NzA5IEMyNzMuNTI0NTgsOTEuOTE2MDEyIDI3NC45NDk1MjQsOTEuNzIwODA3NyAyNzYuMzQwMjkxLDkxLjQ5MTE1MjEgQzI3Ny43MzEwNTgsOTEuMjYxNDk2NiAyNzkuMDMwNjA3LDkxLjAyMDM2MTkgMjgwLjIzODk3OCw5MC43Njc3NDA4IEMyODEuNDQ3MzQ5LDkwLjUxNTExOTcgMjgyLjQzOTExLDkwLjI5Njk1MDIgMjgzLjIxNDI5Miw5MC4xMTMyMjU3IEwyODQuOTkyNjQsOTkuMTM4NjQzOCBDMjgzLjk0Mzg2NSw5OS43ODE2NzkzIDI4Mi42NjcxMTUsMTAwLjM0NDMyNyAyODEuMTYyMzUxLDEwMC44MjY2MDQgQzI3OS42NTc1ODcsMTAxLjMwODg4IDI3OC4wMTYwNTEsMTAxLjcyMjI1NCAyNzYuMjM3Njk0LDEwMi4wNjY3MzcgQzI3NC40NTkzMzcsMTAyLjQxMTIyMSAyNzIuNTc4NDEsMTAyLjY3NTMyMSAyNzAuNTk0ODU4LDEwMi44NTkwNDUgQzI2OC42MTEzMDUsMTAzLjA0Mjc3IDI2Ni42MzkxODIsMTAzLjEzNDYzIDI2NC42Nzg0MjksMTAzLjEzNDYzIEMyNjEuMzk1MzA4LDEwMy4xMzQ2MyAyNTguMzI4ODI4LDEwMi42NjM4NDQgMjU1LjQ3ODg5NiwxMDEuNzIyMjU2IEMyNTIuNjI4OTY1LDEwMC43ODA2NjggMjUwLjE1NTI2MSw5OS4yODc5Mjk0IDI0OC4wNTc3MTIsOTcuMjQzOTk1IEMyNDUuOTYwMTYyLDk1LjIwMDA2MDUgMjQ0LjMwNzIyNiw5Mi41NTkwNjEzIDI0My4wOTg4NTUsODkuMzIwOTE4IEMyNDEuODkwNDg0LDg2LjA4Mjc3NDggMjQxLjI4NjMwOCw4Mi4xNjcyMDYzIDI0MS4yODYzMDgsNzcuNTc0MDk1MyBMMjQxLjI4NjMwOCwzNy4wNjMwNTg1IEwyMjEuODYxMjcyLDM3LjA2MzA1ODUgTDIyMS44NjEyNzIsMjcuMjEwODg0NiBMMjQxLjI4NjMwOCwyNy4yMTA4ODQ2IEwyNDEuMjg2MzA4LDkuMTYwMDQ4NDcgTDI1NC4wMDgzMzksOS4xNjAwNDg0NyBaIE0zMjkuMDY0NDEzLDkuMTYwMDQ4NDcgTDMyOS4wNjQ0MTMsMjcuMjEwODg0NiBMMzU3LjI0NDM5NSwyNy4yMTA4ODQ2IEwzNTcuMjQ0Mzk1LDM3LjA2MzA1ODUgTDMyOS4wNjQ0MTMsMzcuMDYzMDU4NSBMMzI5LjA2NDQxMyw3Ny41NzQwOTUzIEMzMjkuMDY0NDEzLDgwLjQ2Nzc1NTIgMzI5LjQyOTE5OSw4Mi44NTYxMzcyIDMzMC4xNTg3ODEsODQuNzM5MzEyNyBDMzMwLjg4ODM2NCw4Ni42MjI0ODgyIDMzMS44OTE1MjUsODguMTI2NzA5NSAzMzMuMTY4Mjk0LDg5LjI1MjAyMTcgQzMzNC40NDUwNjMsOTAuMzc3MzMzOSAzMzUuOTE1NjA2LDkxLjE2OTYzMzcgMzM3LjU3OTk2Niw5MS42Mjg5NDQ4IEMzMzkuMjQ0MzI2LDkyLjA4ODI1NTkgMzQxLjAxMTI1Nyw5Mi4zMTc5MDggMzQyLjg4MDgxMiw5Mi4zMTc5MDggQzM0NC4yNDg3NzksOTIuMzE3OTA4IDM0NS42NjIzMjQsOTIuMjM3NTI5OCAzNDcuMTIxNDg5LDkyLjA3Njc3MDkgQzM0OC41ODA2NTQsOTEuOTE2MDEyIDM1MC4wMDU1OTksOTEuNzIwODA3NyAzNTEuMzk2MzY1LDkxLjQ5MTE1MjEgQzM1Mi43ODcxMzIsOTEuMjYxNDk2NiAzNTQuMDg2NjgxLDkxLjAyMDM2MTkgMzU1LjI5NTA1Miw5MC43Njc3NDA4IEMzNTYuNTAzNDIzLDkwLjUxNTExOTcgMzU3LjQ5NTE4NCw5MC4yOTY5NTAyIDM1OC4yNzAzNjYsOTAuMTEzMjI1NyBMMzYwLjA0ODcxNCw5OS4xMzg2NDM4IEMzNTguOTk5OTM5LDk5Ljc4MTY3OTMgMzU3LjcyMzE4OSwxMDAuMzQ0MzI3IDM1Ni4yMTg0MjUsMTAwLjgyNjYwNCBDMzU0LjcxMzY2MSwxMDEuMzA4ODggMzUzLjA3MjEyNSwxMDEuNzIyMjU0IDM1MS4yOTM3NjgsMTAyLjA2NjczNyBDMzQ5LjUxNTQxMSwxMDIuNDExMjIxIDM0Ny42MzQ0ODQsMTAyLjY3NTMyMSAzNDUuNjUwOTMyLDEwMi44NTkwNDUgQzM0My42NjczNzksMTAzLjA0Mjc3IDM0MS42OTUyNTYsMTAzLjEzNDYzIDMzOS43MzQ1MDMsMTAzLjEzNDYzIEMzMzYuNDUxMzgyLDEwMy4xMzQ2MyAzMzMuMzg0OTAyLDEwMi42NjM4NDQgMzMwLjUzNDk3LDEwMS43MjIyNTYgQzMyNy42ODUwMzksMTAwLjc4MDY2OCAzMjUuMjExMzM1LDk5LjI4NzkyOTQgMzIzLjExMzc4Niw5Ny4yNDM5OTUgQzMyMS4wMTYyMzYsOTUuMjAwMDYwNSAzMTkuMzYzMyw5Mi41NTkwNjEzIDMxOC4xNTQ5MjksODkuMzIwOTE4IEMzMTYuOTQ2NTU4LDg2LjA4Mjc3NDggMzE2LjM0MjM4Miw4Mi4xNjcyMDYzIDMxNi4zNDIzODIsNzcuNTc0MDk1MyBMMzE2LjM0MjM4MiwzNy4wNjMwNTg1IEwyOTYuOTE3MzQ2LDM3LjA2MzA1ODUgTDI5Ni45MTczNDYsMjcuMjEwODg0NiBMMzE2LjM0MjM4MiwyNy4yMTA4ODQ2IEwzMTYuMzQyMzgyLDkuMTYwMDQ4NDcgTDMyOS4wNjQ0MTMsOS4xNjAwNDg0NyBaIE0zNzYuMTQ1Njk5LDI3LjIxMDg4NDYgTDQxMy45Njk4MDEsMjcuMjEwODg0NiBMNDEzLjk2OTgwMSw5MC43MzMyOTI2IEw0MzguMTE0MzAxLDkwLjczMzI5MjYgTDQzOC4xMTQzMDEsMTAxLjc1NjcwNCBMMzc2LjE0NTY5OSwxMDEuNzU2NzA0IEwzNzYuMTQ1Njk5LDkwLjczMzI5MjYgTDQwMS4zMTYxNjgsOTAuNzMzMjkyNiBMNDAxLjMxNjE2OCwzOC4zMDMxOTIzIEwzNzYuMTQ1Njk5LDM4LjMwMzE5MjMgTDM3Ni4xNDU2OTksMjcuMjEwODg0NiBaIE0zOTkuNjc0NjE2LDcuNjQ0MzI5NDEgQzM5OS42NzQ2MTYsNS41MzE0OTgzMyA0MDAuMzAxNTkyLDMuNzUxNjk0NSA0MDEuNTU1NTYxLDIuMzA0ODY0NTIgQzQwMi44MDk1MzEsMC44NTgwMzQ1NDYgNDA0LjcxMzI1NywwLjEzNDYzMDQwOSA0MDcuMjY2Nzk2LDAuMTM0NjMwNDA5IEM0MDkuNzc0NzM2LDAuMTM0NjMwNDA5IDQxMS42NjcwNjIsMC44NTgwMzQ1NDYgNDEyLjk0MzgzMSwyLjMwNDg2NDUyIEM0MTQuMjIwNiwzLjc1MTY5NDUgNDE0Ljg1ODk3Niw1LjUzMTQ5ODMzIDQxNC44NTg5NzYsNy42NDQzMjk0MSBDNDE0Ljg1ODk3Niw5LjcxMTIyOTM3IDQxNC4yMjA2LDExLjQzMzYyMDIgNDEyLjk0MzgzMSwxMi44MTE1NTM1IEM0MTEuNjY3MDYyLDE0LjE4OTQ4NjggNDA5Ljc3NDczNiwxNC44Nzg0NDMxIDQwNy4yNjY3OTYsMTQuODc4NDQzMSBDNDA0LjcxMzI1NywxNC44Nzg0NDMxIDQwMi44MDk1MzEsMTQuMTg5NDg2OCA0MDEuNTU1NTYxLDEyLjgxMTU1MzUgQzQwMC4zMDE1OTIsMTEuNDMzNjIwMiAzOTkuNjc0NjE2LDkuNzExMjI5MzcgMzk5LjY3NDYxNiw3LjY0NDMyOTQxIFogTTQ4MS45MTI0ODIsMTAzLjEzNDYzIEM0NzYuNzE0MjA3LDEwMy4xMzQ2MyA0NzEuOTM3NzkzLDEwMi4yMzg5ODcgNDY3LjU4MzA5NywxMDAuNDQ3Njc0IEM0NjMuMjI4NDAyLDk4LjY1NjM2MDYgNDU5LjUwMDc0Nyw5Ni4xNTMxNTI2IDQ1Ni40MDAwMjIsOTIuOTM3OTc0OSBDNDUzLjI5OTI5Niw4OS43MjI3OTcyIDQ1MC44ODI1OTEsODUuOTEwNTcyMiA0NDkuMTQ5ODMyLDgxLjUwMTE4NTYgQzQ0Ny40MTcwNzQsNzcuMDkxNzk5IDQ0Ni41NTA3MDgsNzIuMjkyMDcgNDQ2LjU1MDcwOCw2Ny4xMDE4NTQ1IEw0NDYuNTUwNzA4LDY0LjIwODIwOSBDNDQ2LjU1MDcwOCw1OC4xOTEyMzM1IDQ0Ny41MDgyNyw1Mi44MDU4OTE2IDQ0OS40MjM0MjQsNDguMDUyMDIxNyBDNDUxLjMzODU3OCw0My4yOTgxNTE4IDQ1My44ODA2NzksMzkuMjc5MjM5OSA0NTcuMDQ5ODAzLDM1Ljk5NTE2NTUgQzQ2MC4yMTg5MjcsMzIuNzExMDkxMSA0NjMuODIxMTg2LDMwLjE5NjQwMDYgNDY3Ljg1NjY4OSwyOC40NTEwMTg0IEM0NzEuODkyMTkzLDI2LjcwNTYzNjIgNDc2LjAzMDIzMSwyNS44MzI5NTgyIDQ4MC4yNzA5MjksMjUuODMyOTU4MiBDNDg1LjYwNjAwMSwyNS44MzI5NTgyIDQ5MC4yNjg0MTksMjYuNzYzMDQ5MiA0OTQuMjU4MzI0LDI4LjYyMzI1OTIgQzQ5OC4yNDgyMjgsMzAuNDgzNDY5MSA1MDEuNTY1NDk4LDMzLjA1NTU3MjcgNTA0LjIxMDIzNSwzNi4zMzk2NDcxIEM1MDYuODU0OTcxLDM5LjYyMzcyMTUgNTA4LjgyNzA5NCw0My40OTMzNTk1IDUxMC4xMjY2NjMsNDcuOTQ4Njc3MiBDNTExLjQyNjIzMiw1Mi40MDM5OTQ5IDUxMi4wNzYwMDcsNTcuMjI2Njg5MiA1MTIuMDc2MDA3LDYyLjQxNjkwNDcgTDUxMi4wNzYwMDcsNjguMTM1Mjk5MyBMNDU5LjIwNDM0LDY4LjEzNTI5OTMgQzQ1OS4zNDExMzcsNzEuNTM0MjAxNSA0NTkuOTkwOTEyLDc0LjcyNjM2NTggNDYxLjE1MzY4NCw3Ny43MTE4ODc5IEM0NjIuMzE2NDU2LDgwLjY5NzQxMDEgNDYzLjkxMjM5NCw4My4zMDM5NjE1IDQ2NS45NDE1NDUsODUuNTMxNjIwNCBDNDY3Ljk3MDY5Niw4Ny43NTkyNzkyIDQ3MC4zOTg4MDIsODkuNTE2MTE3OCA0NzMuMjI1OTM0LDkwLjgwMjE4ODkgQzQ3Ni4wNTMwNjYsOTIuMDg4MjYgNDc5LjE3NjU0NCw5Mi43MzEyODU5IDQ4Mi41OTY0NjIsOTIuNzMxMjg1OSBDNDg3LjExMDc1Myw5Mi43MzEyODU5IDQ5MS4xMjMzOTcsOTEuODEyNjc3NSA0OTQuNjM0NTEzLDg5Ljk3NTQzMzEgQzQ5OC4xNDU2MjgsODguMTM4MTg4NyA1MDEuMDYzOTE0LDg1LjcwMzg3NjMgNTAzLjM4OTQ1OSw4Mi42NzI0MjMxIEw1MTEuMTE4NDM0LDg4LjczNTI5OTMgQzUwOS44ODcyNjQsOTAuNjE4NDc0OCA1MDguMzQ4MzI0LDkyLjQyMTI0MzkgNTA2LjUwMTU2OCw5NC4xNDM2NjA1IEM1MDQuNjU0ODEzLDk1Ljg2NjA3NzEgNTAyLjUyMzA5Niw5Ny4zOTMyNjM3IDUwMC4xMDYzNTQsOTguNzI1MjY1OSBDNDk3LjY4OTYxMiwxMDAuMDU3MjY4IDQ5NC45NTM3MTksMTAxLjEyNTE1IDQ5MS44OTg1OTIsMTAxLjkyODk0NSBDNDg4Ljg0MzQ2NSwxMDIuNzMyNzM5IDQ4NS41MTQ3OTUsMTAzLjEzNDYzIDQ4MS45MTI0ODIsMTAzLjEzNDYzIFogTTQ4MC4yNzA5MjksMzYuMzA1MTk5IEM0NzcuNzE3MzkxLDM2LjMwNTE5OSA0NzUuMzAwNjg1LDM2Ljc3NTk4NTggNDczLjAyMDc0LDM3LjcxNzU3MzYgQzQ3MC43NDA3OTQsMzguNjU5MTYxMyA0NjguNjg4ODc0LDQwLjAzNzA3NCA0NjYuODY0OTE4LDQxLjg1MTM1MjggQzQ2NS4wNDA5NjIsNDMuNjY1NjMxNyA0NjMuNTAyMDIyLDQ1Ljg5MzI1NzEgNDYyLjI0ODA1Miw0OC41MzQyOTYgQzQ2MC45OTQwODIsNTEuMTc1MzM0OCA0NjAuMTE2MzE3LDU0LjIxODIyNTIgNDU5LjYxNDcyOSw1Ny42NjMwNTg1IEw0OTkuNDIyMzc0LDU3LjY2MzA1ODUgTDQ5OS40MjIzNzQsNTYuNjk4NTEgQzQ5OS4yODU1NzcsNTQuMjE4MjMgNDk4LjgxODE5NSw1MS43NjA5NTI1IDQ5OC4wMjAyMTQsNDkuMzI2NjAzNyBDNDk3LjIyMjIzNCw0Ni44OTIyNTQ4IDQ5Ni4wNDgwNzksNDQuNzEwNTU5OCA0OTQuNDk3NzE3LDQyLjc4MTQ1MzIgQzQ5Mi45NDczNTQsNDAuODUyMzQ2NSA0OTAuOTk4MDMsMzkuMjkwNzEyMiA0ODguNjQ5Njg2LDM4LjA5NjUwMzMgQzQ4Ni4zMDEzNDMsMzYuOTAyMjk0NCA0ODMuNTA4NDUyLDM2LjMwNTE5OSA0ODAuMjcwOTI5LDM2LjMwNTE5OSBaIE01NzIuNzY4NDk3LDI1LjgzMjk1ODIgQzU3My45NTQwNjksMjUuODMyOTU4MiA1NzUuMTg1MjIxLDI1Ljg2NzQwNiA1NzYuNDYxOTksMjUuOTM2MzAyNiBDNTc3LjczODc2LDI2LjAwNTE5OTMgNTc4Ljk1ODUxMiwyNi4xMjAwMjU0IDU4MC4xMjEyODQsMjYuMjgwNzg0MyBDNTgxLjI4NDA1NiwyNi40NDE1NDMxIDU4Mi4zNTU2MTQsMjYuNjM2NzQ3NCA1ODMuMzM1OTkxLDI2Ljg2NjQwMyBDNTg0LjMxNjM2NywyNy4wOTYwNTg1IDU4NS4xMjU3MzYsMjcuMzQ4Njc1OSA1ODUuNzY0MTIsMjcuNjI0MjYyNSBMNTg0LjA1NDE3LDQwLjA5NDQ5NjYgQzU4MS41OTE4MjksMzkuNTQzMzIzMyA1NzkuMjU0OTIsMzkuMTQxNDMyMSA1NzcuMDQzMzczLDM4Ljg4ODgxMSBDNTc0LjgzMTgyNiwzOC42MzYxODk5IDU3Mi41MTc3MTcsMzguNTA5ODgxMiA1NzAuMTAwOTc1LDM4LjUwOTg4MTIgQzU2NC4xNzMxMTcsMzguNTA5ODgxMiA1NTkuMzczOTA0LDM5Ljg2NDgyODcgNTU1LjcwMzE5Miw0Mi41NzQ3NjQyIEM1NTIuMDMyNDgxLDQ1LjI4NDY5OTcgNTQ5LjMzMDc4Niw0OS4wNzM5NTk1IDU0Ny41OTgwMjgsNTMuOTQyNjU3MiBMNTQ3LjU5ODAyOCwxMDEuNzU2NzA0IEw1MzQuODc1OTk3LDEwMS43NTY3MDQgTDUzNC44NzU5OTcsMjcuMjEwODg0NiBMNTQ2LjkxNDA0NywyNy4yMTA4ODQ2IEw1NDcuNTI5NjMsMzkuMDYxMDUxOCBDNTUwLjUzOTE1NywzNC45NzMxODMgNTU0LjE1MjgxNiwzMS43NDY1NzA5IDU1OC4zNzA3MTUsMjkuMzgxMTE4NyBDNTYyLjU4ODYxNCwyNy4wMTU2NjY1IDU2Ny4zODc4MjcsMjUuODMyOTU4MiA1NzIuNzY4NDk3LDI1LjgzMjk1ODIgWiIgaWQ9IlByZXR0aWVyIi8+CiAgICAgICAgICAgIDwvZz4KICAgICAgICAgICAgPGcgaWQ9Ikljb24tKExpZ2h0KSI+CiAgICAgICAgICAgICAgICA8ZyBpZD0ibGluZS0xMSIgdHJhbnNmb3JtPSJ0cmFuc2xhdGUoMC4wMDAwMDAsIDIwMC4wMDAwMDApIj4KICAgICAgICAgICAgICAgICAgICA8cmVjdCBpZD0ibGluZS0xMS1kYXNoLTMiIGZpbGw9IiNDRkQ0RDciIG9wYWNpdHk9IjAuNSIgeD0iMTUwIiB5PSIwIiB3aWR0aD0iNjAiIGhlaWdodD0iMTAiIHJ4PSI1Ii8+CiAgICAgICAgICAgICAgICAgICAgPHJlY3QgaWQ9ImxpbmUtMTEtZGFzaC0yIiBmaWxsPSIjQ0ZENEQ3IiBvcGFjaXR5PSIwLjUiIHg9IjcwIiB5PSIwIiB3aWR0aD0iNzAiIGhlaWdodD0iMTAiIHJ4PSI1Ii8+CiAgICAgICAgICAgICAgICAgICAgPHJlY3QgaWQ9ImxpbmUtMTEtZGFzaC0xIiBmaWxsPSIjRUE1RTVFIiB4PSIwIiB5PSIwIiB3aWR0aD0iNjAiIGhlaWdodD0iMTAiIHJ4PSI1Ii8+CiAgICAgICAgICAgICAgICA8L2c+CiAgICAgICAgICAgICAgICA8ZyBpZD0ibGluZS0xMCIgdHJhbnNmb3JtPSJ0cmFuc2xhdGUoMC4wMDAwMDAsIDE4MC4wMDAwMDApIj4KICAgICAgICAgICAgICAgICAgICA8cmVjdCBpZD0ibGluZS0xMC1kYXNoLTUiIGZpbGw9IiNDRkQ0RDciIG9wYWNpdHk9IjAuNSIgeD0iMTYwIiB5PSIwIiB3aWR0aD0iNTAiIGhlaWdodD0iMTAiIHJ4PSI1Ii8+CiAgICAgICAgICAgICAgICAgICAgPHJlY3QgaWQ9ImxpbmUtMTAtZGFzaC00IiBmaWxsPSIjQ0ZENEQ3IiBvcGFjaXR5PSIwLjUiIHg9IjEzMCIgeT0iMCIgd2lkdGg9IjIwIiBoZWlnaHQ9IjEwIiByeD0iNSIvPgogICAgICAgICAgICAgICAgICAgIDxyZWN0IGlkPSJsaW5lLTEwLWRhc2gtMyIgZmlsbD0iI0NGRDRENyIgb3BhY2l0eT0iMC41IiB4PSI3MCIgeT0iMCIgd2lkdGg9IjUwIiBoZWlnaHQ9IjEwIiByeD0iNSIvPgogICAgICAgICAgICAgICAgICAgIDxyZWN0IGlkPSJsaW5lLTEwLWRhc2gtMiIgZmlsbD0iI0Y3QjkzRSIgeD0iNDAiIHk9IjAiIHdpZHRoPSIyMCIgaGVpZ2h0PSIxMCIgcng9IjUiLz4KICAgICAgICAgICAgICAgICAgICA8cmVjdCBpZD0ibGluZS0xMC1kYXNoLTEiIGZpbGw9IiM1NkIzQjQiIHg9IjAiIHk9IjAiIHdpZHRoPSIzMCIgaGVpZ2h0PSIxMCIgcng9IjUiLz4KICAgICAgICAgICAgICAgIDwvZz4KICAgICAgICAgICAgICAgIDxnIGlkPSJsaW5lLTkiIHRyYW5zZm9ybT0idHJhbnNsYXRlKDAuMDAwMDAwLCAxNjAuMDAwMDAwKSI+CiAgICAgICAgICAgICAgICAgICAgPHJlY3QgaWQ9ImxpbmUtOS1kYXNoLTMiIGZpbGw9IiNDRkQ0RDciIG9wYWNpdHk9IjAuNSIgeD0iMTEwIiB5PSIwIiB3aWR0aD0iMTAwIiBoZWlnaHQ9IjEwIiByeD0iNSIvPgogICAgICAgICAgICAgICAgICAgIDxyZWN0IGlkPSJsaW5lLTktZGFzaC0yIiBmaWxsPSIjQ0ZENEQ3IiBvcGFjaXR5PSIwLjUiIHg9IjcwIiB5PSIwIiB3aWR0aD0iMzAiIGhlaWdodD0iMTAiIHJ4PSI1Ii8+CiAgICAgICAgICAgICAgICAgICAgPHJlY3QgaWQ9ImxpbmUtOS1kYXNoLTEiIGZpbGw9IiNCRjg1QkYiIHg9IjAiIHk9IjAiIHdpZHRoPSI2MCIgaGVpZ2h0PSIxMCIgcng9IjUiLz4KICAgICAgICAgICAgICAgIDwvZz4KICAgICAgICAgICAgICAgIDxnIGlkPSJsaW5lLTgiIHRyYW5zZm9ybT0idHJhbnNsYXRlKDAuMDAwMDAwLCAxNDAuMDAwMDAwKSI+CiAgICAgICAgICAgICAgICAgICAgPHJlY3QgaWQ9ImxpbmUtOC1kYXNoLTQiIGZpbGw9IiNDRkQ0RDciIG9wYWNpdHk9IjAuNSIgeD0iMTgwIiB5PSIwIiB3aWR0aD0iMzAiIGhlaWdodD0iMTAiIHJ4PSI1Ii8+CiAgICAgICAgICAgICAgICAgICAgPHJlY3QgaWQ9ImxpbmUtOC1kYXNoLTMiIGZpbGw9IiNDRkQ0RDciIG9wYWNpdHk9IjAuNSIgeD0iMTQwIiB5PSIwIiB3aWR0aD0iMzAiIGhlaWdodD0iMTAiIHJ4PSI1Ii8+CiAgICAgICAgICAgICAgICAgICAgPHJlY3QgaWQ9ImxpbmUtOC1kYXNoLTIiIGZpbGw9IiNGN0I5M0UiIHg9IjMwIiB5PSIwIiB3aWR0aD0iMTAwIiBoZWlnaHQ9IjEwIiByeD0iNSIvPgogICAgICAgICAgICAgICAgICAgIDxyZWN0IGlkPSJsaW5lLTgtZGFzaC0xIiBmaWxsPSIjQkY4NUJGIiB4PSIwIiB5PSIwIiB3aWR0aD0iMjAiIGhlaWdodD0iMTAiIHJ4PSI1Ii8+CiAgICAgICAgICAgICAgICA8L2c+CiAgICAgICAgICAgICAgICA8ZyBpZD0ibGluZS03IiB0cmFuc2Zvcm09InRyYW5zbGF0ZSgwLjAwMDAwMCwgMTIwLjAwMDAwMCkiPgogICAgICAgICAgICAgICAgICAgIDxyZWN0IGlkPSJsaW5lLTctZGFzaC00IiBmaWxsPSIjQ0ZENEQ3IiBvcGFjaXR5PSIwLjUiIHg9IjE3MCIgeT0iMCIgd2lkdGg9IjQwIiBoZWlnaHQ9IjEwIiByeD0iNSIvPgogICAgICAgICAgICAgICAgICAgIDxyZWN0IGlkPSJsaW5lLTctZGFzaC0zIiBmaWxsPSIjQkY4NUJGIiB4PSIxMjAiIHk9IjAiIHdpZHRoPSI0MCIgaGVpZ2h0PSIxMCIgcng9IjUiLz4KICAgICAgICAgICAgICAgICAgICA8cmVjdCBpZD0ibGluZS03LWRhc2gtMiIgZmlsbD0iI0VBNUU1RSIgeD0iNjAiIHk9IjAiIHdpZHRoPSI1MCIgaGVpZ2h0PSIxMCIgcng9IjUiLz4KICAgICAgICAgICAgICAgICAgICA8cmVjdCBpZD0ibGluZS03LWRhc2gtMSIgZmlsbD0iIzU2QjNCNCIgeD0iMCIgeT0iMCIgd2lkdGg9IjUwIiBoZWlnaHQ9IjEwIiByeD0iNSIvPgogICAgICAgICAgICAgICAgPC9nPgogICAgICAgICAgICAgICAgPGcgaWQ9ImxpbmUtNiIgdHJhbnNmb3JtPSJ0cmFuc2xhdGUoMC4wMDAwMDAsIDEwMC4wMDAwMDApIj4KICAgICAgICAgICAgICAgICAgICA8cmVjdCBpZD0ibGluZS02LWRhc2gtNCIgZmlsbD0iI0NGRDRENyIgb3BhY2l0eT0iMC41IiB4PSIxODAiIHk9IjAiIHdpZHRoPSIzMCIgaGVpZ2h0PSIxMCIgcng9IjUiLz4KICAgICAgICAgICAgICAgICAgICA8cmVjdCBpZD0ibGluZS02LWRhc2gtMyIgZmlsbD0iIzU2QjNCNCIgeD0iODAiIHk9IjAiIHdpZHRoPSI5MCIgaGVpZ2h0PSIxMCIgcng9IjUiLz4KICAgICAgICAgICAgICAgICAgICA8cmVjdCBpZD0ibGluZS02LWRhc2gtMiIgZmlsbD0iI0Y3QjkzRSIgeD0iMzAiIHk9IjAiIHdpZHRoPSI0MCIgaGVpZ2h0PSIxMCIgcng9IjUiLz4KICAgICAgICAgICAgICAgICAgICA8cmVjdCBpZD0ibGluZS02LWRhc2gtMSIgZmlsbD0iI0VBNUU1RSIgeD0iMCIgeT0iMCIgd2lkdGg9IjIwIiBoZWlnaHQ9IjEwIiByeD0iNSIvPgogICAgICAgICAgICAgICAgPC9nPgogICAgICAgICAgICAgICAgPGcgaWQ9ImxpbmUtNSIgdHJhbnNmb3JtPSJ0cmFuc2xhdGUoMC4wMDAwMDAsIDgwLjAwMDAwMCkiPgogICAgICAgICAgICAgICAgICAgIDxyZWN0IGlkPSJsaW5lLTUtZGFzaC00IiBmaWxsPSIjQ0ZENEQ3IiBvcGFjaXR5PSIwLjUiIHg9IjE5MCIgeT0iMCIgd2lkdGg9IjIwIiBoZWlnaHQ9IjEwIiByeD0iNSIvPgogICAgICAgICAgICAgICAgICAgIDxyZWN0IGlkPSJsaW5lLTUtZGFzaC0zIiBmaWxsPSIjRjdCOTNFIiB4PSIxMjAiIHk9IjAiIHdpZHRoPSI2MCIgaGVpZ2h0PSIxMCIgcng9IjUiLz4KICAgICAgICAgICAgICAgICAgICA8cmVjdCBpZD0ibGluZS01LWRhc2gtMiIgZmlsbD0iI0NGRDRENyIgb3BhY2l0eT0iMC41IiB4PSI3MCIgeT0iMCIgd2lkdGg9IjQwIiBoZWlnaHQ9IjEwIiByeD0iNSIvPgogICAgICAgICAgICAgICAgICAgIDxyZWN0IGlkPSJsaW5lLTUtZGFzaC0xIiBmaWxsPSIjQkY4NUJGIiB4PSIwIiB5PSIwIiB3aWR0aD0iNjAiIGhlaWdodD0iMTAiIHJ4PSI1Ii8+CiAgICAgICAgICAgICAgICA8L2c+CiAgICAgICAgICAgICAgICA8ZyBpZD0ibGluZS00IiB0cmFuc2Zvcm09InRyYW5zbGF0ZSgwLjAwMDAwMCwgNjAuMDAwMDAwKSI+CiAgICAgICAgICAgICAgICAgICAgPHJlY3QgaWQ9ImxpbmUtNC1kYXNoLTUiIGZpbGw9IiNDRkQ0RDciIG9wYWNpdHk9IjAuNSIgeD0iMTkwIiB5PSIwIiB3aWR0aD0iMjAiIGhlaWdodD0iMTAiIHJ4PSI1Ii8+CiAgICAgICAgICAgICAgICAgICAgPHJlY3QgaWQ9ImxpbmUtNC1kYXNoLTQiIGZpbGw9IiNFQTVFNUUiIHg9IjEyMCIgeT0iMCIgd2lkdGg9IjYwIiBoZWlnaHQ9IjEwIiByeD0iNSIvPgogICAgICAgICAgICAgICAgICAgIDxyZWN0IGlkPSJsaW5lLTQtZGFzaC0zIiBmaWxsPSIjQ0ZENEQ3IiBvcGFjaXR5PSIwLjUiIHg9IjcwIiB5PSIwIiB3aWR0aD0iNDAiIGhlaWdodD0iMTAiIHJ4PSI1Ii8+CiAgICAgICAgICAgICAgICAgICAgPHJlY3QgaWQ9ImxpbmUtNC1kYXNoLTIiIGZpbGw9IiM1NkIzQjQiIHg9IjQwIiB5PSIwIiB3aWR0aD0iMjAiIGhlaWdodD0iMTAiIHJ4PSI1Ii8+CiAgICAgICAgICAgICAgICAgICAgPHJlY3QgaWQ9ImxpbmUtNC1kYXNoLTEiIGZpbGw9IiNGN0I5M0UiIHg9IjAiIHk9IjAiIHdpZHRoPSIzMCIgaGVpZ2h0PSIxMCIgcng9IjUiLz4KICAgICAgICAgICAgICAgIDwvZz4KICAgICAgICAgICAgICAgIDxnIGlkPSJsaW5lLTMiIHRyYW5zZm9ybT0idHJhbnNsYXRlKDAuMDAwMDAwLCA0MC4wMDAwMDApIj4KICAgICAgICAgICAgICAgICAgICA8cmVjdCBpZD0ibGluZS0zLWRhc2gtNCIgZmlsbD0iI0NGRDRENyIgb3BhY2l0eT0iMC41IiB4PSIxODAiIHk9IjAiIHdpZHRoPSIzMCIgaGVpZ2h0PSIxMCIgcng9IjUiLz4KICAgICAgICAgICAgICAgICAgICA8cmVjdCBpZD0ibGluZS0zLWRhc2gtMyIgZmlsbD0iIzU2QjNCNCIgeD0iMTUwIiB5PSIwIiB3aWR0aD0iMjAiIGhlaWdodD0iMTAiIHJ4PSI1Ii8+CiAgICAgICAgICAgICAgICAgICAgPHJlY3QgaWQ9ImxpbmUtMy1kYXNoLTIiIGZpbGw9IiNCRjg1QkYiIHg9IjkwIiB5PSIwIiB3aWR0aD0iNTAiIGhlaWdodD0iMTAiIHJ4PSI1Ii8+CiAgICAgICAgICAgICAgICAgICAgPHJlY3QgaWQ9ImxpbmUtMy1kYXNoLTEiIGZpbGw9IiM1NkIzQjQiIHg9IjAiIHk9IjAiIHdpZHRoPSI4MCIgaGVpZ2h0PSIxMCIgcng9IjUiLz4KICAgICAgICAgICAgICAgIDwvZz4KICAgICAgICAgICAgICAgIDxnIGlkPSJsaW5lLTIiIHRyYW5zZm9ybT0idHJhbnNsYXRlKDAuMDAwMDAwLCAyMC4wMDAwMDApIj4KICAgICAgICAgICAgICAgICAgICA8cmVjdCBpZD0ibGluZS0yLWRhc2gtMyIgZmlsbD0iI0NGRDRENyIgb3BhY2l0eT0iMC41IiB4PSIxNzAiIHk9IjAiIHdpZHRoPSI0MCIgaGVpZ2h0PSIxMCIgcng9IjUiLz4KICAgICAgICAgICAgICAgICAgICA8cmVjdCBpZD0ibGluZS0yLWRhc2gtMiIgZmlsbD0iI0Y3QjkzRSIgeD0iNTAiIHk9IjAiIHdpZHRoPSIxMTAiIGhlaWdodD0iMTAiIHJ4PSI1Ii8+CiAgICAgICAgICAgICAgICAgICAgPHJlY3QgaWQ9ImxpbmUtMi1kYXNoLTEiIGZpbGw9IiNFQTVFNUUiIHg9IjAiIHk9IjAiIHdpZHRoPSI0MCIgaGVpZ2h0PSIxMCIgcng9IjUiLz4KICAgICAgICAgICAgICAgIDwvZz4KICAgICAgICAgICAgICAgIDxnIGlkPSJsaW5lLTEiPgogICAgICAgICAgICAgICAgICAgIDxyZWN0IGlkPSJsaW5lLTEtZGFzaC0yIiBmaWxsPSIjQ0ZENEQ3IiBvcGFjaXR5PSIwLjUiIHg9IjE0MCIgeT0iMCIgd2lkdGg9IjcwIiBoZWlnaHQ9IjEwIiByeD0iNSIvPgogICAgICAgICAgICAgICAgICAgIDxyZWN0IGlkPSJsaW5lLTEtZGFzaC0xIiBmaWxsPSIjNTZCM0I0IiB4PSIwIiB5PSIwIiB3aWR0aD0iMTMwIiBoZWlnaHQ9IjEwIiByeD0iNSIvPgogICAgICAgICAgICAgICAgPC9nPgogICAgICAgICAgICA8L2c+CiAgICAgICAgPC9nPgogICAgPC9nPgo8L3N2Zz4=;" vertex="1" parent="DSFdceFmaKd0g0XFRlf6-56">
                    <mxGeometry x="176.87" y="140" width="112.46" height="27.25" as="geometry"/>
                </mxCell>
                <UserObject label="3D Renderer" id="DSFdceFmaKd0g0XFRlf6-107">
                    <mxCell style="swimlane;startSize=23;fontFamily=Lucida Console;" parent="1" vertex="1">
                        <mxGeometry x="616.07" y="850" width="270" height="120" as="geometry"/>
                    </mxCell>
                </UserObject>
                <mxCell id="DSFdceFmaKd0g0XFRlf6-78" value="3D Rendering" style="text;html=1;align=center;verticalAlign=middle;resizable=0;points=[];autosize=1;strokeColor=none;fillColor=none;fontFamily=Lucida Console;fontSize=10;" parent="DSFdceFmaKd0g0XFRlf6-107" vertex="1">
                    <mxGeometry x="161" y="91.5" width="90" height="20" as="geometry"/>
                </mxCell>
                <mxCell id="DSFdceFmaKd0g0XFRlf6-131" value="Underlying&lt;br&gt;technology" style="text;html=1;align=center;verticalAlign=middle;resizable=0;points=[];autosize=1;strokeColor=none;fillColor=none;fontSize=10;fontFamily=Lucida Console;" parent="DSFdceFmaKd0g0XFRlf6-107" vertex="1">
                    <mxGeometry x="35" y="86.5" width="80" height="30" as="geometry"/>
                </mxCell>
                <mxCell id="3" value="" style="shape=image;verticalLabelPosition=bottom;labelBackgroundColor=#ffffff;verticalAlign=top;aspect=fixed;imageAspect=0;image=data:image/svg+xml,PHN2ZyB4bWxucz0iaHR0cDovL3d3dy53My5vcmcvMjAwMC9zdmciIHhtbG5zOnhsaW5rPSJodHRwOi8vd3d3LnczLm9yZy8xOTk5L3hsaW5rIiB2ZXJzaW9uPSIxLjEiIGlkPSJMYXllcl8xIiB4PSIwcHgiIHk9IjBweCIgdmlld0JveD0iMCAwIDY0MCA2NDAiIHN0eWxlPSJlbmFibGUtYmFja2dyb3VuZDpuZXcgMCAwIDY0MCA2NDA7IiB4bWw6c3BhY2U9InByZXNlcnZlIj4KPHN0eWxlIHR5cGU9InRleHQvY3NzIj4KCS5zdDB7ZmlsbDojRkZGRkZGO30KCS5zdDF7ZmlsbDojRkZGRkZGO3N0cm9rZTojMDAwMDAwO3N0cm9rZS13aWR0aDo3O3N0cm9rZS1taXRlcmxpbWl0OjEwO30KCS5zdDJ7ZmlsbDpub25lO3N0cm9rZTojMDAwMDAwO3N0cm9rZS13aWR0aDo3O3N0cm9rZS1taXRlcmxpbWl0OjEwO30KPC9zdHlsZT4KPHBvbHlsaW5lIGNsYXNzPSJzdDAiIHBvaW50cz0iMTcxLjcsNjIxLjcgMjAsMTguNCA2MjAsMTg2LjkgIi8+CjxnPgoJPGxpbmUgY2xhc3M9InN0MSIgeDE9IjI0NS44IiB5MT0iMzYyLjQiIHgyPSIyODMuNyIgeTI9IjUxMy4zIi8+Cgk8bGluZSBjbGFzcz0ic3QxIiB4MT0iMzk1LjUiIHkxPSI0MDQuOCIgeDI9IjI0NS44IiB5Mj0iMzYyLjQiLz4KCTxsaW5lIGNsYXNzPSJzdDEiIHgxPSIyODMuNyIgeTE9IjUxMy4zIiB4Mj0iMzk1LjUiIHkyPSI0MDQuOCIvPgoJPHBhdGggY2xhc3M9InN0MSIgZD0iTTEzNCw0NzAuOSIvPgoJPGxpbmUgY2xhc3M9InN0MSIgeDE9IjI4My43IiB5MT0iNTEzLjMiIHgyPSIxMzQiIHkyPSI0NzAuOSIvPgoJPHBhdGggY2xhc3M9InN0MSIgZD0iTTEzNCw0NzAuOSIvPgoJPHBvbHlsaW5lIGNsYXNzPSJzdDIiIHBvaW50cz0iMTM0LDQ3MC45IDE3MS45LDYyMS45IDI4My43LDUxMy4zICAiLz4KCTxsaW5lIGNsYXNzPSJzdDEiIHgxPSIxMzQiIHkxPSI0NzAuOSIgeDI9IjI0NS44IiB5Mj0iMzYyLjQiLz4KCTxsaW5lIGNsYXNzPSJzdDEiIHgxPSIyNDUuOCIgeTE9IjM2Mi40IiB4Mj0iMzU3LjciIHkyPSIyNTMuOCIvPgoJPGxpbmUgY2xhc3M9InN0MSIgeDE9IjM1Ny43IiB5MT0iMjUzLjgiIHgyPSI0NjkuNSIgeTI9IjE0NS4zIi8+Cgk8bGluZSBjbGFzcz0ic3QxIiB4MT0iMzE5LjgiIHkxPSIxMDIuOSIgeDI9IjM1Ny43IiB5Mj0iMjUzLjgiLz4KCTxsaW5lIGNsYXNzPSJzdDEiIHgxPSIzNTcuNyIgeTE9IjI1My44IiB4Mj0iMjA3LjkiIHkyPSIyMTEuNSIvPgoJPGxpbmUgY2xhc3M9InN0MSIgeDE9IjIwNy45IiB5MT0iMjExLjUiIHgyPSIyNDUuOCIgeTI9IjM2Mi40Ii8+Cgk8bGluZSBjbGFzcz0ic3QxIiB4MT0iMjQ1LjgiIHkxPSIzNjIuNCIgeDI9Ijk2LjEiIHkyPSIzMjAiLz4KCTxsaW5lIGNsYXNzPSJzdDEiIHgxPSI5Ni4xIiB5MT0iMzIwIiB4Mj0iMTM0IiB5Mj0iNDcwLjkiLz4KCTxsaW5lIGNsYXNzPSJzdDEiIHgxPSI1OC4yIiB5MT0iMTY5LjEiIHgyPSI5Ni4xIiB5Mj0iMzIwIi8+Cgk8bGluZSBjbGFzcz0ic3QxIiB4MT0iMjA3LjkiIHkxPSIyMTEuNSIgeDI9IjU4LjIiIHkyPSIxNjkuMSIvPgoJPGxpbmUgY2xhc3M9InN0MSIgeDE9Ijk2LjEiIHkxPSIzMjAiIHgyPSIyMDcuOSIgeTI9IjIxMS41Ii8+Cgk8bGluZSBjbGFzcz0ic3QxIiB4MT0iMjA3LjkiIHkxPSIyMTEuNCIgeDI9IjMxOS44IiB5Mj0iMTAyLjkiLz4KCTxsaW5lIGNsYXNzPSJzdDEiIHgxPSIzMTkuOCIgeTE9IjEwMi45IiB4Mj0iMTcwIiB5Mj0iNjAuNSIvPgoJPGxpbmUgY2xhc3M9InN0MSIgeDE9IjE3MCIgeTE9IjYwLjUiIHgyPSIyMDcuOSIgeTI9IjIxMS40Ii8+Cgk8cG9seWxpbmUgY2xhc3M9InN0MiIgcG9pbnRzPSI1OC4yLDE2OS4xIDIwLjMsMTguMSAxNzAsNjAuNSAgIi8+Cgk8bGluZSBjbGFzcz0ic3QxIiB4MT0iNTguMiIgeTE9IjE2OS4xIiB4Mj0iMTcwIiB5Mj0iNjAuNSIvPgoJPHBvbHlsaW5lIGNsYXNzPSJzdDIiIHBvaW50cz0iNTA3LjQsMjk2LjIgNjE5LjIsMTg3LjcgNDY5LjUsMTQ1LjMgICIvPgoJPGxpbmUgY2xhc3M9InN0MSIgeDE9IjQ2OS41IiB5MT0iMTQ1LjMiIHgyPSI1MDcuNCIgeTI9IjI5Ni4yIi8+Cgk8bGluZSBjbGFzcz0ic3QxIiB4MT0iNTA3LjQiIHkxPSIyOTYuMiIgeDI9IjM1Ny43IiB5Mj0iMjUzLjgiLz4KCTxsaW5lIGNsYXNzPSJzdDEiIHgxPSIzNTcuNyIgeTE9IjI1My44IiB4Mj0iMzk1LjUiIHkyPSI0MDQuOCIvPgoJPGxpbmUgY2xhc3M9InN0MSIgeDE9IjM5NS41IiB5MT0iNDA0LjgiIHgyPSI1MDcuNCIgeTI9IjI5Ni4yIi8+Cgk8bGluZSBjbGFzcz0ic3QxIiB4MT0iNDY5LjUiIHkxPSIxNDUuMyIgeDI9IjMxOS44IiB5Mj0iMTAyLjkiLz4KPC9nPgo8L3N2Zz4=;" vertex="1" parent="DSFdceFmaKd0g0XFRlf6-107">
                    <mxGeometry x="170" y="40.75" width="47.5" height="47.5" as="geometry"/>
                </mxCell>
                <mxCell id="4" value="three.js" style="text;html=1;align=center;verticalAlign=middle;resizable=0;points=[];autosize=1;strokeColor=none;fillColor=none;fontFamily=Lucida Console;fontSize=10;" vertex="1" parent="DSFdceFmaKd0g0XFRlf6-107">
                    <mxGeometry x="191" y="71.5" width="60" height="20" as="geometry"/>
                </mxCell>
                <mxCell id="6" value="" style="shape=image;verticalLabelPosition=bottom;labelBackgroundColor=#ffffff;verticalAlign=top;aspect=fixed;imageAspect=0;image=data:image/svg+xml,PHN2ZyB4bWxucz0iaHR0cDovL3d3dy53My5vcmcvMjAwMC9zdmciIHhtbG5zOmNjPSJodHRwOi8vY3JlYXRpdmVjb21tb25zLm9yZy9ucyMiIHhtbG5zOmRjPSJodHRwOi8vcHVybC5vcmcvZGMvZWxlbWVudHMvMS4xLyIgeG1sbnM6cmRmPSJodHRwOi8vd3d3LnczLm9yZy8xOTk5LzAyLzIyLXJkZi1zeW50YXgtbnMjIiB3aWR0aD0iNTEyIiBoZWlnaHQ9IjUxMiIgZmlsbD0ibm9uZSIgdmVyc2lvbj0iMS4xIiB2aWV3Qm94PSIwIDAgNTEyIDUxMiI+Cjx0aXRsZT5UeXBlU2NyaXB0IGxvZ288L3RpdGxlPgogPHJlY3Qgd2lkdGg9IjUxMiIgaGVpZ2h0PSI1MTIiIHJ4PSI1MCIgZmlsbD0iIzMxNzhjNiIvPgogPHBhdGggZD0ibTMxNyA0MDd2NTBjOC4xIDQuMiAxOCA3LjMgMjkgOS40czIzIDMuMSAzNSAzLjFjMTIgMCAyMy0xLjEgMzQtMy40IDExLTIuMyAyMC02LjEgMjgtMTEgOC4xLTUuMyAxNS0xMiAxOS0yMXM3LjEtMTkgNy4xLTMyYzAtOS4xLTEuNC0xNy00LjEtMjRzLTYuNi0xMy0xMi0xOGMtNS4xLTUuMy0xMS0xMC0xOC0xNHMtMTUtOC4yLTI0LTEyYy02LjYtMi43LTEyLTUuMy0xOC03LjktNS4yLTIuNi05LjctNS4yLTEzLTcuOC0zLjctMi43LTYuNS01LjUtOC41LTguNC0yLTMtMy02LjMtMy0xMCAwLTMuNCAwLjg5LTYuNSAyLjctOS4zczQuMy01LjEgNy41LTcuMWMzLjItMiA3LjItMy41IDEyLTQuNiA0LjctMS4xIDkuOS0xLjYgMTYtMS42IDQuMiAwIDguNiAwLjMxIDEzIDAuOTQgNC42IDAuNjMgOS4zIDEuNiAxNCAyLjkgNC43IDEuMyA5LjMgMi45IDE0IDQuOSA0LjQgMiA4LjUgNC4zIDEyIDYuOXYtNDdjLTcuNi0yLjktMTYtNS4xLTI1LTYuNXMtMTktMi4xLTMxLTIuMWMtMTIgMC0yMyAxLjMtMzQgMy44cy0yMCA2LjUtMjggMTJjLTguMSA1LjQtMTQgMTItMTkgMjEtNC43IDguNC03IDE4LTcgMzAgMCAxNSA0LjMgMjggMTMgMzggOC42IDExIDIyIDE5IDM5IDI3IDYuOSAyLjggMTMgNS42IDE5IDguM3MxMSA1LjUgMTUgOC40YzQuMyAyLjkgNy43IDYuMSAxMCA5LjUgMi41IDMuNCAzLjggNy40IDMuOCAxMiAwIDMuMi0wLjc4IDYuMi0yLjMgOXMtMy45IDUuMi03LjEgNy4yLTcuMSAzLjYtMTIgNC44Yy00LjcgMS4xLTEwIDEuNy0xNyAxLjctMTEgMC0yMi0xLjktMzItNS43LTExLTMuOC0yMS05LjUtMzAtMTd6bS04NC0xMjNoNjR2LTQxaC0xNzl2NDFoNjR2MTgzaDUxeiIgY2xpcC1ydWxlPSJldmVub2RkIiBmaWxsPSIjZmZmIiBmaWxsLXJ1bGU9ImV2ZW5vZGQiIHN0eWxlPSJmaWxsOiNmZmYiLz4KPC9zdmc+;" vertex="1" parent="DSFdceFmaKd0g0XFRlf6-107">
                    <mxGeometry x="52.5" y="37.5" width="45" height="45" as="geometry"/>
                </mxCell>
                <mxCell id="DSFdceFmaKd0g0XFRlf6-141" style="edgeStyle=orthogonalEdgeStyle;rounded=0;orthogonalLoop=1;jettySize=auto;html=1;exitX=0;exitY=0.5;exitDx=0;exitDy=0;dashed=1;fontSize=10;startArrow=none;startFill=0;endArrow=open;endFill=0;fontFamily=Lucida Console;" parent="1" edge="1">
                    <mxGeometry relative="1" as="geometry">
                        <Array as="points">
                            <mxPoint x="440" y="730"/>
                        </Array>
                        <mxPoint x="570.9900000000001" y="730" as="sourcePoint"/>
                        <mxPoint x="440" y="730" as="targetPoint"/>
                    </mxGeometry>
                </mxCell>
                <mxCell id="DSFdceFmaKd0g0XFRlf6-142" value="«use»" style="edgeLabel;html=1;align=center;verticalAlign=middle;resizable=0;points=[];fontSize=10;fontFamily=Lucida Console;" parent="DSFdceFmaKd0g0XFRlf6-141" vertex="1" connectable="0">
                    <mxGeometry x="-0.1198" y="1" relative="1" as="geometry">
                        <mxPoint x="-8" y="-1" as="offset"/>
                    </mxGeometry>
                </mxCell>
            </root>
        </mxGraphModel>
    </diagram>
</mxfile>